<svg width="65" height="128" viewBox="0 0 65 128" fill="none" xmlns="http://www.w3.org/2000/svg">
<path fill-rule="evenodd" clip-rule="evenodd" d="M48.9178 1.27397L48.2808 0L0.738281 11.7389V13.3051C0.738281 15.0559 1.33887 16.5314 2.70902 17.4122C3.87632 18.1626 5.26786 18.2331 6.21528 18.2331H8.96028C12.3281 18.2331 14.9318 18.2928 16.7972 19.4608C18.403 20.4663 19.9533 22.6802 19.9533 28.4941V110.295C19.9533 113.593 19.1066 115.564 18.0484 116.824C16.9652 118.113 15.468 118.89 13.7505 119.439C12.8937 119.712 12.0191 119.918 11.1425 120.109C10.9752 120.146 10.8048 120.183 10.6329 120.22C9.94317 120.368 9.2311 120.522 8.60707 120.694C7.84941 120.902 6.95601 121.203 6.22983 121.738C5.3962 122.353 4.76428 123.301 4.76428 124.569V127.85H64.9453V124.569C64.9453 123.306 64.3205 122.354 63.4677 121.741C62.7318 121.212 61.8321 120.934 61.0782 120.748C60.4213 120.587 59.674 120.452 58.9555 120.322C58.8212 120.298 58.6879 120.274 58.5564 120.25C57.6855 120.091 56.82 119.922 55.9715 119.69C54.2641 119.221 52.8093 118.54 51.7685 117.387C50.7639 116.274 49.9393 114.491 49.9393 111.393V2.22873L49.3535 1.64295C49.2741 1.56351 49.1996 1.49873 49.1432 1.45172C49.0867 1.40464 49.0336 1.36326 48.9964 1.33445L48.9432 1.2936L48.9178 1.27397ZM3.258 15.2369C3.23548 15.2068 3.2136 15.176 3.19237 15.1442C2.90542 14.7146 2.73828 14.1213 2.73828 13.3051L47.2073 2.32512C47.3349 2.58029 47.5514 2.74651 47.7329 2.8858C47.8117 2.94629 47.8839 3.00171 47.9393 3.05713V111.393C47.9393 120.365 54.1843 121.493 58.6169 122.294C60.604 122.653 62.2268 122.946 62.7595 123.85C62.8805 124.056 62.9453 124.293 62.9453 124.569V125.85H6.76428V124.569C6.76428 124.295 6.82884 124.058 6.94955 123.85C7.47507 122.947 9.06474 122.604 11.0239 122.182C15.5169 121.213 21.9533 119.825 21.9533 110.295V28.4941C21.9533 16.2331 15.3653 16.2331 8.96028 16.2331H6.21528C5.01138 16.2331 3.88667 16.0747 3.258 15.2369Z" fill="#F3E1D8"/>
</svg>
