<svg width="103" height="128" viewBox="0 0 103 128" fill="none" xmlns="http://www.w3.org/2000/svg">
<path fill-rule="evenodd" clip-rule="evenodd" d="M3.01942 124.362C12.5173 110.766 22.8477 100.477 32.2185 91.143C49.2082 74.221 63.0434 60.4408 63.0434 35.7901C63.0434 19.3201 53.7104 7.6081 40.5344 7.6081C37.1404 7.6081 32.3189 8.32181 27.7088 11.0099C27.0991 11.3654 26.493 11.7555 25.8944 12.1831C26.4793 12.5655 27.0337 12.9949 27.5563 13.4645C31.2858 16.8154 33.3974 22.2134 33.3974 27.1891C33.3974 33.0451 29.5544 39.9991 21.5024 39.9991C13.8164 39.9991 10.1564 34.1431 10.1564 28.4701C10.1564 21.5161 18.3914 2.8501 48.5864 2.8501C80.0624 2.8501 91.0424 18.9541 91.0424 33.7771C91.0424 53.1602 70.1068 68.1476 50.1982 82.3997C39.567 90.0104 29.2286 97.4114 22.5275 105.16C22.2401 105.493 21.9593 105.826 21.6854 106.159C21.562 106.31 21.44 106.46 21.3194 106.611C21.5024 106.794 21.6854 106.977 21.6854 107.16H61.2134C85.3694 107.16 87.7484 103.5 95.4344 89.9581C95.5483 89.7759 95.6565 89.5965 95.7615 89.4225C96.3806 88.3962 96.8885 87.5543 97.7913 87.4029C97.9658 87.3736 98.1549 87.3702 98.3624 87.3961L99.8264 87.5791C99.6321 88.2268 99.4387 88.8745 99.2462 89.5222C97.119 96.679 95.0974 103.833 93.0855 110.952C91.6786 115.931 90.2765 120.892 88.8464 125.826H3.56842L3.01942 124.362ZM25.2097 105.16H61.2134C73.3168 105.16 79.4474 104.215 83.5098 101.9C87.5199 99.614 89.7861 95.8581 93.6951 88.9709L93.716 88.934L93.7384 88.8981C93.8077 88.7872 93.8854 88.6579 93.9703 88.5167C94.3001 87.9676 94.7376 87.2392 95.2095 86.7177C95.5539 86.337 96.0125 85.9407 96.6235 85.677C97.2533 85.4052 97.9255 85.3259 98.6105 85.4115L102.422 85.888L101.742 88.1538C99.4033 95.9496 97.2076 103.72 95.0185 111.467C93.6108 116.448 92.2059 121.42 90.7674 126.383L90.349 127.826H2.18242L0.777344 124.079L1.37985 123.217C10.9857 109.466 21.5226 98.97 30.9338 89.5952C34.7094 85.8343 38.3037 82.2539 41.5841 78.7162C53.0983 66.299 61.0434 54.1853 61.0434 35.7901C61.0434 19.9805 52.2087 9.6081 40.5344 9.6081C37.5396 9.6081 33.3724 10.2112 29.337 12.3894C33.2743 16.192 35.3974 21.9482 35.3974 27.1891C35.3974 30.5176 34.314 34.1727 32.034 37.036C29.7115 39.9526 26.1754 41.9991 21.5024 41.9991C17.1027 41.9991 13.7047 40.3004 11.4332 37.6688C9.1994 35.0809 8.15642 31.7136 8.15642 28.4701C8.15642 20.3142 17.3867 0.850098 48.5864 0.850098C64.6528 0.850098 75.7913 4.96241 82.9393 11.2536C90.1019 17.5577 93.0424 25.8635 93.0424 33.7771C93.0424 41.9709 89.5674 49.3165 84.2911 55.9961C79.0257 62.6618 71.865 68.7938 64.2564 74.5979C60.4441 77.5061 56.4932 80.3512 52.5868 83.1492C52.1784 83.4418 51.7706 83.7337 51.3634 84.0252C47.8682 86.5274 44.4246 88.9926 41.1314 91.4542C34.9647 96.0638 29.4324 100.584 25.2097 105.16Z" fill="#F3E1D8"/>
</svg>
