<svg width="95" height="130" viewBox="0 0 95 130" fill="none" xmlns="http://www.w3.org/2000/svg">
<path fill-rule="evenodd" clip-rule="evenodd" d="M26.1677 59.3442C48.4263 53.5902 58.6308 43.6419 58.6308 27.986C58.6308 13.895 50.0298 5.66001 39.2328 5.66001C35.7302 5.66001 32.3544 6.42037 29.4216 8.04657C28.8301 8.37454 28.2567 8.73773 27.7038 9.137C28.1687 9.62512 28.6011 10.1368 29.0017 10.6677C31.7556 14.3163 33.0108 18.8681 33.0108 22.862C33.0108 29.816 28.6188 36.587 20.3838 36.587C13.2468 36.587 9.22081 31.463 9.22081 25.424C9.22081 17.372 16.9068 2 46.1868 2C77.4798 2 86.8128 18.287 86.8128 29.45C86.8128 41.0369 77.0808 53.8216 54.5021 57.647C52.1187 58.0508 49.5922 58.3548 46.9188 58.547V59.279C46.9364 59.279 46.9539 59.279 46.9714 59.279C49.5423 59.2807 52.0784 59.4091 54.5582 59.6626C75.5336 61.8066 92.4858 72.9025 92.4858 92.036C92.4858 112.898 72.5388 127.172 45.4548 127.172C19.1028 127.172 2.63281 115.46 2.63281 99.722C2.63281 88.742 12.8808 81.239 24.9588 80.507L26.6058 82.52C24.7758 86.18 23.6778 93.317 23.6778 97.709C23.6778 111.434 29.3508 124.793 43.4418 124.793C59.3628 124.793 64.3038 108.872 64.3038 93.683C64.3038 71.906 50.9448 62.207 32.4618 62.207C30.7985 62.207 29.4036 62.2965 27.5891 62.4128C26.8083 62.4629 25.9498 62.5179 24.9588 62.573L24.2268 59.828C24.8837 59.6702 25.5306 59.5089 26.1677 59.3442ZM60.3019 58.4593C79.7276 53.4866 88.8128 41.3035 88.8128 29.45C88.8128 23.3245 86.2546 15.9019 79.5521 10.0341C72.8471 4.16412 62.1739 0 46.1868 0C31.1988 0 21.4473 3.93906 15.4121 9.18276C9.39686 14.4091 7.22081 20.8142 7.22081 25.424C7.22081 28.8824 8.37593 32.1815 10.6633 34.6342C12.9709 37.1086 16.3074 38.587 20.3838 38.587C25.106 38.587 28.8232 36.6218 31.3241 33.6099C33.7902 30.64 35.0108 26.738 35.0108 22.862C35.0108 18.557 33.6853 13.6349 30.7163 9.62076C33.2376 8.30077 36.1493 7.66001 39.2328 7.66001C44.1034 7.66001 48.4067 9.50696 51.506 12.8899C54.6113 16.2794 56.6308 21.35 56.6308 27.986C56.6308 35.5254 54.1323 41.5211 48.9217 46.352C43.6312 51.2569 35.4103 55.0836 23.7595 57.8834L21.7661 58.3624L23.4455 64.6602L25.0698 64.5699C26.1108 64.5121 26.9926 64.4555 27.7816 64.4049C29.5586 64.2908 30.8652 64.207 32.4618 64.207C41.3757 64.207 48.7945 66.5453 53.9671 71.2572C59.1076 75.9398 62.3038 83.2168 62.3038 93.683C62.3038 101.116 61.0862 108.51 58.0898 113.972C55.1619 119.308 50.5671 122.793 43.4418 122.793C37.1543 122.793 32.8213 119.869 29.9687 115.333C27.0555 110.701 25.6778 104.341 25.6778 97.709C25.6778 95.6534 25.9375 92.8916 26.4238 90.1949C26.9156 87.4677 27.6071 84.9895 28.3947 83.4144L28.9739 82.256L25.8589 78.4488L24.8378 78.5107C12.2055 79.2763 0.632812 87.2466 0.632812 99.722C0.632812 108.379 5.19232 115.821 13.0596 121.018C20.8873 126.188 32.0096 129.172 45.4548 129.172C59.3277 129.172 71.5277 125.518 80.3141 119.037C89.1357 112.529 94.4858 103.175 94.4858 92.036C94.4858 80.561 88.7548 71.7852 79.9314 65.9594C74.4002 62.3072 67.6553 59.8066 60.3019 58.4593Z" fill="#F3E1D8"/>
</svg>
