<svg width="104" height="126" viewBox="0 0 104 126" fill="none" xmlns="http://www.w3.org/2000/svg">
<path fill-rule="evenodd" clip-rule="evenodd" d="M84.7012 44.1753L83.6852 43.1592L82.284 44.309C75.4248 49.937 67.2977 53.6655 57.6475 55.9887L56.1156 56.3574V85.0301H12.0839C30.1388 70.8275 60.5919 41.8892 82.6228 10.7769L82.7049 10.661L87.7429 0.850098H51.5763L51.0222 1.95088C37.3389 29.1349 18.7191 60.5337 1.20016 86.082L0.84962 86.5933V88.4114L0 89.0301H0.84962V92.1411H56.1156V107.526C56.1156 111.096 55.191 113.215 54.0278 114.563C52.8361 115.945 51.1893 116.757 49.3059 117.322C48.367 117.604 47.4111 117.813 46.4548 118.009C46.3089 118.039 46.1613 118.069 46.0128 118.099C45.2248 118.259 44.4117 118.424 43.6971 118.617C42.871 118.84 41.9162 119.164 41.146 119.747C40.2655 120.414 39.6456 121.412 39.6456 122.715V125.447H103.121V122.715C103.121 121.394 102.459 120.411 101.585 119.772C100.818 119.212 99.8668 118.894 99.0385 118.671C98.3326 118.481 97.5288 118.315 96.7447 118.153C96.5822 118.119 96.4207 118.086 96.261 118.052C95.295 117.85 94.3255 117.634 93.3727 117.346C91.4581 116.768 89.7804 115.945 88.5695 114.572C87.3935 113.239 86.4676 111.169 86.4676 107.709V92.1411H103.121V85.0301H86.4676V44.985L85.362 44.4322C85.1521 44.3273 84.9596 44.2573 84.81 44.209C84.7715 44.1966 84.7349 44.1854 84.7012 44.1753ZM2.84962 90.1411H58.1156V107.526C58.1156 117.681 51.2589 119.074 46.3937 120.062C44.5669 120.434 43.0209 120.748 42.2241 121.447C41.8541 121.772 41.6456 122.18 41.6456 122.715V123.447H101.121V122.715C101.121 122.177 100.89 121.77 100.484 121.447C99.67 120.8 98.151 120.486 96.3608 120.116C91.4392 119.097 84.4676 117.655 84.4676 107.709V90.1411H101.121V87.0301H84.4676V46.2211C84.3072 46.1409 84.1467 46.0958 84.0016 46.0551C83.8158 46.0029 83.6554 45.9579 83.5526 45.8551C83.4029 45.978 83.2525 46.1 83.1016 46.2211C82.8914 46.3898 82.6801 46.5569 82.4676 46.7222C75.5664 52.0934 67.5013 55.6736 58.1156 57.9331V87.0301H6.14362C6.99343 86.4112 7.88707 85.7439 8.82102 85.0301C26.3902 71.6035 58.2277 41.7673 80.9906 9.6211L84.4676 2.8501H52.8086C39.1755 29.9346 20.6673 61.1719 3.20259 86.6978C3.08489 86.8698 2.96723 87.0416 2.84962 87.2131V90.1411Z" fill="#F3E1D8"/>
</svg>
