<svg width="95" height="138" viewBox="0 0 95 138" fill="none" xmlns="http://www.w3.org/2000/svg">
<path fill-rule="evenodd" clip-rule="evenodd" d="M20.3891 13.0134H59.8272C70.5932 13.0134 76.091 12.4402 79.4373 11.0408C82.4967 9.76141 83.8673 7.74984 86.0286 3.7029C86.3978 2.87856 86.8709 1.94497 87.5429 1.2376C88.3329 0.406007 89.4525 -0.159781 90.8541 0.0404485L94.3578 0.540973L93.7864 2.71233C92.4251 7.88542 91.1522 13.5665 89.8694 19.2935L89.8647 19.3146C88.5871 25.0182 87.2993 30.7669 85.9174 36.0183L85.4756 37.697L83.7515 37.4959C72.8675 36.2261 61.0528 35.6794 48.6642 35.6794H24.0532L19.901 65.5132C29.5958 60.6537 40.7458 58.5803 49.9452 58.5803C62.2363 58.5803 73.1077 62.3163 80.9393 69.036C88.7963 75.7775 93.4862 85.4374 93.4862 96.9974C93.4862 107.97 89.1917 118.226 80.7093 125.718C72.2379 133.2 59.7442 137.793 43.5402 137.793C30.8239 137.793 20.1194 134.945 12.5264 129.988C4.89879 125.008 0.365234 117.844 0.365234 109.441C0.365234 96.747 11.2123 87.7009 24.8171 87.3122L25.8134 87.2837L28.6825 90.8702L28.144 92.0012C27.339 93.6915 26.6457 96.1927 26.1557 98.8878C25.6696 101.562 25.4102 104.276 25.4102 106.33C25.4102 114.023 26.7615 120.347 29.5724 124.687C32.2975 128.895 36.4998 131.414 42.8082 131.414C46.6776 131.414 49.7083 130.372 52.1163 128.657C54.5444 126.928 56.4484 124.437 57.9091 121.387C60.8526 115.243 61.8532 107.131 61.8532 99.5594C61.8532 89.0343 58.9396 81.526 54.347 76.662C49.7627 71.8069 43.2846 69.3514 35.6712 69.3514C30.1519 69.3514 24.0513 70.7309 17.7167 73.8982L16.9133 74.2999L16.0795 73.9663C15.3183 73.6618 14.7151 73.5079 13.868 73.3385L12.0187 72.9687L20.3891 13.0134ZM19.5633 67.9398C18.8216 68.3362 18.0904 68.7499 17.3712 69.1814L22.3122 33.6794H48.6642C61.1082 33.6794 73.0032 34.2283 83.9832 35.5094C85.3557 30.2938 86.6367 24.575 87.9178 18.8563C89.041 13.8417 90.1643 8.82709 91.3493 4.1518C91.5156 3.49531 91.6833 2.84551 91.8522 2.20335L90.5712 2.02035C90.2972 1.98121 90.0483 2.00067 89.8192 2.07159C88.9771 2.3322 88.4017 3.28764 87.8262 4.58235C83.4342 12.8174 81.2382 15.0134 59.8272 15.0134H22.1292L14.2602 71.3774C14.5272 71.4307 14.7785 71.4841 15.0234 71.5421C15.5339 71.6628 16.0163 71.8034 16.5528 72.0048C16.641 72.038 16.7307 72.0727 16.8222 72.1094C23.4102 68.8154 29.8152 67.3514 35.6712 67.3514C51.7752 67.3514 63.8532 77.7824 63.8532 99.5594C63.8532 114.931 59.8272 133.414 42.8082 133.414C28.9002 133.414 23.4102 122.068 23.4102 106.33C23.4102 101.938 24.5082 94.9844 26.3382 91.1414L24.8742 89.3114C12.0642 89.6774 2.36523 98.0954 2.36523 109.441C2.36523 124.63 18.6522 135.793 43.5402 135.793C75.1992 135.793 91.4862 117.859 91.4862 96.9974C91.4862 75.0374 73.7352 60.5803 49.9452 60.5803C40.5994 60.5803 29.2023 62.7893 19.5633 67.9398Z" fill="#F3E1D8"/>
</svg>
