<svg width="97" height="130" viewBox="0 0 97 130" fill="none" xmlns="http://www.w3.org/2000/svg">
<path fill-rule="evenodd" clip-rule="evenodd" d="M38.7568 52.5315L39.9757 52.0144C46.3483 49.3109 52.1308 48.7446 57.5928 48.7446C68.2726 48.7446 77.9375 52.229 84.9493 58.8269C91.9788 65.4415 96.1928 75.0467 96.1928 86.9786C96.1928 98.2859 91.9229 109.022 83.6572 116.926C75.3852 124.837 63.2439 129.788 47.7108 129.788C30.8236 129.788 18.92 124.66 11.2672 116.105C3.65078 107.591 0.509766 95.9776 0.509766 83.5016C0.509766 43.9607 35.7819 12.3316 78.6549 0.504602L80.4841 0L82.4119 5.78348L80.6633 6.48484C64.3653 13.022 52.2266 23.055 44.146 35.9972C36.057 48.9529 31.9598 64.9455 31.9598 83.5016C31.9598 96.1186 32.8407 106.265 35.5095 113.208C36.8307 116.645 38.5428 119.167 40.684 120.834C42.7986 122.479 45.4835 123.409 48.9918 123.409C52.0857 123.409 54.5392 122.422 56.5415 120.703C58.5818 118.951 60.2423 116.358 61.5403 113.037C64.1478 106.366 65.1088 97.2418 65.1088 87.7106C65.1088 80.7937 63.6815 73.3077 59.9871 67.6174C56.369 62.0448 50.4983 58.0516 41.1228 58.0516H39.4832L39.1616 56.4438C39.1333 56.3021 39.0983 56.1474 39.0609 55.9818C38.925 55.3806 38.7568 54.6365 38.7568 53.8556V52.5315ZM40.7568 53.8556C46.7958 51.2936 52.2858 50.7446 57.5928 50.7446C78.0888 50.7446 94.1928 64.1036 94.1928 86.9786C94.1928 108.573 77.9058 127.788 47.7108 127.788C14.7708 127.788 2.50977 107.841 2.50977 83.5016C2.50977 45.2546 36.7308 14.1446 79.1868 2.43259L79.9188 4.62859C46.6128 17.9876 29.9598 45.8036 29.9598 83.5016C29.9598 108.756 33.4368 125.409 48.9918 125.409C63.2658 125.409 67.1088 106.926 67.1088 87.7106C67.1088 73.4366 61.2528 56.0516 41.1228 56.0516C41.0737 55.8064 41.0247 55.5875 40.9792 55.3844C40.8548 54.8293 40.7568 54.3915 40.7568 53.8556Z" fill="#F3E1D8"/>
</svg>
