<svg width="21" height="35" viewBox="0 0 21 35" fill="none" xmlns="http://www.w3.org/2000/svg">
<path d="M0.498671 34.3886L19.5819 18.4031C20.2728 17.8228 20.2728 16.635 19.5819 16.0592L0.498672 0.0691926C0.451738 0.0298425 0.396286 0.00626981 0.338461 0.00108683C0.280636 -0.00409614 0.222698 0.00931328 0.171068 0.0398289C0.11944 0.0703445 0.0761375 0.116774 0.0459595 0.173971C0.0157814 0.231168 -9.34731e-05 0.296899 9.72589e-05 0.363877L9.71102e-05 3.76408C9.71001e-05 3.99529 0.0982416 4.2129 0.259199 4.34891L15.6326 17.2289L0.259198 30.1088C0.0982405 30.2448 9.59432e-05 30.4625 9.59331e-05 30.6937L9.57845e-05 34.0939C9.57716e-05 34.3886 0.290604 34.5608 0.498671 34.3886Z" fill="#8B5347"/>
</svg>
