<svg width="21" height="35" viewBox="0 0 21 35" fill="none" xmlns="http://www.w3.org/2000/svg">
<path d="M19.6014 0.0684726L0.518206 16.054C-0.172732 16.6343 -0.172732 17.8221 0.518205 18.3978L19.6014 34.3878C19.6484 34.4272 19.7038 34.4508 19.7616 34.4559C19.8195 34.4611 19.8774 34.4477 19.929 34.4172C19.9807 34.3867 20.024 34.3403 20.0541 34.2831C20.0843 34.2259 20.1002 34.1601 20.1 34.0932L20.1 30.693C20.1 30.4617 20.0019 30.2441 19.8409 30.1081L4.46754 17.2282L19.8409 4.34819C20.0019 4.21219 20.1 3.99457 20.1 3.76336L20.1 0.363158C20.1 0.0684765 19.8095 -0.103803 19.6014 0.0684726Z" fill="white"/>
</svg>
