<svg width="21" height="35" viewBox="0 0 21 35" fill="none" xmlns="http://www.w3.org/2000/svg">
<path d="M0.500136 34.3886L19.5834 18.4031C20.2743 17.8228 20.2743 16.635 19.5834 16.0592L0.500137 0.0691926C0.453203 0.0298425 0.397751 0.00626981 0.339926 0.00108683C0.282101 -0.00409614 0.224163 0.00931328 0.172533 0.0398289C0.120905 0.0703445 0.0776024 0.116774 0.0474243 0.173971C0.0172462 0.231168 0.00137137 0.296899 0.0015621 0.363877L0.00156195 3.76408C0.00156194 3.99529 0.0997065 4.2129 0.260664 4.34891L15.634 17.2289L0.260663 30.1088C0.0997053 30.2448 0.00156079 30.4625 0.00156078 30.6937L0.00156063 34.0939C0.00156062 34.3886 0.292069 34.5608 0.500136 34.3886Z" fill="white"/>
</svg>
