<?xml version="1.0" encoding="utf-8"?>
<!-- Generator: Adobe Illustrator 24.0.2, SVG Export Plug-In . SVG Version: 6.00 Build 0)  -->
<svg version="1.1" id="Layer_1" xmlns="http://www.w3.org/2000/svg" xmlns:xlink="http://www.w3.org/1999/xlink" x="0px" y="0px"
	 viewBox="0 0 111.2 103.2" style="enable-background:new 0 0 111.2 103.2;" xml:space="preserve">
<style type="text/css">
	.st0{fill:url(#SVGID_1_);}
	.st1{fill:url(#SVGID_2_);}
	.st2{fill:url(#SVGID_3_);}
	.st3{fill:url(#SVGID_4_);}
	.st4{fill:url(#SVGID_5_);}
	.st5{fill:url(#SVGID_6_);}
	.st6{fill:url(#SVGID_7_);}
	.st7{fill:url(#SVGID_8_);}
	.st8{opacity:0.75;fill:url(#SVGID_9_);}
	.st9{opacity:0.32;fill:url(#SVGID_10_);}
	.st10{fill:url(#SVGID_11_);}
	.st11{fill:#D26D02;}
	.st12{fill:url(#SVGID_12_);}
	.st13{fill:url(#SVGID_13_);}
	.st14{fill:url(#SVGID_14_);}
	.st15{opacity:0.75;fill:url(#SVGID_15_);}
	.st16{opacity:0.32;fill:url(#SVGID_16_);}
	.st17{fill:url(#SVGID_17_);}
	.st18{fill:url(#SVGID_18_);}
	.st19{fill:url(#SVGID_19_);}
	.st20{fill:url(#SVGID_20_);}
	.st21{opacity:0.75;fill:url(#SVGID_21_);}
	.st22{opacity:0.32;fill:url(#SVGID_22_);}
	.st23{fill:url(#SVGID_23_);}
	.st24{fill:url(#SVGID_24_);}
	.st25{fill:url(#SVGID_25_);}
	.st26{fill:url(#SVGID_26_);}
	.st27{opacity:0.75;fill:url(#SVGID_27_);}
	.st28{opacity:0.32;fill:url(#SVGID_28_);}
	.st29{fill:url(#SVGID_29_);}
	.st30{fill:url(#SVGID_30_);}
	.st31{fill:url(#SVGID_31_);}
</style>
<g>
	<linearGradient id="SVGID_1_" gradientUnits="userSpaceOnUse" x1="91.7866" y1="35.8541" x2="-14.9274" y2="268.2033">
		<stop  offset="0" style="stop-color:#F9C359"/>
		<stop  offset="1" style="stop-color:#28B4AC"/>
	</linearGradient>
	<path class="st0" d="M78.8,58.3c1.4-0.4,3-0.6,4.5-0.4c0.7,1.2,0.7,2.8,0.2,4.1c-0.5,1.3-1.4,2.5-2.3,3.6c-1.3,1.6-2.9,3.1-4.8,3.7
		c0.8-0.4,0.9-1.4,0.9-2.2c0-2.2,0-4.4-0.1-6.6c0-0.4,0-0.8,0.2-1.1C77.5,58.8,78.2,58.5,78.8,58.3z"/>
	<linearGradient id="SVGID_2_" gradientUnits="userSpaceOnUse" x1="69.3721" y1="25.5595" x2="-37.3417" y2="257.9084">
		<stop  offset="0" style="stop-color:#F9C359"/>
		<stop  offset="1" style="stop-color:#28B4AC"/>
	</linearGradient>
	<path class="st1" d="M58.4,40.2c-0.3-0.7-0.5-1.3-0.5-2c0-1.7,1.4-2.9,2.8-4c1.4-1.1,3-2.2,4.7-2.2c1,1.7,0.8,3.7,0.6,5.7
		c-0.4,3.9-1,7.8-1.7,11.7c-2.4-0.8-3.6-3.3-4.5-5.7C59.4,42.6,58.9,41.4,58.4,40.2z"/>
	<linearGradient id="SVGID_3_" gradientUnits="userSpaceOnUse" x1="54.1426" y1="18.5646" x2="-52.5718" y2="250.9147">
		<stop  offset="0" style="stop-color:#F9C359"/>
		<stop  offset="1" style="stop-color:#28B4AC"/>
	</linearGradient>
	<path class="st2" d="M35.9,46.5c-0.5-1.1-0.3-2.5,0.3-3.6c0.6-1.1,1.5-2,2.5-2.7c0.4-0.3,0.9-0.6,1.4-0.5c0.6,0.1,1,0.7,1.3,1.3
		c1.9,3.3,3.8,6.7,4.5,10.4c-2.3-0.4-4.5-1.1-6.6-2C37.9,48.7,36.5,47.9,35.9,46.5z"/>
	<linearGradient id="SVGID_4_" gradientUnits="userSpaceOnUse" x1="64.574" y1="23.355" x2="-42.1412" y2="255.7069">
		<stop  offset="0" style="stop-color:#F9C359"/>
		<stop  offset="1" style="stop-color:#28B4AC"/>
	</linearGradient>
	<path class="st3" d="M30.7,82.9c0,0.8,0.1,1.6,0.5,2.2c0.5,0.6,1.3,0.9,2.1,1.1c3.4,0.7,7,0.2,10.2-1.2c0.3-0.1,0.6-0.3,0.7-0.5
		c0.3-0.4,0.1-1-0.3-1.4c-0.4-0.4-0.9-0.5-1.3-0.7c-2.8-1-5.5-2.4-8-4c-0.6-0.4-1.3-0.9-2.1-0.7c-0.7,0.1-1.2,0.8-1.5,1.4
		C30.7,80.2,30.7,81.6,30.7,82.9z"/>
	<linearGradient id="SVGID_5_" gradientUnits="userSpaceOnUse" x1="48.9343" y1="12.4422" x2="-61.4992" y2="252.89">
		<stop  offset="0" style="stop-color:#F9C359"/>
		<stop  offset="1" style="stop-color:#28B4AC"/>
	</linearGradient>
	<path class="st4" d="M2.9,101.9c0.8,0.8,2.2,0.9,3.4,0.8c3.9-0.5,7.4-2.6,10.8-4.7c1.1-0.7,2.3-1.7,1.7-3c-1.3-0.5-2-0.8-3.3-1.3
		c-2.8,1-5.8-1-8.9-0.8c-1.3,0.1-2.6,0.5-3.4,1.6c-0.8,1.1-1,2.5-1,3.9C2,99.5,2,101,2.9,101.9z"/>
	<linearGradient id="SVGID_6_" gradientUnits="userSpaceOnUse" x1="53.4439" y1="18.2437" x2="-53.2705" y2="250.5937">
		<stop  offset="0" style="stop-color:#F9C359"/>
		<stop  offset="1" style="stop-color:#28B4AC"/>
	</linearGradient>
	<path class="st5" d="M57.1,0.2c-1.1,0.4-1.7,1.6-2,2.8c-1.1,3.8-0.5,7.8,0.1,11.7c0.2,1.1,0.5,2.4,1.5,2.7c1.8-2.3,3.5-4.7,5.3-7
		c0.8-1,1.6-2.1,2-3.3c0.5-1.2,0.5-2.6-0.1-3.8c-0.7-1.2-1.9-1.9-3.1-2.5C59.6,0.3,58.3-0.3,57.1,0.2z"/>
	<linearGradient id="SVGID_7_" gradientUnits="userSpaceOnUse" x1="66.5403" y1="24.2592" x2="-40.1731" y2="256.6072">
		<stop  offset="0" style="stop-color:#F9C359"/>
		<stop  offset="1" style="stop-color:#28B4AC"/>
	</linearGradient>
	<path class="st6" d="M27.7,102.9c0.8,0.6,2,0.1,2.9-0.4c2.8-1.7,5.5-3.3,7.9-5.5c0.6-0.6,1.2-1.3,1.1-2.1c-0.1-0.8-1-1.4-1.8-1.5
		c-0.8-0.1-1.7,0.1-2.5,0.2c-2.3,0.3-4.9,0-6.5,1.5c-1.5,1.3-1.6,3.6-1.7,5.6C27,101.4,27.1,102.4,27.7,102.9z"/>
</g>
<g>
	<g>
		
			<linearGradient id="SVGID_8_" gradientUnits="userSpaceOnUse" x1="25.9741" y1="132.6742" x2="75.3805" y2="132.6742" gradientTransform="matrix(0.4738 -0.1598 0.1598 0.4738 10.3873 12.4235)">
			<stop  offset="0" style="stop-color:#FFF84A"/>
			<stop  offset="1" style="stop-color:#FFEC38"/>
		</linearGradient>
		<path class="st7" d="M67.3,63.2c2.2,6.5-1.3,13.5-7.8,15.7c-6.5,2.2-13.5-1.3-15.7-7.8c-2.2-6.5,1.3-13.5,7.8-15.7
			C58.1,53.3,65.1,56.8,67.3,63.2z"/>
		
			<linearGradient id="SVGID_9_" gradientUnits="userSpaceOnUse" x1="11.4131" y1="95.2863" x2="-3.6699" y2="107.4669" gradientTransform="matrix(0.9475 -0.3196 0.3196 0.9475 19.5232 -27.6181)">
			<stop  offset="0.4846" style="stop-color:#CC9434"/>
			<stop  offset="0.6795" style="stop-color:#FFEA72"/>
			<stop  offset="0.7638" style="stop-color:#FFE76C"/>
			<stop  offset="0.8718" style="stop-color:#FFDE5C"/>
			<stop  offset="0.9603" style="stop-color:#FFD44A"/>
		</linearGradient>
		<path class="st8" d="M64.8,64.1c1.7,5.1-1,10.6-6.1,12.4c-5.1,1.7-10.6-1-12.4-6.1c-1.7-5.1,1-10.6,6.1-12.4
			C57.6,56.2,63.1,59,64.8,64.1z"/>
		
			<linearGradient id="SVGID_10_" gradientUnits="userSpaceOnUse" x1="-0.5739" y1="92.4164" x2="8.3176" y2="110.2721" gradientTransform="matrix(0.9475 -0.3196 0.3196 0.9475 19.5232 -27.6181)">
			<stop  offset="0.4846" style="stop-color:#CC9434"/>
			<stop  offset="0.6795" style="stop-color:#FFEA72"/>
			<stop  offset="0.7638" style="stop-color:#FFE76C"/>
			<stop  offset="0.8718" style="stop-color:#FFDE5C"/>
			<stop  offset="0.9603" style="stop-color:#FFD44A"/>
		</linearGradient>
		<path class="st9" d="M64.8,64.1c1.7,5.1-1,10.6-6.1,12.4c-5.1,1.7-10.6-1-12.4-6.1c-1.7-5.1,1-10.6,6.1-12.4
			C57.6,56.2,63.1,59,64.8,64.1z"/>
		
			<linearGradient id="SVGID_11_" gradientUnits="userSpaceOnUse" x1="9.8544" y1="94.7941" x2="-2.8916" y2="108.8249" gradientTransform="matrix(0.9475 -0.3196 0.3196 0.9475 19.5232 -27.6181)">
			<stop  offset="0" style="stop-color:#FFE94A"/>
			<stop  offset="0.3381" style="stop-color:#FCDA34"/>
			<stop  offset="1" style="stop-color:#F5B400"/>
		</linearGradient>
		<path class="st10" d="M64.5,64.2c1.7,4.9-1,10.3-5.9,12c-4.9,1.7-10.3-1-12-5.9c-1.7-4.9,1-10.3,5.9-12
			C57.5,56.6,62.9,59.2,64.5,64.2z"/>
		<path class="st11" d="M52.6,58.2c-4.9,1.7-7.6,7-5.9,12c1.7,4.9,7,7.6,12,5.9c4.9-1.7,7.6-7,5.9-12C62.9,59.2,57.5,56.6,52.6,58.2
			z M58.6,75.9c-4.8,1.6-10.1-1-11.7-5.8c-1.6-4.8,1-10.1,5.8-11.7c4.8-1.6,10.1,1,11.7,5.8C66,69.1,63.4,74.3,58.6,75.9z"/>
		<g>
			
				<linearGradient id="SVGID_12_" gradientUnits="userSpaceOnUse" x1="9.5911" y1="94.8397" x2="-1.2533" y2="105.8897" gradientTransform="matrix(0.9475 -0.3196 0.3196 0.9475 19.5232 -27.6181)">
				<stop  offset="0" style="stop-color:#FFDB56"/>
				<stop  offset="9.118795e-03" style="stop-color:#FFDA55"/>
				<stop  offset="0.6822" style="stop-color:#F39A2F"/>
				<stop  offset="1" style="stop-color:#EE8120"/>
			</linearGradient>
			<path class="st12" d="M58.4,66.1L58.4,66.1c0.7-0.5,1.1-1.3,0.7-2.6c-0.4-1.3-1.8-1.8-3-1.4l0,0l-0.4-1.2l-2,0.7l0.4,1.2
				l-0.8,0.3l-0.4-1.2l-2,0.7l0.4,1.2l-0.4,0.1L50.5,64l-0.9,0.3l0.7,2l0.9-0.3l1.6,4.7l-0.9,0.3l0.7,2l0.9-0.3l0.3-0.1l0.4-0.1
				l0.4,1.2l2-0.7l-0.4-1.2l0.8-0.3l0.4,1.2l2-0.7l-0.4-1.2l0.1,0c1.3-0.5,2.1-1.7,1.6-3.2C60.3,66.3,59.4,66,58.4,66.1z M55.7,64.5
				c0.3-0.1,0.7,0.1,0.8,0.4l0,0.1c0.1,0.3,0,0.7-0.3,0.8l-1.7,0.6L54,65.1L55.7,64.5z M55.6,69.7l-0.5-1.4l1.8-0.6
				c0.3-0.1,0.7,0.1,0.8,0.4l0,0.1c0.1,0.4,0,0.7-0.3,0.8L55.6,69.7z"/>
			
				<linearGradient id="SVGID_13_" gradientUnits="userSpaceOnUse" x1="6.5512" y1="96.8186" x2="-9.593081e-02" y2="106.1726" gradientTransform="matrix(0.9475 -0.3196 0.3196 0.9475 19.5232 -27.6181)">
				<stop  offset="0" style="stop-color:#FFF84A"/>
				<stop  offset="1" style="stop-color:#FFEC38"/>
			</linearGradient>
			<path class="st13" d="M58.3,66.1L58.3,66.1c0.6-0.5,1.1-1.2,0.7-2.5c-0.4-1.2-1.7-1.7-2.9-1.3l0,0l-0.4-1.1l-1.9,0.7l0.4,1.1
				l-0.8,0.3l-0.4-1.1L51,62.7l0.4,1.1L51,64l-0.3,0.1l-0.8,0.3l0.7,1.9l0.8-0.3l1.5,4.6l-0.8,0.3l0.7,1.9l0.8-0.3l0.3-0.1l0.4-0.1
				l0.4,1.1l1.9-0.7l-0.4-1.1l0.8-0.3l0.4,1.1l1.9-0.7l-0.4-1.1l0.1,0c1.3-0.4,2-1.7,1.6-3C60.1,66.4,59.2,66,58.3,66.1z M55.7,64.5
				c0.3-0.1,0.7,0.1,0.8,0.5l0,0.1c0.1,0.4,0,0.8-0.4,0.9l-1.8,0.6l-0.5-1.4L55.7,64.5z M55.5,69.7L55,68.3l2-0.7
				c0.3-0.1,0.7,0.1,0.8,0.5l0,0.1c0.1,0.4,0,0.8-0.4,0.9L55.5,69.7z"/>
		</g>
	</g>
	<g>
		<g>
			
				<linearGradient id="SVGID_14_" gradientUnits="userSpaceOnUse" x1="287.1572" y1="-57.4046" x2="321.2775" y2="-57.4046" gradientTransform="matrix(0.4859 0.1177 -0.1177 0.4859 -51.9467 35.5238)">
				<stop  offset="0" style="stop-color:#FFF84A"/>
				<stop  offset="1" style="stop-color:#FFEC38"/>
			</linearGradient>
			<path class="st14" d="M110.9,45.4c-1.1,4.6-5.7,7.4-10.3,6.3c-4.6-1.1-7.4-5.7-6.3-10.3c1.1-4.6,5.7-7.4,10.3-6.3
				C109.2,36.3,112,40.9,110.9,45.4z"/>
			
				<linearGradient id="SVGID_15_" gradientUnits="userSpaceOnUse" x1="135.1494" y1="0.4162" x2="124.7352" y2="8.8264" gradientTransform="matrix(0.9719 0.2355 -0.2355 0.9719 -22.583 8.3489)">
				<stop  offset="0.4846" style="stop-color:#CC9434"/>
				<stop  offset="0.6795" style="stop-color:#FFEA72"/>
				<stop  offset="0.7638" style="stop-color:#FFE76C"/>
				<stop  offset="0.8718" style="stop-color:#FFDE5C"/>
				<stop  offset="0.9603" style="stop-color:#FFD44A"/>
			</linearGradient>
			<path class="st15" d="M109.2,45c-0.9,3.6-4.5,5.8-8.1,5c-3.6-0.9-5.8-4.5-5-8.1c0.9-3.6,4.5-5.8,8.1-5
				C107.8,37.8,110.1,41.4,109.2,45z"/>
			
				<linearGradient id="SVGID_16_" gradientUnits="userSpaceOnUse" x1="126.873" y1="-1.5654" x2="133.0121" y2="10.7633" gradientTransform="matrix(0.9719 0.2355 -0.2355 0.9719 -22.583 8.3489)">
				<stop  offset="0.4846" style="stop-color:#CC9434"/>
				<stop  offset="0.6795" style="stop-color:#FFEA72"/>
				<stop  offset="0.7638" style="stop-color:#FFE76C"/>
				<stop  offset="0.8718" style="stop-color:#FFDE5C"/>
				<stop  offset="0.9603" style="stop-color:#FFD44A"/>
			</linearGradient>
			<path class="st16" d="M109.2,45c-0.9,3.6-4.5,5.8-8.1,5c-3.6-0.9-5.8-4.5-5-8.1c0.9-3.6,4.5-5.8,8.1-5
				C107.8,37.8,110.1,41.4,109.2,45z"/>
			
				<linearGradient id="SVGID_17_" gradientUnits="userSpaceOnUse" x1="134.0733" y1="7.629859e-02" x2="125.2727" y2="9.7641" gradientTransform="matrix(0.9719 0.2355 -0.2355 0.9719 -22.583 8.3489)">
				<stop  offset="0" style="stop-color:#FFE94A"/>
				<stop  offset="0.3381" style="stop-color:#FCDA34"/>
				<stop  offset="1" style="stop-color:#F5B400"/>
			</linearGradient>
			<path class="st17" d="M109,45c-0.8,3.5-4.4,5.6-7.9,4.8c-3.5-0.8-5.6-4.4-4.8-7.9c0.8-3.5,4.4-5.6,7.9-4.8
				C107.7,38,109.8,41.5,109,45z"/>
			<path class="st11" d="M104.2,37.1c-3.5-0.8-7,1.3-7.9,4.8c-0.8,3.5,1.3,7,4.8,7.9c3.5,0.8,7-1.3,7.9-4.8
				C109.8,41.5,107.7,38,104.2,37.1z M101.1,49.6c-3.4-0.8-5.5-4.3-4.7-7.7c0.8-3.4,4.3-5.5,7.7-4.7c3.4,0.8,5.5,4.3,4.7,7.7
				C108,48.4,104.6,50.5,101.1,49.6z"/>
			<g>
				
					<linearGradient id="SVGID_18_" gradientUnits="userSpaceOnUse" x1="133.8916" y1="0.1079" x2="126.4039" y2="7.7375" gradientTransform="matrix(0.9719 0.2355 -0.2355 0.9719 -22.583 8.3489)">
					<stop  offset="0" style="stop-color:#FFDB56"/>
					<stop  offset="9.118795e-03" style="stop-color:#FFDA55"/>
					<stop  offset="0.6822" style="stop-color:#F39A2F"/>
					<stop  offset="1" style="stop-color:#EE8120"/>
				</linearGradient>
				<path class="st18" d="M104.7,43.8L104.7,43.8c0.6-0.1,1.1-0.3,1.3-1.2c0.2-0.9-0.4-1.7-1.3-1.9l0,0l0.2-0.8l-1.4-0.3l-0.2,0.8
					l-0.6-0.1l0.2-0.8l-1.4-0.3l-0.2,0.8l-0.3-0.1l-0.2-0.1l-0.6-0.2L99.9,41l0.6,0.2l-0.8,3.4l-0.6-0.2l-0.3,1.4l0.6,0.2l0.2,0.1
					l0.3,0.1l-0.2,0.8l1.4,0.3l0.2-0.8l0.6,0.1l-0.2,0.8l1.4,0.3l0.2-0.8l0,0c1,0.2,1.9-0.2,2.1-1.2
					C105.7,44.7,105.3,44.1,104.7,43.8z M103.7,41.9c0.2,0.1,0.3,0.3,0.3,0.5l0,0.1c-0.1,0.2-0.3,0.4-0.5,0.3l-1.2-0.3l0.2-1
					L103.7,41.9z M101.7,44.9l0.2-1l1.3,0.3c0.2,0.1,0.3,0.3,0.3,0.5l0,0.1c-0.1,0.3-0.3,0.4-0.5,0.3L101.7,44.9z"/>
				
					<linearGradient id="SVGID_19_" gradientUnits="userSpaceOnUse" x1="131.7925" y1="1.4743" x2="127.203" y2="7.9327" gradientTransform="matrix(0.9719 0.2355 -0.2355 0.9719 -22.583 8.3489)">
					<stop  offset="0" style="stop-color:#FFF84A"/>
					<stop  offset="1" style="stop-color:#FFEC38"/>
				</linearGradient>
				<path class="st19" d="M104.6,43.8L104.6,43.8c0.6-0.1,1.1-0.3,1.3-1.2c0.2-0.9-0.4-1.6-1.2-1.9l0,0l0.2-0.8l-1.4-0.3l-0.2,0.8
					l-0.6-0.1l0.2-0.8l-1.4-0.3l-0.2,0.8l-0.3-0.1l-0.2-0.1l-0.6-0.1l-0.3,1.4l0.6,0.1l-0.8,3.2l-0.6-0.1l-0.3,1.4l0.6,0.1l0.2,0.1
					l0.3,0.1l-0.2,0.8l1.4,0.3l0.2-0.8l0.6,0.1l-0.2,0.8l1.4,0.3l0.2-0.8l0,0c0.9,0.2,1.8-0.2,2-1.2
					C105.6,44.6,105.2,44.1,104.6,43.8z M103.7,41.9c0.2,0.1,0.4,0.3,0.3,0.6l0,0.1c-0.1,0.3-0.3,0.4-0.5,0.4l-1.3-0.3l0.2-1
					L103.7,41.9z M101.6,44.9l0.2-1l1.4,0.3c0.2,0.1,0.4,0.3,0.3,0.6l0,0.1c-0.1,0.3-0.3,0.4-0.5,0.4L101.6,44.9z"/>
			</g>
		</g>
		<g>
			
				<linearGradient id="SVGID_20_" gradientUnits="userSpaceOnUse" x1="11.8289" y1="67.4054" x2="45.9444" y2="67.4054" gradientTransform="matrix(0.487 -0.1134 0.1134 0.487 3.2331 4.0853)">
				<stop  offset="0" style="stop-color:#FFF84A"/>
				<stop  offset="1" style="stop-color:#FFEC38"/>
			</linearGradient>
			<path class="st20" d="M33.3,31.7c1.1,4.6-1.8,9.2-6.4,10.2c-4.6,1.1-9.2-1.8-10.2-6.4c-1.1-4.6,1.8-9.2,6.4-10.2
				C27.6,24.3,32.2,27.1,33.3,31.7z"/>
			
				<linearGradient id="SVGID_21_" gradientUnits="userSpaceOnUse" x1="-2.609" y1="64.9015" x2="-13.0237" y2="73.3121" gradientTransform="matrix(0.9739 -0.2269 0.2269 0.9739 16.8703 -35.4324)">
				<stop  offset="0.4846" style="stop-color:#CC9434"/>
				<stop  offset="0.6795" style="stop-color:#FFEA72"/>
				<stop  offset="0.7638" style="stop-color:#FFE76C"/>
				<stop  offset="0.8718" style="stop-color:#FFDE5C"/>
				<stop  offset="0.9603" style="stop-color:#FFD44A"/>
			</linearGradient>
			<path class="st21" d="M31.5,32.1c0.8,3.6-1.4,7.2-5,8.1c-3.6,0.8-7.2-1.4-8.1-5c-0.8-3.6,1.4-7.2,5-8.1
				C27,26.2,30.7,28.5,31.5,32.1z"/>
			
				<linearGradient id="SVGID_22_" gradientUnits="userSpaceOnUse" x1="-10.8859" y1="62.9199" x2="-4.7465" y2="75.249" gradientTransform="matrix(0.9739 -0.2269 0.2269 0.9739 16.8703 -35.4324)">
				<stop  offset="0.4846" style="stop-color:#CC9434"/>
				<stop  offset="0.6795" style="stop-color:#FFEA72"/>
				<stop  offset="0.7638" style="stop-color:#FFE76C"/>
				<stop  offset="0.8718" style="stop-color:#FFDE5C"/>
				<stop  offset="0.9603" style="stop-color:#FFD44A"/>
			</linearGradient>
			<path class="st22" d="M31.5,32.1c0.8,3.6-1.4,7.2-5,8.1c-3.6,0.8-7.2-1.4-8.1-5c-0.8-3.6,1.4-7.2,5-8.1
				C27,26.2,30.7,28.5,31.5,32.1z"/>
			
				<linearGradient id="SVGID_23_" gradientUnits="userSpaceOnUse" x1="-3.6853" y1="64.5616" x2="-12.4863" y2="74.2498" gradientTransform="matrix(0.9739 -0.2269 0.2269 0.9739 16.8703 -35.4324)">
				<stop  offset="0" style="stop-color:#FFE94A"/>
				<stop  offset="0.3381" style="stop-color:#FCDA34"/>
				<stop  offset="1" style="stop-color:#F5B400"/>
			</linearGradient>
			<path class="st23" d="M31.3,32.2c0.8,3.5-1.4,7-4.9,7.8c-3.5,0.8-7-1.4-7.8-4.9c-0.8-3.5,1.4-7,4.9-7.8
				C27,26.5,30.5,28.7,31.3,32.2z"/>
			<path class="st11" d="M23.5,27.3c-3.5,0.8-5.7,4.3-4.9,7.8c0.8,3.5,4.3,5.7,7.8,4.9c3.5-0.8,5.7-4.3,4.9-7.8
				C30.5,28.7,27,26.5,23.5,27.3z M26.4,39.9c-3.4,0.8-6.9-1.3-7.7-4.8c-0.8-3.4,1.3-6.9,4.8-7.7c3.4-0.8,6.9,1.3,7.7,4.8
				C32,35.6,29.8,39.1,26.4,39.9z"/>
			<g>
				
					<linearGradient id="SVGID_24_" gradientUnits="userSpaceOnUse" x1="-3.867" y1="64.5929" x2="-11.3552" y2="72.223" gradientTransform="matrix(0.9739 -0.2269 0.2269 0.9739 16.8703 -35.4324)">
					<stop  offset="0" style="stop-color:#FFDB56"/>
					<stop  offset="9.118795e-03" style="stop-color:#FFDA55"/>
					<stop  offset="0.6822" style="stop-color:#F39A2F"/>
					<stop  offset="1" style="stop-color:#EE8120"/>
				</linearGradient>
				<path class="st24" d="M27,33.1L27,33.1c0.5-0.3,0.9-0.8,0.6-1.7c-0.2-0.9-1.1-1.4-2-1.1l0,0l-0.2-0.8L24,29.7l0.2,0.8l-0.6,0.1
					l-0.2-0.8L22,30.2l0.2,0.8l-0.3,0.1l-0.2,0.1l-0.6,0.1l0.3,1.4l0.6-0.1l0.8,3.4l-0.6,0.1l0.3,1.4l0.6-0.1l0.2-0.1l0.3-0.1
					l0.2,0.8l1.4-0.3L25,36.9l0.6-0.1l0.2,0.8l1.4-0.3l-0.2-0.8l0,0c1-0.2,1.6-1.1,1.3-2.1C28.2,33.4,27.6,33.1,27,33.1z M25.2,31.8
					c0.2-0.1,0.4,0.1,0.5,0.3l0,0.1c0.1,0.2-0.1,0.5-0.3,0.5L24.2,33l-0.2-1L25.2,31.8z M24.8,35.4l-0.2-1l1.3-0.3
					c0.2-0.1,0.4,0.1,0.5,0.3l0,0.1c0.1,0.3-0.1,0.5-0.3,0.5L24.8,35.4z"/>
				
					<linearGradient id="SVGID_25_" gradientUnits="userSpaceOnUse" x1="-5.9661" y1="65.9595" x2="-10.556" y2="72.4184" gradientTransform="matrix(0.9739 -0.2269 0.2269 0.9739 16.8703 -35.4324)">
					<stop  offset="0" style="stop-color:#FFF84A"/>
					<stop  offset="1" style="stop-color:#FFEC38"/>
				</linearGradient>
				<path class="st25" d="M26.9,33.1L26.9,33.1c0.5-0.3,0.8-0.8,0.6-1.7c-0.2-0.9-1.1-1.3-1.9-1.1l0,0l-0.2-0.8L24,29.8l0.2,0.8
					l-0.6,0.1L23.5,30l-1.4,0.3l0.2,0.8L22,31.2l-0.2,0l-0.6,0.1l0.3,1.4l0.6-0.1l0.8,3.3L22.3,36l0.3,1.4l0.6-0.1l0.2,0l0.3-0.1
					l0.2,0.8l1.4-0.3L25,36.8l0.6-0.1l0.2,0.8l1.4-0.3L27,36.3l0,0c0.9-0.2,1.5-1,1.3-2C28.1,33.4,27.5,33.1,26.9,33.1z M25.2,31.8
					c0.2-0.1,0.5,0.1,0.5,0.4l0,0.1c0.1,0.3-0.1,0.5-0.3,0.6l-1.3,0.3l-0.2-1L25.2,31.8z M24.7,35.4l-0.2-1l1.4-0.3
					c0.2-0.1,0.5,0.1,0.5,0.4l0,0.1c0.1,0.3-0.1,0.5-0.3,0.6L24.7,35.4z"/>
			</g>
		</g>
		<g>
			
				<linearGradient id="SVGID_26_" gradientUnits="userSpaceOnUse" x1="-172.8445" y1="186.6146" x2="-127.1637" y2="186.6146" gradientTransform="matrix(0.4078 -0.2893 0.2893 0.4078 18.6303 -45.9933)">
				<stop  offset="0" style="stop-color:#FFF84A"/>
				<stop  offset="1" style="stop-color:#FFEC38"/>
			</linearGradient>
			<circle class="st26" cx="11.4" cy="73.5" r="11.4"/>
			
				<linearGradient id="SVGID_27_" gradientUnits="userSpaceOnUse" x1="-90.7176" y1="121.8642" x2="-104.6613" y2="133.1246" gradientTransform="matrix(0.8156 -0.5787 0.5787 0.8156 17.3369 -86.9996)">
				<stop  offset="0.4846" style="stop-color:#CC9434"/>
				<stop  offset="0.6795" style="stop-color:#FFEA72"/>
				<stop  offset="0.7638" style="stop-color:#FFE76C"/>
				<stop  offset="0.8718" style="stop-color:#FFDE5C"/>
				<stop  offset="0.9603" style="stop-color:#FFD44A"/>
			</linearGradient>
			<path class="st27" d="M18.8,68.3c2.9,4.1,1.9,9.7-2.1,12.6c-4.1,2.9-9.7,1.9-12.6-2.1C1.2,74.7,2.2,69,6.2,66.1
				C10.3,63.3,15.9,64.2,18.8,68.3z"/>
			
				<linearGradient id="SVGID_28_" gradientUnits="userSpaceOnUse" x1="-101.7991" y1="119.2111" x2="-93.5793" y2="135.7179" gradientTransform="matrix(0.8156 -0.5787 0.5787 0.8156 17.3369 -86.9996)">
				<stop  offset="0.4846" style="stop-color:#CC9434"/>
				<stop  offset="0.6795" style="stop-color:#FFEA72"/>
				<stop  offset="0.7638" style="stop-color:#FFE76C"/>
				<stop  offset="0.8718" style="stop-color:#FFDE5C"/>
				<stop  offset="0.9603" style="stop-color:#FFD44A"/>
			</linearGradient>
			<path class="st28" d="M18.8,68.3c2.9,4.1,1.9,9.7-2.1,12.6c-4.1,2.9-9.7,1.9-12.6-2.1C1.2,74.7,2.2,69,6.2,66.1
				C10.3,63.3,15.9,64.2,18.8,68.3z"/>
			
				<linearGradient id="SVGID_29_" gradientUnits="userSpaceOnUse" x1="-92.1585" y1="121.4091" x2="-103.9417" y2="134.3801" gradientTransform="matrix(0.8156 -0.5787 0.5787 0.8156 17.3369 -86.9996)">
				<stop  offset="0" style="stop-color:#FFE94A"/>
				<stop  offset="0.3381" style="stop-color:#FCDA34"/>
				<stop  offset="1" style="stop-color:#F5B400"/>
			</linearGradient>
			<path class="st29" d="M18.6,68.5c2.8,3.9,1.9,9.4-2.1,12.2c-3.9,2.8-9.4,1.9-12.2-2.1c-2.8-3.9-1.9-9.4,2.1-12.2
				C10.3,63.6,15.8,64.5,18.6,68.5z"/>
			<path class="st11" d="M6.4,66.4c-3.9,2.8-4.9,8.2-2.1,12.2c2.8,3.9,8.2,4.9,12.2,2.1c3.9-2.8,4.9-8.2,2.1-12.2
				C15.8,64.5,10.3,63.6,6.4,66.4z M16.4,80.5c-3.9,2.7-9.2,1.8-11.9-2c-2.7-3.9-1.8-9.2,2-11.9c3.8-2.7,9.2-1.8,11.9,2
				C21.1,72.4,20.2,77.7,16.4,80.5z"/>
			<g>
				
					<linearGradient id="SVGID_30_" gradientUnits="userSpaceOnUse" x1="-92.4021" y1="121.4514" x2="-102.4272" y2="131.6667" gradientTransform="matrix(0.8156 -0.5787 0.5787 0.8156 17.3369 -86.9996)">
					<stop  offset="0" style="stop-color:#FFDB56"/>
					<stop  offset="9.118795e-03" style="stop-color:#FFDA55"/>
					<stop  offset="0.6822" style="stop-color:#F39A2F"/>
					<stop  offset="1" style="stop-color:#EE8120"/>
				</linearGradient>
				<path class="st30" d="M13.7,71.8L13.7,71.8c0.4-0.6,0.6-1.4-0.1-2.5c-0.7-1-2-1.1-3-0.4l0,0L9.9,68l-1.6,1.1L8.9,70l-0.7,0.5
					l-0.7-0.9L6,70.7l0.7,0.9l-0.3,0.2L6.1,72l-0.7,0.5l1.1,1.6l0.7-0.5l2.7,3.8l-0.7,0.5l1.1,1.6l0.7-0.5l0.2-0.2l0.3-0.2l0.7,0.9
					l1.6-1.1l-0.7-0.9l0.7-0.5l0.7,0.9l1.6-1.1l-0.7-0.9l0,0c1.1-0.8,1.4-2.1,0.6-3.2C15.4,71.5,14.5,71.4,13.7,71.8z M10.8,71.1
					c0.2-0.2,0.6-0.1,0.8,0.2l0.1,0.1c0.2,0.3,0.2,0.6-0.1,0.8l-1.3,0.9L9.5,72L10.8,71.1z M12.1,75.8l-0.8-1.1l1.5-1
					c0.3-0.2,0.6-0.1,0.8,0.2l0.1,0.1c0.2,0.3,0.2,0.6-0.1,0.8L12.1,75.8z"/>
				
					<linearGradient id="SVGID_31_" gradientUnits="userSpaceOnUse" x1="-95.2122" y1="123.2807" x2="-101.3573" y2="131.9281" gradientTransform="matrix(0.8156 -0.5787 0.5787 0.8156 17.3369 -86.9996)">
					<stop  offset="0" style="stop-color:#FFF84A"/>
					<stop  offset="1" style="stop-color:#FFEC38"/>
				</linearGradient>
				<path class="st31" d="M13.6,71.8L13.6,71.8c0.4-0.6,0.6-1.4-0.1-2.4c-0.7-1-2-1.1-2.9-0.4l0,0l-0.6-0.9l-1.5,1.1L9,70.2
					l-0.6,0.5l-0.6-0.9l-1.5,1.1l0.6,0.9l-0.3,0.2l-0.2,0.2l-0.7,0.5l1.1,1.5l0.7-0.5l2.6,3.6l-0.7,0.5l1.1,1.5l0.7-0.5l0.2-0.2
					l0.3-0.2l0.6,0.9l1.5-1.1l-0.6-0.9l0.6-0.5l0.6,0.9l1.5-1.1l-0.6-0.9l0,0c1-0.7,1.4-2,0.6-3.1C15.2,71.6,14.3,71.5,13.6,71.8z
					 M10.8,71.1c0.3-0.2,0.6-0.1,0.8,0.2l0.1,0.1c0.2,0.3,0.2,0.7-0.1,0.9l-1.4,1l-0.8-1.1L10.8,71.1z M12,75.8l-0.8-1.2l1.6-1.1
					c0.3-0.2,0.6-0.1,0.9,0.2l0.1,0.1c0.2,0.3,0.2,0.7-0.1,0.9L12,75.8z"/>
			</g>
		</g>
	</g>
</g>
</svg>
