<?xml version="1.0" encoding="utf-8"?>
<!-- Generator: Adobe Illustrator 24.0.2, SVG Export Plug-In . SVG Version: 6.00 Build 0)  -->
<svg version="1.1" id="Layer_1" xmlns="http://www.w3.org/2000/svg" xmlns:xlink="http://www.w3.org/1999/xlink" x="0px" y="0px"
	 viewBox="0 0 111.2 103.2" style="enable-background:new 0 0 111.2 103.2;" xml:space="preserve">
<style type="text/css">
	.st0{fill:url(#SVGID_1_);}
	.st1{fill:url(#SVGID_2_);}
	.st2{fill:url(#SVGID_3_);}
	.st3{fill:url(#SVGID_4_);}
	.st4{fill:url(#SVGID_5_);}
	.st5{fill:url(#SVGID_6_);}
	.st6{fill:url(#SVGID_7_);}
	.st7{fill:url(#SVGID_8_);}
	.st8{opacity:0.75;fill:url(#SVGID_9_);}
	.st9{opacity:0.32;fill:url(#SVGID_10_);}
	.st10{fill:url(#SVGID_11_);}
	.st11{fill:#D26D02;}
	.st12{fill:url(#SVGID_12_);}
	.st13{fill:url(#SVGID_13_);}
	.st14{fill:url(#SVGID_14_);}
	.st15{opacity:0.75;fill:url(#SVGID_15_);}
	.st16{opacity:0.32;fill:url(#SVGID_16_);}
	.st17{fill:url(#SVGID_17_);}
	.st18{fill:url(#SVGID_18_);}
	.st19{fill:url(#SVGID_19_);}
	.st20{fill:url(#SVGID_20_);}
	.st21{opacity:0.75;fill:url(#SVGID_21_);}
	.st22{opacity:0.32;fill:url(#SVGID_22_);}
	.st23{fill:url(#SVGID_23_);}
	.st24{fill:url(#SVGID_24_);}
	.st25{fill:url(#SVGID_25_);}
	.st26{fill:url(#SVGID_26_);}
	.st27{opacity:0.75;fill:url(#SVGID_27_);}
	.st28{opacity:0.32;fill:url(#SVGID_28_);}
	.st29{fill:url(#SVGID_29_);}
	.st30{fill:url(#SVGID_30_);}
	.st31{fill:url(#SVGID_31_);}
</style>
<g>
	<linearGradient id="SVGID_1_" gradientUnits="userSpaceOnUse" x1="91.7866" y1="35.8541" x2="-14.9274" y2="268.2033">
		<stop  offset="0" style="stop-color:#F9C359"/>
		<stop  offset="1" style="stop-color:#28B4AC"/>
	</linearGradient>
	<path class="st0" d="M78.8,58.3c1.4-0.4,3-0.6,4.5-0.4c0.7,1.2,0.7,2.8,0.2,4.1c-0.5,1.3-1.4,2.5-2.3,3.6c-1.3,1.6-2.9,3.1-4.8,3.7
		c0.8-0.4,0.9-1.4,0.9-2.2c0-2.2,0-4.4-0.1-6.6c0-0.4,0-0.8,0.2-1.1C77.5,58.8,78.2,58.5,78.8,58.3z"/>
	<linearGradient id="SVGID_2_" gradientUnits="userSpaceOnUse" x1="69.3721" y1="25.5595" x2="-37.3417" y2="257.9084">
		<stop  offset="0" style="stop-color:#F9C359"/>
		<stop  offset="1" style="stop-color:#28B4AC"/>
	</linearGradient>
	<path class="st1" d="M58.4,40.2c-0.3-0.7-0.5-1.3-0.5-2c0-1.7,1.4-2.9,2.8-4c1.4-1.1,3-2.2,4.7-2.2c1,1.7,0.8,3.7,0.6,5.7
		c-0.4,3.9-1,7.8-1.7,11.7c-2.4-0.8-3.6-3.3-4.5-5.7C59.4,42.6,58.9,41.4,58.4,40.2z"/>
	<linearGradient id="SVGID_3_" gradientUnits="userSpaceOnUse" x1="54.1426" y1="18.5646" x2="-52.5718" y2="250.9147">
		<stop  offset="0" style="stop-color:#F9C359"/>
		<stop  offset="1" style="stop-color:#28B4AC"/>
	</linearGradient>
	<path class="st2" d="M35.9,46.5c-0.5-1.1-0.3-2.5,0.3-3.6c0.6-1.1,1.5-2,2.5-2.7c0.4-0.3,0.9-0.6,1.4-0.5c0.6,0.1,1,0.7,1.3,1.3
		c1.9,3.3,3.8,6.7,4.5,10.4c-2.3-0.4-4.5-1.1-6.6-2C37.9,48.7,36.5,47.9,35.9,46.5z"/>
	<linearGradient id="SVGID_4_" gradientUnits="userSpaceOnUse" x1="64.574" y1="23.355" x2="-42.1412" y2="255.7069">
		<stop  offset="0" style="stop-color:#F9C359"/>
		<stop  offset="1" style="stop-color:#28B4AC"/>
	</linearGradient>
	<path class="st3" d="M30.7,82.9c0,0.8,0.1,1.6,0.5,2.2c0.5,0.6,1.3,0.9,2.1,1.1c3.4,0.7,7,0.2,10.2-1.2c0.3-0.1,0.6-0.3,0.7-0.5
		c0.3-0.4,0.1-1-0.3-1.4c-0.4-0.4-0.9-0.5-1.3-0.7c-2.8-1-5.5-2.4-8-4c-0.6-0.4-1.3-0.9-2.1-0.7c-0.7,0.1-1.2,0.8-1.5,1.4
		C30.7,80.2,30.7,81.6,30.7,82.9z"/>
	<linearGradient id="SVGID_5_" gradientUnits="userSpaceOnUse" x1="48.9343" y1="12.4422" x2="-61.4992" y2="252.89">
		<stop  offset="0" style="stop-color:#F9C359"/>
		<stop  offset="1" style="stop-color:#28B4AC"/>
	</linearGradient>
	<path class="st4" d="M2.9,101.9c0.8,0.8,2.2,0.9,3.4,0.8c3.9-0.5,7.4-2.6,10.8-4.7c1.1-0.7,2.3-1.7,1.7-3c-1.3-0.5-2-0.8-3.3-1.3
		c-2.8,1-5.8-1-8.9-0.8c-1.3,0.1-2.6,0.5-3.4,1.6c-0.8,1.1-1,2.5-1,3.9C2,99.5,2,101,2.9,101.9z"/>
	<linearGradient id="SVGID_6_" gradientUnits="userSpaceOnUse" x1="53.4439" y1="18.2437" x2="-53.2705" y2="250.5937">
		<stop  offset="0" style="stop-color:#F9C359"/>
		<stop  offset="1" style="stop-color:#28B4AC"/>
	</linearGradient>
	<path class="st5" d="M57.1,0.2c-1.1,0.4-1.7,1.6-2,2.8c-1.1,3.8-0.5,7.8,0.1,11.7c0.2,1.1,0.5,2.4,1.5,2.7c1.8-2.3,3.5-4.7,5.3-7
		c0.8-1,1.6-2.1,2-3.3c0.5-1.2,0.5-2.6-0.1-3.8c-0.7-1.2-1.9-1.9-3.1-2.5C59.6,0.3,58.3-0.3,57.1,0.2z"/>
	<linearGradient id="SVGID_7_" gradientUnits="userSpaceOnUse" x1="66.5403" y1="24.2592" x2="-40.1731" y2="256.6072">
		<stop  offset="0" style="stop-color:#F9C359"/>
		<stop  offset="1" style="stop-color:#28B4AC"/>
	</linearGradient>
	<path class="st6" d="M27.7,102.9c0.8,0.6,2,0.1,2.9-0.4c2.8-1.7,5.5-3.3,7.9-5.5c0.6-0.6,1.2-1.3,1.1-2.1c-0.1-0.8-1-1.4-1.8-1.5
		c-0.8-0.1-1.7,0.1-2.5,0.2c-2.3,0.3-4.9,0-6.5,1.5c-1.5,1.3-1.6,3.6-1.7,5.6C27,101.4,27.1,102.4,27.7,102.9z"/>
</g>
<g>
	<g>
		
			<linearGradient id="SVGID_8_" gradientUnits="userSpaceOnUse" x1="-158.7912" y1="-47.1222" x2="-109.3848" y2="-47.1222" gradientTransform="matrix(0.4738 -0.1598 0.1598 0.4738 10.3873 12.4235)">
			<stop  offset="0" style="stop-color:#FFF84A"/>
			<stop  offset="1" style="stop-color:#FFEC38"/>
		</linearGradient>
		<path class="st7" d="M-49,7.6c2.2,6.5-1.3,13.5-7.8,15.7c-6.5,2.2-13.5-1.3-15.7-7.8C-74.6,9-71.1,2-64.6-0.2
			C-58.2-2.4-51.2,1.1-49,7.6z"/>
		
			<linearGradient id="SVGID_9_" gradientUnits="userSpaceOnUse" x1="-80.9754" y1="5.3767" x2="-96.0585" y2="17.5573" gradientTransform="matrix(0.9475 -0.3196 0.3196 0.9475 19.5232 -27.6181)">
			<stop  offset="0.4846" style="stop-color:#CC9434"/>
			<stop  offset="0.6795" style="stop-color:#FFEA72"/>
			<stop  offset="0.7638" style="stop-color:#FFE76C"/>
			<stop  offset="0.8718" style="stop-color:#FFDE5C"/>
			<stop  offset="0.9603" style="stop-color:#FFD44A"/>
		</linearGradient>
		<path class="st8" d="M-51.4,8.4c1.7,5.1-1,10.6-6.1,12.4c-5.1,1.7-10.6-1-12.4-6.1c-1.7-5.1,1-10.6,6.1-12.4
			C-58.7,0.6-53.1,3.3-51.4,8.4z"/>
		
			<linearGradient id="SVGID_10_" gradientUnits="userSpaceOnUse" x1="-92.9624" y1="2.5067" x2="-84.071" y2="20.3625" gradientTransform="matrix(0.9475 -0.3196 0.3196 0.9475 19.5232 -27.6181)">
			<stop  offset="0.4846" style="stop-color:#CC9434"/>
			<stop  offset="0.6795" style="stop-color:#FFEA72"/>
			<stop  offset="0.7638" style="stop-color:#FFE76C"/>
			<stop  offset="0.8718" style="stop-color:#FFDE5C"/>
			<stop  offset="0.9603" style="stop-color:#FFD44A"/>
		</linearGradient>
		<path class="st9" d="M-51.4,8.4c1.7,5.1-1,10.6-6.1,12.4c-5.1,1.7-10.6-1-12.4-6.1c-1.7-5.1,1-10.6,6.1-12.4
			C-58.7,0.6-53.1,3.3-51.4,8.4z"/>
		
			<linearGradient id="SVGID_11_" gradientUnits="userSpaceOnUse" x1="-82.5341" y1="4.8844" x2="-95.2801" y2="18.9153" gradientTransform="matrix(0.9475 -0.3196 0.3196 0.9475 19.5232 -27.6181)">
			<stop  offset="0" style="stop-color:#FFE94A"/>
			<stop  offset="0.3381" style="stop-color:#FCDA34"/>
			<stop  offset="1" style="stop-color:#F5B400"/>
		</linearGradient>
		<path class="st10" d="M-51.7,8.5c1.7,4.9-1,10.3-5.9,12c-4.9,1.7-10.3-1-12-5.9c-1.7-4.9,1-10.3,5.9-12
			C-58.8,0.9-53.4,3.6-51.7,8.5z"/>
		<path class="st11" d="M-63.7,2.6c-4.9,1.7-7.6,7-5.9,12c1.7,4.9,7,7.6,12,5.9c4.9-1.7,7.6-7,5.9-12C-53.4,3.6-58.8,0.9-63.7,2.6z
			 M-57.7,20.3c-4.8,1.6-10.1-1-11.7-5.8c-1.6-4.8,1-10.1,5.8-11.7c4.8-1.6,10.1,1,11.7,5.8C-50.3,13.4-52.9,18.7-57.7,20.3z"/>
		<g>
			
				<linearGradient id="SVGID_12_" gradientUnits="userSpaceOnUse" x1="-82.7974" y1="4.93" x2="-93.6419" y2="15.98" gradientTransform="matrix(0.9475 -0.3196 0.3196 0.9475 19.5232 -27.6181)">
				<stop  offset="0" style="stop-color:#FFDB56"/>
				<stop  offset="9.118795e-03" style="stop-color:#FFDA55"/>
				<stop  offset="0.6822" style="stop-color:#F39A2F"/>
				<stop  offset="1" style="stop-color:#EE8120"/>
			</linearGradient>
			<path class="st12" d="M-57.8,10.4L-57.8,10.4c0.7-0.5,1.1-1.3,0.7-2.6c-0.4-1.3-1.8-1.8-3-1.4l0,0l-0.4-1.2l-2,0.7l0.4,1.2
				L-63,7.4l-0.4-1.2l-2,0.7l0.4,1.2l-0.4,0.1l-0.3,0.1l-0.9,0.3l0.7,2l0.9-0.3l1.6,4.7l-0.9,0.3l0.7,2l0.9-0.3l0.3-0.1l0.4-0.1
				l0.4,1.2l2-0.7l-0.4-1.2l0.8-0.3l0.4,1.2l2-0.7l-0.4-1.2l0.1,0c1.3-0.5,2.1-1.7,1.6-3.2C-56,10.7-56.9,10.3-57.8,10.4z
				 M-60.6,8.8c0.3-0.1,0.7,0.1,0.8,0.4l0,0.1c0.1,0.3,0,0.7-0.3,0.8l-1.7,0.6l-0.5-1.3L-60.6,8.8z M-60.7,14.1l-0.5-1.4l1.8-0.6
				c0.3-0.1,0.7,0.1,0.8,0.4l0,0.1c0.1,0.4,0,0.7-0.3,0.8L-60.7,14.1z"/>
			
				<linearGradient id="SVGID_13_" gradientUnits="userSpaceOnUse" x1="-85.8373" y1="6.9089" x2="-92.4845" y2="16.2629" gradientTransform="matrix(0.9475 -0.3196 0.3196 0.9475 19.5232 -27.6181)">
				<stop  offset="0" style="stop-color:#FFF84A"/>
				<stop  offset="1" style="stop-color:#FFEC38"/>
			</linearGradient>
			<path class="st13" d="M-57.9,10.5L-57.9,10.5c0.6-0.5,1.1-1.2,0.7-2.5c-0.4-1.2-1.7-1.7-2.9-1.3l0,0l-0.4-1.1l-1.9,0.7l0.4,1.1
				l-0.8,0.3l-0.4-1.1l-1.9,0.7l0.4,1.1l-0.4,0.1l-0.3,0.1l-0.8,0.3l0.7,1.9l0.8-0.3l1.5,4.6l-0.8,0.3l0.7,1.9l0.8-0.3l0.3-0.1
				l0.4-0.1l0.4,1.1l1.9-0.7l-0.4-1.1l0.8-0.3l0.4,1.1l1.9-0.7l-0.4-1.1l0.1,0c1.3-0.4,2-1.7,1.6-3C-56.2,10.7-57,10.4-57.9,10.5z
				 M-60.6,8.8c0.3-0.1,0.7,0.1,0.8,0.5l0,0.1c0.1,0.4,0,0.8-0.4,0.9l-1.8,0.6l-0.5-1.4L-60.6,8.8z M-60.8,14.1l-0.5-1.5l2-0.7
				c0.3-0.1,0.7,0.1,0.8,0.5l0,0.1c0.1,0.4,0,0.8-0.4,0.9L-60.8,14.1z"/>
		</g>
	</g>
	<g>
		<g>
			
				<linearGradient id="SVGID_14_" gradientUnits="userSpaceOnUse" x1="34.9144" y1="-110.8581" x2="69.0348" y2="-110.8581" gradientTransform="matrix(0.4859 0.1177 -0.1177 0.4859 -51.9467 35.5238)">
				<stop  offset="0" style="stop-color:#FFF84A"/>
				<stop  offset="1" style="stop-color:#FFEC38"/>
			</linearGradient>
			<path class="st14" d="M-5.4-10.2c-1.1,4.6-5.7,7.4-10.3,6.3C-20.2-5-23-9.7-21.9-14.2c1.1-4.6,5.7-7.4,10.3-6.3
				C-7.1-19.4-4.2-14.8-5.4-10.2z"/>
			
				<linearGradient id="SVGID_15_" gradientUnits="userSpaceOnUse" x1="9.0413" y1="-26.2981" x2="-1.3729" y2="-17.8879" gradientTransform="matrix(0.9719 0.2355 -0.2355 0.9719 -22.583 8.3489)">
				<stop  offset="0.4846" style="stop-color:#CC9434"/>
				<stop  offset="0.6795" style="stop-color:#FFEA72"/>
				<stop  offset="0.7638" style="stop-color:#FFE76C"/>
				<stop  offset="0.8718" style="stop-color:#FFDE5C"/>
				<stop  offset="0.9603" style="stop-color:#FFD44A"/>
			</linearGradient>
			<path class="st15" d="M-7.1-10.6c-0.9,3.6-4.5,5.8-8.1,5c-3.6-0.9-5.8-4.5-5-8.1c0.9-3.6,4.5-5.8,8.1-5
				C-8.4-17.9-6.2-14.3-7.1-10.6z"/>
			
				<linearGradient id="SVGID_16_" gradientUnits="userSpaceOnUse" x1="0.7648" y1="-28.2796" x2="6.904" y2="-15.951" gradientTransform="matrix(0.9719 0.2355 -0.2355 0.9719 -22.583 8.3489)">
				<stop  offset="0.4846" style="stop-color:#CC9434"/>
				<stop  offset="0.6795" style="stop-color:#FFEA72"/>
				<stop  offset="0.7638" style="stop-color:#FFE76C"/>
				<stop  offset="0.8718" style="stop-color:#FFDE5C"/>
				<stop  offset="0.9603" style="stop-color:#FFD44A"/>
			</linearGradient>
			<path class="st16" d="M-7.1-10.6c-0.9,3.6-4.5,5.8-8.1,5c-3.6-0.9-5.8-4.5-5-8.1c0.9-3.6,4.5-5.8,8.1-5
				C-8.4-17.9-6.2-14.3-7.1-10.6z"/>
			
				<linearGradient id="SVGID_17_" gradientUnits="userSpaceOnUse" x1="7.9652" y1="-26.638" x2="-0.8355" y2="-16.9501" gradientTransform="matrix(0.9719 0.2355 -0.2355 0.9719 -22.583 8.3489)">
				<stop  offset="0" style="stop-color:#FFE94A"/>
				<stop  offset="0.3381" style="stop-color:#FCDA34"/>
				<stop  offset="1" style="stop-color:#F5B400"/>
			</linearGradient>
			<path class="st17" d="M-7.3-10.7c-0.8,3.5-4.4,5.6-7.9,4.8c-3.5-0.8-5.6-4.4-4.8-7.9c0.8-3.5,4.4-5.6,7.9-4.8
				C-8.6-17.7-6.5-14.2-7.3-10.7z"/>
			<path class="st11" d="M-12.1-18.6c-3.5-0.8-7,1.3-7.9,4.8c-0.8,3.5,1.3,7,4.8,7.9c3.5,0.8,7-1.3,7.9-4.8
				C-6.5-14.2-8.6-17.7-12.1-18.6z M-15.1-6c-3.4-0.8-5.5-4.3-4.7-7.7c0.8-3.4,4.3-5.5,7.7-4.7c3.4,0.8,5.5,4.3,4.7,7.7
				C-8.3-7.3-11.7-5.2-15.1-6z"/>
			<g>
				
					<linearGradient id="SVGID_18_" gradientUnits="userSpaceOnUse" x1="7.7835" y1="-26.6063" x2="0.2958" y2="-18.9767" gradientTransform="matrix(0.9719 0.2355 -0.2355 0.9719 -22.583 8.3489)">
					<stop  offset="0" style="stop-color:#FFDB56"/>
					<stop  offset="9.118795e-03" style="stop-color:#FFDA55"/>
					<stop  offset="0.6822" style="stop-color:#F39A2F"/>
					<stop  offset="1" style="stop-color:#EE8120"/>
				</linearGradient>
				<path class="st18" d="M-11.6-11.8L-11.6-11.8c0.6-0.1,1.1-0.3,1.3-1.2c0.2-0.9-0.4-1.7-1.3-1.9l0,0l0.2-0.8l-1.4-0.3l-0.2,0.8
					l-0.6-0.1l0.2-0.8l-1.4-0.3l-0.2,0.8l-0.3-0.1l-0.2-0.1l-0.6-0.2l-0.3,1.4l0.6,0.2l-0.8,3.4l-0.6-0.2l-0.3,1.4l0.6,0.2l0.2,0.1
					l0.3,0.1l-0.2,0.8l1.4,0.3l0.2-0.8l0.6,0.1l-0.2,0.8l1.4,0.3l0.2-0.8l0,0c1,0.2,1.9-0.2,2.1-1.2C-10.6-11-11-11.5-11.6-11.8z
					 M-12.6-13.8c0.2,0.1,0.3,0.3,0.3,0.5l0,0.1c-0.1,0.2-0.3,0.4-0.5,0.3l-1.2-0.3l0.2-1L-12.6-13.8z M-14.6-10.7l0.2-1l1.3,0.3
					c0.2,0.1,0.3,0.3,0.3,0.5l0,0.1c-0.1,0.3-0.3,0.4-0.5,0.3L-14.6-10.7z"/>
				
					<linearGradient id="SVGID_19_" gradientUnits="userSpaceOnUse" x1="5.6844" y1="-25.24" x2="1.0949" y2="-18.7815" gradientTransform="matrix(0.9719 0.2355 -0.2355 0.9719 -22.583 8.3489)">
					<stop  offset="0" style="stop-color:#FFF84A"/>
					<stop  offset="1" style="stop-color:#FFEC38"/>
				</linearGradient>
				<path class="st19" d="M-11.7-11.8L-11.7-11.8c0.6-0.1,1.1-0.3,1.3-1.2c0.2-0.9-0.4-1.6-1.2-1.9l0,0l0.2-0.8l-1.4-0.3l-0.2,0.8
					l-0.6-0.1l0.2-0.8l-1.4-0.3l-0.2,0.8l-0.3-0.1l-0.2-0.1L-16-16l-0.3,1.4l0.6,0.1l-0.8,3.2l-0.6-0.1l-0.3,1.4l0.6,0.1l0.2,0.1
					l0.3,0.1l-0.2,0.8l1.4,0.3l0.2-0.8l0.6,0.1l-0.2,0.8l1.4,0.3l0.2-0.8l0,0c0.9,0.2,1.8-0.2,2-1.2C-10.7-11-11.1-11.6-11.7-11.8z
					 M-12.6-13.8c0.2,0.1,0.4,0.3,0.3,0.6l0,0.1c-0.1,0.3-0.3,0.4-0.5,0.4l-1.3-0.3l0.2-1L-12.6-13.8z M-14.7-10.8l0.2-1l1.4,0.3
					c0.2,0.1,0.4,0.3,0.3,0.6l0,0.1c-0.1,0.3-0.3,0.4-0.5,0.4L-14.7-10.8z"/>
			</g>
		</g>
		<g>
			
				<linearGradient id="SVGID_20_" gradientUnits="userSpaceOnUse" x1="-189.4001" y1="-93.7474" x2="-155.2847" y2="-93.7474" gradientTransform="matrix(0.487 -0.1134 0.1134 0.487 3.2331 4.0853)">
				<stop  offset="0" style="stop-color:#FFF84A"/>
				<stop  offset="1" style="stop-color:#FFEC38"/>
			</linearGradient>
			<path class="st20" d="M-83-24c1.1,4.6-1.8,9.2-6.4,10.2c-4.6,1.1-9.2-1.8-10.2-6.4c-1.1-4.6,1.8-9.2,6.4-10.2
				C-88.7-31.4-84.1-28.5-83-24z"/>
			
				<linearGradient id="SVGID_21_" gradientUnits="userSpaceOnUse" x1="-103.2214" y1="-15.693" x2="-113.6361" y2="-7.2824" gradientTransform="matrix(0.9739 -0.2269 0.2269 0.9739 16.8703 -35.4324)">
				<stop  offset="0.4846" style="stop-color:#CC9434"/>
				<stop  offset="0.6795" style="stop-color:#FFEA72"/>
				<stop  offset="0.7638" style="stop-color:#FFE76C"/>
				<stop  offset="0.8718" style="stop-color:#FFDE5C"/>
				<stop  offset="0.9603" style="stop-color:#FFD44A"/>
			</linearGradient>
			<path class="st21" d="M-84.8-23.6c0.8,3.6-1.4,7.2-5,8.1c-3.6,0.8-7.2-1.4-8.1-5c-0.8-3.6,1.4-7.2,5-8.1
				C-89.2-29.4-85.6-27.2-84.8-23.6z"/>
			
				<linearGradient id="SVGID_22_" gradientUnits="userSpaceOnUse" x1="-111.4982" y1="-17.6746" x2="-105.3588" y2="-5.3455" gradientTransform="matrix(0.9739 -0.2269 0.2269 0.9739 16.8703 -35.4324)">
				<stop  offset="0.4846" style="stop-color:#CC9434"/>
				<stop  offset="0.6795" style="stop-color:#FFEA72"/>
				<stop  offset="0.7638" style="stop-color:#FFE76C"/>
				<stop  offset="0.8718" style="stop-color:#FFDE5C"/>
				<stop  offset="0.9603" style="stop-color:#FFD44A"/>
			</linearGradient>
			<path class="st22" d="M-84.8-23.6c0.8,3.6-1.4,7.2-5,8.1c-3.6,0.8-7.2-1.4-8.1-5c-0.8-3.6,1.4-7.2,5-8.1
				C-89.2-29.4-85.6-27.2-84.8-23.6z"/>
			
				<linearGradient id="SVGID_23_" gradientUnits="userSpaceOnUse" x1="-104.2976" y1="-16.033" x2="-113.0987" y2="-6.3447" gradientTransform="matrix(0.9739 -0.2269 0.2269 0.9739 16.8703 -35.4324)">
				<stop  offset="0" style="stop-color:#FFE94A"/>
				<stop  offset="0.3381" style="stop-color:#FCDA34"/>
				<stop  offset="1" style="stop-color:#F5B400"/>
			</linearGradient>
			<path class="st23" d="M-85-23.5c0.8,3.5-1.4,7-4.9,7.8c-3.5,0.8-7-1.4-7.8-4.9c-0.8-3.5,1.4-7,4.9-7.8
				C-89.3-29.2-85.8-27-85-23.5z"/>
			<path class="st11" d="M-92.8-28.4c-3.5,0.8-5.7,4.3-4.9,7.8c0.8,3.5,4.3,5.7,7.8,4.9c3.5-0.8,5.7-4.3,4.9-7.8
				C-85.8-27-89.3-29.2-92.8-28.4z M-89.9-15.8c-3.4,0.8-6.9-1.3-7.7-4.8c-0.8-3.4,1.3-6.9,4.8-7.7c3.4-0.8,6.9,1.3,7.7,4.8
				C-84.3-20-86.4-16.6-89.9-15.8z"/>
			<g>
				
					<linearGradient id="SVGID_24_" gradientUnits="userSpaceOnUse" x1="-104.4794" y1="-16.0016" x2="-111.9675" y2="-8.3715" gradientTransform="matrix(0.9739 -0.2269 0.2269 0.9739 16.8703 -35.4324)">
					<stop  offset="0" style="stop-color:#FFDB56"/>
					<stop  offset="9.118795e-03" style="stop-color:#FFDA55"/>
					<stop  offset="0.6822" style="stop-color:#F39A2F"/>
					<stop  offset="1" style="stop-color:#EE8120"/>
				</linearGradient>
				<path class="st24" d="M-89.3-22.6L-89.3-22.6c0.5-0.3,0.9-0.8,0.6-1.7c-0.2-0.9-1.1-1.4-2-1.1l0,0l-0.2-0.8l-1.4,0.3l0.2,0.8
					l-0.6,0.1l-0.2-0.8l-1.4,0.3l0.2,0.8l-0.3,0.1l-0.2,0.1l-0.6,0.1l0.3,1.4l0.6-0.1l0.8,3.4l-0.6,0.1l0.3,1.4l0.6-0.1l0.2-0.1
					l0.3-0.1l0.2,0.8l1.4-0.3l-0.2-0.8l0.6-0.1l0.2,0.8l1.4-0.3l-0.2-0.8l0,0c1-0.2,1.6-1.1,1.3-2.1C-88.1-22.3-88.7-22.6-89.3-22.6
					z M-91.1-23.9c0.2-0.1,0.4,0.1,0.5,0.3l0,0.1c0.1,0.2-0.1,0.5-0.3,0.5l-1.2,0.3l-0.2-1L-91.1-23.9z M-91.5-20.3l-0.2-1l1.3-0.3
					c0.2-0.1,0.4,0.1,0.5,0.3l0,0.1c0.1,0.3-0.1,0.5-0.3,0.5L-91.5-20.3z"/>
				
					<linearGradient id="SVGID_25_" gradientUnits="userSpaceOnUse" x1="-106.5785" y1="-14.635" x2="-111.1683" y2="-8.1761" gradientTransform="matrix(0.9739 -0.2269 0.2269 0.9739 16.8703 -35.4324)">
					<stop  offset="0" style="stop-color:#FFF84A"/>
					<stop  offset="1" style="stop-color:#FFEC38"/>
				</linearGradient>
				<path class="st25" d="M-89.4-22.6L-89.4-22.6c0.5-0.3,0.8-0.8,0.6-1.7c-0.2-0.9-1.1-1.3-1.9-1.1l0,0l-0.2-0.8l-1.4,0.3l0.2,0.8
					l-0.6,0.1l-0.2-0.8l-1.4,0.3l0.2,0.8l-0.3,0.1l-0.2,0l-0.6,0.1l0.3,1.4l0.6-0.1l0.8,3.3l-0.6,0.1l0.3,1.4l0.6-0.1l0.2,0l0.3-0.1
					l0.2,0.8l1.4-0.3l-0.2-0.8l0.6-0.1l0.2,0.8l1.4-0.3l-0.2-0.8l0,0c0.9-0.2,1.5-1,1.3-2C-88.2-22.3-88.8-22.6-89.4-22.6z
					 M-91.1-23.9c0.2-0.1,0.5,0.1,0.5,0.4l0,0.1c0.1,0.3-0.1,0.5-0.3,0.6l-1.3,0.3l-0.2-1L-91.1-23.9z M-91.6-20.3l-0.2-1l1.4-0.3
					c0.2-0.1,0.5,0.1,0.5,0.4l0,0.1c0.1,0.3-0.1,0.5-0.3,0.6L-91.6-20.3z"/>
			</g>
		</g>
		<g>
			
				<linearGradient id="SVGID_26_" gradientUnits="userSpaceOnUse" x1="-298.0996" y1="-38.737" x2="-252.4189" y2="-38.737" gradientTransform="matrix(0.4078 -0.2893 0.2893 0.4078 18.6303 -45.9933)">
				<stop  offset="0" style="stop-color:#FFF84A"/>
				<stop  offset="1" style="stop-color:#FFEC38"/>
			</linearGradient>
			<circle class="st26" cx="-104.8" cy="17.8" r="11.4"/>
			
				<linearGradient id="SVGID_27_" gradientUnits="userSpaceOnUse" x1="-153.3324" y1="9.1898" x2="-167.276" y2="20.4503" gradientTransform="matrix(0.8156 -0.5787 0.5787 0.8156 17.3369 -86.9996)">
				<stop  offset="0.4846" style="stop-color:#CC9434"/>
				<stop  offset="0.6795" style="stop-color:#FFEA72"/>
				<stop  offset="0.7638" style="stop-color:#FFE76C"/>
				<stop  offset="0.8718" style="stop-color:#FFDE5C"/>
				<stop  offset="0.9603" style="stop-color:#FFD44A"/>
			</linearGradient>
			<path class="st27" d="M-97.5,12.6c2.9,4.1,1.9,9.7-2.1,12.6c-4.1,2.9-9.7,1.9-12.6-2.1c-2.9-4.1-1.9-9.7,2.1-12.6
				C-106,7.6-100.4,8.6-97.5,12.6z"/>
			
				<linearGradient id="SVGID_28_" gradientUnits="userSpaceOnUse" x1="-164.4138" y1="6.5367" x2="-156.1941" y2="23.0435" gradientTransform="matrix(0.8156 -0.5787 0.5787 0.8156 17.3369 -86.9996)">
				<stop  offset="0.4846" style="stop-color:#CC9434"/>
				<stop  offset="0.6795" style="stop-color:#FFEA72"/>
				<stop  offset="0.7638" style="stop-color:#FFE76C"/>
				<stop  offset="0.8718" style="stop-color:#FFDE5C"/>
				<stop  offset="0.9603" style="stop-color:#FFD44A"/>
			</linearGradient>
			<path class="st28" d="M-97.5,12.6c2.9,4.1,1.9,9.7-2.1,12.6c-4.1,2.9-9.7,1.9-12.6-2.1c-2.9-4.1-1.9-9.7,2.1-12.6
				C-106,7.6-100.4,8.6-97.5,12.6z"/>
			
				<linearGradient id="SVGID_29_" gradientUnits="userSpaceOnUse" x1="-154.7733" y1="8.7348" x2="-166.5565" y2="21.7058" gradientTransform="matrix(0.8156 -0.5787 0.5787 0.8156 17.3369 -86.9996)">
				<stop  offset="0" style="stop-color:#FFE94A"/>
				<stop  offset="0.3381" style="stop-color:#FCDA34"/>
				<stop  offset="1" style="stop-color:#F5B400"/>
			</linearGradient>
			<path class="st29" d="M-97.7,12.8c2.8,3.9,1.9,9.4-2.1,12.2c-3.9,2.8-9.4,1.9-12.2-2.1c-2.8-3.9-1.9-9.4,2.1-12.2
				C-105.9,7.9-100.5,8.9-97.7,12.8z"/>
			<path class="st11" d="M-109.9,10.7c-3.9,2.8-4.9,8.2-2.1,12.2c2.8,3.9,8.2,4.9,12.2,2.1c3.9-2.8,4.9-8.2,2.1-12.2
				C-100.5,8.9-105.9,7.9-109.9,10.7z M-99.9,24.8c-3.9,2.7-9.2,1.8-11.9-2c-2.7-3.9-1.8-9.2,2-11.9c3.8-2.7,9.2-1.8,11.9,2
				C-95.1,16.7-96,22.1-99.9,24.8z"/>
			<g>
				
					<linearGradient id="SVGID_30_" gradientUnits="userSpaceOnUse" x1="-155.0168" y1="8.7771" x2="-165.042" y2="18.9923" gradientTransform="matrix(0.8156 -0.5787 0.5787 0.8156 17.3369 -86.9996)">
					<stop  offset="0" style="stop-color:#FFDB56"/>
					<stop  offset="9.118795e-03" style="stop-color:#FFDA55"/>
					<stop  offset="0.6822" style="stop-color:#F39A2F"/>
					<stop  offset="1" style="stop-color:#EE8120"/>
				</linearGradient>
				<path class="st30" d="M-102.6,16.1L-102.6,16.1c0.4-0.6,0.6-1.4-0.1-2.5c-0.7-1-2-1.1-3-0.4l0,0l-0.7-0.9l-1.6,1.1l0.7,0.9
					l-0.7,0.5l-0.7-0.9l-1.6,1.1l0.7,0.9l-0.3,0.2l-0.2,0.2l-0.7,0.5l1.1,1.6l0.7-0.5l2.7,3.8l-0.7,0.5l1.1,1.6l0.7-0.5l0.2-0.2
					l0.3-0.2l0.7,0.9l1.6-1.1l-0.7-0.9l0.7-0.5l0.7,0.9l1.6-1.1l-0.7-0.9l0,0c1.1-0.8,1.4-2.1,0.6-3.2
					C-100.9,15.8-101.8,15.8-102.6,16.1z M-105.5,15.4c0.2-0.2,0.6-0.1,0.8,0.2l0.1,0.1c0.2,0.3,0.2,0.6-0.1,0.8l-1.3,0.9l-0.8-1.1
					L-105.5,15.4z M-104.2,20.1l-0.8-1.1l1.5-1c0.3-0.2,0.6-0.1,0.8,0.2l0.1,0.1c0.2,0.3,0.2,0.6-0.1,0.8L-104.2,20.1z"/>
				
					<linearGradient id="SVGID_31_" gradientUnits="userSpaceOnUse" x1="-157.827" y1="10.6063" x2="-163.972" y2="19.2537" gradientTransform="matrix(0.8156 -0.5787 0.5787 0.8156 17.3369 -86.9996)">
					<stop  offset="0" style="stop-color:#FFF84A"/>
					<stop  offset="1" style="stop-color:#FFEC38"/>
				</linearGradient>
				<path class="st31" d="M-102.7,16.2L-102.7,16.2c0.4-0.6,0.6-1.4-0.1-2.4c-0.7-1-2-1.1-2.9-0.4l0,0l-0.6-0.9l-1.5,1.1l0.6,0.9
					l-0.6,0.5l-0.6-0.9l-1.5,1.1l0.6,0.9l-0.3,0.2l-0.2,0.2l-0.7,0.5l1.1,1.5l0.7-0.5l2.6,3.6l-0.7,0.5l1.1,1.5l0.7-0.5l0.2-0.2
					l0.3-0.2l0.6,0.9l1.5-1.1l-0.6-0.9l0.6-0.5l0.6,0.9l1.5-1.1l-0.6-0.9l0,0c1-0.7,1.4-2,0.6-3.1C-101,15.9-101.9,15.9-102.7,16.2z
					 M-105.5,15.4c0.3-0.2,0.6-0.1,0.8,0.2l0.1,0.1c0.2,0.3,0.2,0.7-0.1,0.9l-1.4,1l-0.8-1.1L-105.5,15.4z M-104.2,20.1l-0.8-1.2
					l1.6-1.1c0.3-0.2,0.6-0.1,0.9,0.2l0.1,0.1c0.2,0.3,0.2,0.7-0.1,0.9L-104.2,20.1z"/>
			</g>
		</g>
	</g>
</g>
</svg>
