<?xml version="1.0" encoding="utf-8"?>
<!-- Generator: Adobe Illustrator 24.0.2, SVG Export Plug-In . SVG Version: 6.00 Build 0)  -->
<svg version="1.1" id="Layer_1" xmlns="http://www.w3.org/2000/svg" xmlns:xlink="http://www.w3.org/1999/xlink" x="0px" y="0px"
	 viewBox="0 0 24.8 24.7" style="enable-background:new 0 0 24.8 24.7;" xml:space="preserve">
<style type="text/css">
	.st0{fill:url(#SVGID_1_);}
	.st1{fill:url(#SVGID_2_);}
	.st2{fill:url(#SVGID_3_);}
	.st3{fill:url(#SVGID_4_);}
	.st4{fill:url(#SVGID_5_);}
	.st5{fill:url(#SVGID_6_);}
	.st6{fill:url(#SVGID_7_);}
	.st7{fill:url(#SVGID_8_);}
	.st8{opacity:0.75;fill:url(#SVGID_9_);}
	.st9{opacity:0.32;fill:url(#SVGID_10_);}
	.st10{fill:url(#SVGID_11_);}
	.st11{fill:#D26D02;}
	.st12{fill:url(#SVGID_12_);}
	.st13{fill:url(#SVGID_13_);}
	.st14{fill:url(#SVGID_14_);}
	.st15{opacity:0.75;fill:url(#SVGID_15_);}
	.st16{opacity:0.32;fill:url(#SVGID_16_);}
	.st17{fill:url(#SVGID_17_);}
	.st18{fill:url(#SVGID_18_);}
	.st19{fill:url(#SVGID_19_);}
	.st20{fill:url(#SVGID_20_);}
	.st21{opacity:0.75;fill:url(#SVGID_21_);}
	.st22{opacity:0.32;fill:url(#SVGID_22_);}
	.st23{fill:url(#SVGID_23_);}
	.st24{fill:url(#SVGID_24_);}
	.st25{fill:url(#SVGID_25_);}
	.st26{fill:url(#SVGID_26_);}
	.st27{opacity:0.75;fill:url(#SVGID_27_);}
	.st28{opacity:0.32;fill:url(#SVGID_28_);}
	.st29{fill:url(#SVGID_29_);}
	.st30{fill:url(#SVGID_30_);}
	.st31{fill:url(#SVGID_31_);}
</style>
<g>
	<linearGradient id="SVGID_1_" gradientUnits="userSpaceOnUse" x1="48.5879" y1="-18.957" x2="-58.1261" y2="213.3922">
		<stop  offset="0" style="stop-color:#F9C359"/>
		<stop  offset="1" style="stop-color:#28B4AC"/>
	</linearGradient>
	<path class="st0" d="M35.6,3.5c1.4-0.4,3-0.6,4.5-0.4c0.7,1.2,0.7,2.8,0.2,4.1c-0.5,1.3-1.4,2.5-2.3,3.6c-1.3,1.6-2.9,3.1-4.8,3.7
		c0.8-0.4,0.9-1.4,0.9-2.2c0-2.2,0-4.4-0.1-6.6c0-0.4,0-0.8,0.2-1.1C34.3,3.9,35,3.7,35.6,3.5z"/>
	<linearGradient id="SVGID_2_" gradientUnits="userSpaceOnUse" x1="26.1735" y1="-29.2516" x2="-80.5404" y2="203.0973">
		<stop  offset="0" style="stop-color:#F9C359"/>
		<stop  offset="1" style="stop-color:#28B4AC"/>
	</linearGradient>
	<path class="st1" d="M15.2-14.6c-0.3-0.7-0.5-1.3-0.5-2c0-1.7,1.4-2.9,2.8-4c1.4-1.1,3-2.2,4.7-2.2c1,1.7,0.8,3.7,0.6,5.7
		c-0.4,3.9-1,7.8-1.7,11.7c-2.4-0.8-3.6-3.3-4.5-5.7C16.2-12.2,15.7-13.4,15.2-14.6z"/>
	<linearGradient id="SVGID_3_" gradientUnits="userSpaceOnUse" x1="10.9439" y1="-36.2465" x2="-95.7705" y2="196.1037">
		<stop  offset="0" style="stop-color:#F9C359"/>
		<stop  offset="1" style="stop-color:#28B4AC"/>
	</linearGradient>
	<path class="st2" d="M-7.3-8.3c-0.5-1.1-0.3-2.5,0.3-3.6c0.6-1.1,1.5-2,2.5-2.7c0.4-0.3,0.9-0.6,1.4-0.5c0.6,0.1,1,0.7,1.3,1.3
		C0.1-10.6,2-7.2,2.7-3.5c-2.3-0.4-4.5-1.1-6.6-2C-5.3-6.1-6.7-6.9-7.3-8.3z"/>
	<linearGradient id="SVGID_4_" gradientUnits="userSpaceOnUse" x1="21.3753" y1="-31.4561" x2="-85.3399" y2="200.8958">
		<stop  offset="0" style="stop-color:#F9C359"/>
		<stop  offset="1" style="stop-color:#28B4AC"/>
	</linearGradient>
	<path class="st3" d="M-12.4,28.1c0,0.8,0.1,1.6,0.5,2.2c0.5,0.6,1.3,0.9,2.1,1.1c3.4,0.7,7,0.2,10.2-1.2C0.7,30,1,29.9,1.2,29.6
		c0.3-0.4,0.1-1-0.3-1.4c-0.4-0.4-0.9-0.5-1.3-0.7c-2.8-1-5.5-2.4-8-4c-0.6-0.4-1.3-0.9-2.1-0.7c-0.7,0.1-1.2,0.8-1.5,1.4
		C-12.5,25.4-12.5,26.8-12.4,28.1z"/>
	<linearGradient id="SVGID_5_" gradientUnits="userSpaceOnUse" x1="5.7357" y1="-42.3689" x2="-104.6978" y2="198.0789">
		<stop  offset="0" style="stop-color:#F9C359"/>
		<stop  offset="1" style="stop-color:#28B4AC"/>
	</linearGradient>
	<path class="st4" d="M-40.3,47.1c0.8,0.8,2.2,0.9,3.4,0.8c3.9-0.5,7.4-2.6,10.8-4.7c1.1-0.7,2.3-1.7,1.7-3c-1.3-0.5-2-0.8-3.3-1.3
		c-2.8,1-5.8-1-8.9-0.8c-1.3,0.1-2.6,0.5-3.4,1.6c-0.8,1.1-1,2.5-1,3.9C-41.2,44.7-41.2,46.2-40.3,47.1z"/>
	<linearGradient id="SVGID_6_" gradientUnits="userSpaceOnUse" x1="10.2452" y1="-36.5674" x2="-96.4691" y2="195.7826">
		<stop  offset="0" style="stop-color:#F9C359"/>
		<stop  offset="1" style="stop-color:#28B4AC"/>
	</linearGradient>
	<path class="st5" d="M13.9-54.6c-1.1,0.4-1.7,1.6-2,2.8C10.8-48,11.4-44,12-40.1c0.2,1.1,0.5,2.4,1.5,2.7c1.8-2.3,3.5-4.7,5.3-7
		c0.8-1,1.6-2.1,2-3.3c0.5-1.2,0.5-2.6-0.1-3.8c-0.7-1.2-1.9-1.9-3.1-2.5C16.4-54.5,15.1-55.1,13.9-54.6z"/>
	<linearGradient id="SVGID_7_" gradientUnits="userSpaceOnUse" x1="23.3416" y1="-30.5519" x2="-83.3718" y2="201.7961">
		<stop  offset="0" style="stop-color:#F9C359"/>
		<stop  offset="1" style="stop-color:#28B4AC"/>
	</linearGradient>
	<path class="st6" d="M-15.5,48.1c0.8,0.6,2,0.1,2.9-0.4c2.8-1.7,5.5-3.3,7.9-5.5c0.6-0.6,1.2-1.3,1.1-2.1c-0.1-0.8-1-1.4-1.8-1.5
		c-0.8-0.1-1.7,0.1-2.5,0.2c-2.3,0.3-4.9,0-6.5,1.5c-1.5,1.3-1.6,3.6-1.7,5.6C-16.2,46.6-16.1,47.6-15.5,48.1z"/>
</g>
<g>
	<g>
		
			<linearGradient id="SVGID_8_" gradientUnits="userSpaceOnUse" x1="-17.2245" y1="77.8631" x2="32.1818" y2="77.8631" gradientTransform="matrix(0.4738 -0.1598 0.1598 0.4738 -3.585 -23.3213)">
			<stop  offset="0" style="stop-color:#FFF84A"/>
			<stop  offset="1" style="stop-color:#FFEC38"/>
		</linearGradient>
		<path class="st7" d="M24.1,8.4c2.2,6.5-1.3,13.5-7.8,15.7c-6.5,2.2-13.5-1.3-15.7-7.8C-1.5,9.9,2,2.9,8.5,0.7
			C14.9-1.5,21.9,2,24.1,8.4z"/>
		
			<linearGradient id="SVGID_9_" gradientUnits="userSpaceOnUse" x1="-31.7856" y1="40.4752" x2="-46.8686" y2="52.6558" gradientTransform="matrix(0.9475 -0.3196 0.3196 0.9475 34.7729 -44.3019)">
			<stop  offset="0.4846" style="stop-color:#CC9434"/>
			<stop  offset="0.6795" style="stop-color:#FFEA72"/>
			<stop  offset="0.7638" style="stop-color:#FFE76C"/>
			<stop  offset="0.8718" style="stop-color:#FFDE5C"/>
			<stop  offset="0.9603" style="stop-color:#FFD44A"/>
		</linearGradient>
		<path class="st8" d="M21.6,9.3c1.7,5.1-1,10.6-6.1,12.4c-5.1,1.7-10.6-1-12.4-6.1c-1.7-5.1,1-10.6,6.1-12.4
			C14.4,1.4,19.9,4.1,21.6,9.3z"/>
		
			<linearGradient id="SVGID_10_" gradientUnits="userSpaceOnUse" x1="-43.7725" y1="37.6053" x2="-34.8811" y2="55.461" gradientTransform="matrix(0.9475 -0.3196 0.3196 0.9475 34.7729 -44.3019)">
			<stop  offset="0.4846" style="stop-color:#CC9434"/>
			<stop  offset="0.6795" style="stop-color:#FFEA72"/>
			<stop  offset="0.7638" style="stop-color:#FFE76C"/>
			<stop  offset="0.8718" style="stop-color:#FFDE5C"/>
			<stop  offset="0.9603" style="stop-color:#FFD44A"/>
		</linearGradient>
		<path class="st9" d="M21.6,9.3c1.7,5.1-1,10.6-6.1,12.4c-5.1,1.7-10.6-1-12.4-6.1c-1.7-5.1,1-10.6,6.1-12.4
			C14.4,1.4,19.9,4.1,21.6,9.3z"/>
		
			<linearGradient id="SVGID_11_" gradientUnits="userSpaceOnUse" x1="-33.3443" y1="39.983" x2="-46.0903" y2="54.0138" gradientTransform="matrix(0.9475 -0.3196 0.3196 0.9475 34.7729 -44.3019)">
			<stop  offset="0" style="stop-color:#FFE94A"/>
			<stop  offset="0.3381" style="stop-color:#FCDA34"/>
			<stop  offset="1" style="stop-color:#F5B400"/>
		</linearGradient>
		<path class="st10" d="M21.3,9.4c1.7,4.9-1,10.3-5.9,12c-4.9,1.7-10.3-1-12-5.9c-1.7-4.9,1-10.3,5.9-12C14.3,1.8,19.7,4.4,21.3,9.4
			z"/>
		<path class="st11" d="M9.4,3.4c-4.9,1.7-7.6,7-5.9,12c1.7,4.9,7,7.6,12,5.9c4.9-1.7,7.6-7,5.9-12C19.7,4.4,14.3,1.8,9.4,3.4z
			 M15.4,21.1c-4.8,1.6-10.1-1-11.7-5.8C2,10.5,4.6,5.2,9.4,3.6c4.8-1.6,10.1,1,11.7,5.8C22.8,14.3,20.2,19.5,15.4,21.1z"/>
		<g>
			
				<linearGradient id="SVGID_12_" gradientUnits="userSpaceOnUse" x1="-33.6075" y1="40.0286" x2="-44.452" y2="51.0786" gradientTransform="matrix(0.9475 -0.3196 0.3196 0.9475 34.7729 -44.3019)">
				<stop  offset="0" style="stop-color:#FFDB56"/>
				<stop  offset="9.118795e-03" style="stop-color:#FFDA55"/>
				<stop  offset="0.6822" style="stop-color:#F39A2F"/>
				<stop  offset="1" style="stop-color:#EE8120"/>
			</linearGradient>
			<path class="st12" d="M15.2,11.3L15.2,11.3c0.7-0.5,1.1-1.3,0.7-2.6c-0.4-1.3-1.8-1.8-3-1.4l0,0l-0.4-1.2l-2,0.7L10.9,8L10,8.3
				L9.6,7.1l-2,0.7L8,9L7.6,9.1L7.3,9.2L6.5,9.5l0.7,2L8,11.2L9.6,16l-0.9,0.3l0.7,2l0.9-0.3l0.3-0.1l0.4-0.1l0.4,1.2l2-0.7L13,17.1
				l0.8-0.3l0.4,1.2l2-0.7l-0.4-1.2l0.1,0c1.3-0.5,2.1-1.7,1.6-3.2C17.1,11.5,16.2,11.2,15.2,11.3z M12.5,9.7
				c0.3-0.1,0.7,0.1,0.8,0.4l0,0.1c0.1,0.3,0,0.7-0.3,0.8l-1.7,0.6l-0.5-1.3L12.5,9.7z M12.4,14.9l-0.5-1.4l1.8-0.6
				c0.3-0.1,0.7,0.1,0.8,0.4l0,0.1c0.1,0.4,0,0.7-0.3,0.8L12.4,14.9z"/>
			
				<linearGradient id="SVGID_13_" gradientUnits="userSpaceOnUse" x1="-36.6475" y1="42.0075" x2="-43.2946" y2="51.3615" gradientTransform="matrix(0.9475 -0.3196 0.3196 0.9475 34.7729 -44.3019)">
				<stop  offset="0" style="stop-color:#FFF84A"/>
				<stop  offset="1" style="stop-color:#FFEC38"/>
			</linearGradient>
			<path class="st13" d="M15.1,11.3L15.1,11.3c0.6-0.5,1.1-1.2,0.7-2.5c-0.4-1.2-1.7-1.7-2.9-1.3l0,0l-0.4-1.1L10.6,7l0.4,1.1
				l-0.8,0.3L9.7,7.3L7.8,7.9l0.4,1.1L7.8,9.2L7.5,9.3L6.7,9.6l0.7,1.9l0.8-0.3l1.5,4.6l-0.8,0.3l0.7,1.9l0.8-0.3l0.3-0.1l0.4-0.1
				l0.4,1.1l1.9-0.7L13,16.9l0.8-0.3l0.4,1.1l1.9-0.7L15.7,16l0.1,0c1.3-0.4,2-1.7,1.6-3C16.9,11.6,16,11.2,15.1,11.3z M12.5,9.7
				c0.3-0.1,0.7,0.1,0.8,0.5l0,0.1c0.1,0.4,0,0.8-0.4,0.9l-1.8,0.6l-0.5-1.4L12.5,9.7z M12.3,14.9l-0.5-1.5l2-0.7
				c0.3-0.1,0.7,0.1,0.8,0.5l0,0.1c0.1,0.4,0,0.8-0.4,0.9L12.3,14.9z"/>
		</g>
	</g>
	<g>
		<g>
			
				<linearGradient id="SVGID_14_" gradientUnits="userSpaceOnUse" x1="243.9585" y1="-112.2157" x2="278.0788" y2="-112.2157" gradientTransform="matrix(0.4859 0.1177 -0.1177 0.4859 -80.6064 12.4299)">
				<stop  offset="0" style="stop-color:#FFF84A"/>
				<stop  offset="1" style="stop-color:#FFEC38"/>
			</linearGradient>
			<path class="st14" d="M67.7-9.4C66.6-4.8,62-2,57.4-3.1c-4.6-1.1-7.4-5.7-6.3-10.3c1.1-4.6,5.7-7.4,10.3-6.3
				C66-18.6,68.8-13.9,67.7-9.4z"/>
			
				<linearGradient id="SVGID_15_" gradientUnits="userSpaceOnUse" x1="91.9508" y1="-54.3949" x2="81.5365" y2="-45.9847" gradientTransform="matrix(0.9719 0.2355 -0.2355 0.9719 -36.7049 16.982)">
				<stop  offset="0.4846" style="stop-color:#CC9434"/>
				<stop  offset="0.6795" style="stop-color:#FFEA72"/>
				<stop  offset="0.7638" style="stop-color:#FFE76C"/>
				<stop  offset="0.8718" style="stop-color:#FFDE5C"/>
				<stop  offset="0.9603" style="stop-color:#FFD44A"/>
			</linearGradient>
			<path class="st15" d="M66-9.8c-0.9,3.6-4.5,5.8-8.1,5c-3.6-0.9-5.8-4.5-5-8.1c0.9-3.6,4.5-5.8,8.1-5C64.6-17,66.9-13.4,66-9.8z"
				/>
			
				<linearGradient id="SVGID_16_" gradientUnits="userSpaceOnUse" x1="83.6743" y1="-56.3765" x2="89.8134" y2="-44.0478" gradientTransform="matrix(0.9719 0.2355 -0.2355 0.9719 -36.7049 16.982)">
				<stop  offset="0.4846" style="stop-color:#CC9434"/>
				<stop  offset="0.6795" style="stop-color:#FFEA72"/>
				<stop  offset="0.7638" style="stop-color:#FFE76C"/>
				<stop  offset="0.8718" style="stop-color:#FFDE5C"/>
				<stop  offset="0.9603" style="stop-color:#FFD44A"/>
			</linearGradient>
			<path class="st16" d="M66-9.8c-0.9,3.6-4.5,5.8-8.1,5c-3.6-0.9-5.8-4.5-5-8.1c0.9-3.6,4.5-5.8,8.1-5C64.6-17,66.9-13.4,66-9.8z"
				/>
			
				<linearGradient id="SVGID_17_" gradientUnits="userSpaceOnUse" x1="90.8747" y1="-54.7348" x2="82.074" y2="-45.047" gradientTransform="matrix(0.9719 0.2355 -0.2355 0.9719 -36.7049 16.982)">
				<stop  offset="0" style="stop-color:#FFE94A"/>
				<stop  offset="0.3381" style="stop-color:#FCDA34"/>
				<stop  offset="1" style="stop-color:#F5B400"/>
			</linearGradient>
			<path class="st17" d="M65.8-9.8c-0.8,3.5-4.4,5.6-7.9,4.8c-3.5-0.8-5.6-4.4-4.8-7.9c0.8-3.5,4.4-5.6,7.9-4.8
				C64.5-16.9,66.6-13.3,65.8-9.8z"/>
			<path class="st11" d="M61-17.7c-3.5-0.8-7,1.3-7.9,4.8c-0.8,3.5,1.3,7,4.8,7.9c3.5,0.8,7-1.3,7.9-4.8
				C66.6-13.3,64.5-16.9,61-17.7z M57.9-5.2c-3.4-0.8-5.5-4.3-4.7-7.7c0.8-3.4,4.3-5.5,7.7-4.7c3.4,0.8,5.5,4.3,4.7,7.7
				C64.8-6.4,61.4-4.3,57.9-5.2z"/>
			<g>
				
					<linearGradient id="SVGID_18_" gradientUnits="userSpaceOnUse" x1="90.6929" y1="-54.7032" x2="83.2053" y2="-47.0736" gradientTransform="matrix(0.9719 0.2355 -0.2355 0.9719 -36.7049 16.982)">
					<stop  offset="0" style="stop-color:#FFDB56"/>
					<stop  offset="9.118795e-03" style="stop-color:#FFDA55"/>
					<stop  offset="0.6822" style="stop-color:#F39A2F"/>
					<stop  offset="1" style="stop-color:#EE8120"/>
				</linearGradient>
				<path class="st18" d="M61.5-11L61.5-11c0.6-0.1,1.1-0.3,1.3-1.2c0.2-0.9-0.4-1.7-1.3-1.9l0,0l0.2-0.8l-1.4-0.3l-0.2,0.8
					l-0.6-0.1l0.2-0.8l-1.4-0.3L58.1-15L57.9-15l-0.2-0.1L57-15.2l-0.3,1.4l0.6,0.2l-0.8,3.4l-0.6-0.2L55.5-9l0.6,0.2l0.2,0.1
					l0.3,0.1l-0.2,0.8l1.4,0.3l0.2-0.8l0.6,0.1l-0.2,0.8l1.4,0.3l0.2-0.8l0,0c1,0.2,1.9-0.2,2.1-1.2C62.5-10.1,62.1-10.7,61.5-11z
					 M60.5-12.9c0.2,0.1,0.3,0.3,0.3,0.5l0,0.1c-0.1,0.2-0.3,0.4-0.5,0.3l-1.2-0.3l0.2-1L60.5-12.9z M58.5-9.9l0.2-1l1.3,0.3
					c0.2,0.1,0.3,0.3,0.3,0.5l0,0.1c-0.1,0.3-0.3,0.4-0.5,0.3L58.5-9.9z"/>
				
					<linearGradient id="SVGID_19_" gradientUnits="userSpaceOnUse" x1="88.5939" y1="-53.3368" x2="84.0043" y2="-46.8784" gradientTransform="matrix(0.9719 0.2355 -0.2355 0.9719 -36.7049 16.982)">
					<stop  offset="0" style="stop-color:#FFF84A"/>
					<stop  offset="1" style="stop-color:#FFEC38"/>
				</linearGradient>
				<path class="st19" d="M61.4-11L61.4-11c0.6-0.1,1.1-0.3,1.3-1.2c0.2-0.9-0.4-1.6-1.2-1.9l0,0l0.2-0.8l-1.4-0.3l-0.2,0.8
					l-0.6-0.1l0.2-0.8l-1.4-0.3l-0.2,0.8l-0.3-0.1L57.7-15l-0.6-0.1l-0.3,1.4l0.6,0.1l-0.8,3.2L56-10.5l-0.3,1.4L56.3-9l0.2,0.1
					l0.3,0.1L56.5-8l1.4,0.3l0.2-0.8l0.6,0.1l-0.2,0.8l1.4,0.3L60.1-8l0,0c0.9,0.2,1.8-0.2,2-1.2C62.4-10.2,62-10.7,61.4-11z
					 M60.5-12.9c0.2,0.1,0.4,0.3,0.3,0.6l0,0.1c-0.1,0.3-0.3,0.4-0.5,0.4L59-12.2l0.2-1L60.5-12.9z M58.4-9.9l0.2-1l1.4,0.3
					c0.2,0.1,0.4,0.3,0.3,0.6l0,0.1c-0.1,0.3-0.3,0.4-0.5,0.4L58.4-9.9z"/>
			</g>
		</g>
		<g>
			
				<linearGradient id="SVGID_20_" gradientUnits="userSpaceOnUse" x1="-31.3698" y1="12.5943" x2="2.7457" y2="12.5943" gradientTransform="matrix(0.487 -0.1134 0.1134 0.487 -12.7123 -28.9315)">
				<stop  offset="0" style="stop-color:#FFF84A"/>
				<stop  offset="1" style="stop-color:#FFEC38"/>
			</linearGradient>
			<path class="st20" d="M-9.9-23.1c1.1,4.6-1.8,9.2-6.4,10.2c-4.6,1.1-9.2-1.8-10.2-6.4c-1.1-4.6,1.8-9.2,6.4-10.2
				C-15.6-30.6-11-27.7-9.9-23.1z"/>
			
				<linearGradient id="SVGID_21_" gradientUnits="userSpaceOnUse" x1="-45.8077" y1="10.0904" x2="-56.2224" y2="18.501" gradientTransform="matrix(0.9739 -0.2269 0.2269 0.9739 28.1795 -46.6647)">
				<stop  offset="0.4846" style="stop-color:#CC9434"/>
				<stop  offset="0.6795" style="stop-color:#FFEA72"/>
				<stop  offset="0.7638" style="stop-color:#FFE76C"/>
				<stop  offset="0.8718" style="stop-color:#FFDE5C"/>
				<stop  offset="0.9603" style="stop-color:#FFD44A"/>
			</linearGradient>
			<path class="st21" d="M-11.7-22.7c0.8,3.6-1.4,7.2-5,8.1c-3.6,0.8-7.2-1.4-8.1-5c-0.8-3.6,1.4-7.2,5-8.1
				C-16.2-28.6-12.5-26.3-11.7-22.7z"/>
			
				<linearGradient id="SVGID_22_" gradientUnits="userSpaceOnUse" x1="-54.0845" y1="8.1088" x2="-47.9451" y2="20.4379" gradientTransform="matrix(0.9739 -0.2269 0.2269 0.9739 28.1795 -46.6647)">
				<stop  offset="0.4846" style="stop-color:#CC9434"/>
				<stop  offset="0.6795" style="stop-color:#FFEA72"/>
				<stop  offset="0.7638" style="stop-color:#FFE76C"/>
				<stop  offset="0.8718" style="stop-color:#FFDE5C"/>
				<stop  offset="0.9603" style="stop-color:#FFD44A"/>
			</linearGradient>
			<path class="st22" d="M-11.7-22.7c0.8,3.6-1.4,7.2-5,8.1c-3.6,0.8-7.2-1.4-8.1-5c-0.8-3.6,1.4-7.2,5-8.1
				C-16.2-28.6-12.5-26.3-11.7-22.7z"/>
			
				<linearGradient id="SVGID_23_" gradientUnits="userSpaceOnUse" x1="-46.8839" y1="9.7505" x2="-55.685" y2="19.4387" gradientTransform="matrix(0.9739 -0.2269 0.2269 0.9739 28.1795 -46.6647)">
				<stop  offset="0" style="stop-color:#FFE94A"/>
				<stop  offset="0.3381" style="stop-color:#FCDA34"/>
				<stop  offset="1" style="stop-color:#F5B400"/>
			</linearGradient>
			<path class="st23" d="M-11.9-22.7c0.8,3.5-1.4,7-4.9,7.8c-3.5,0.8-7-1.4-7.8-4.9c-0.8-3.5,1.4-7,4.9-7.8
				C-16.2-28.3-12.7-26.2-11.9-22.7z"/>
			<path class="st11" d="M-19.7-27.5c-3.5,0.8-5.7,4.3-4.9,7.8c0.8,3.5,4.3,5.7,7.8,4.9c3.5-0.8,5.7-4.3,4.9-7.8
				C-12.7-26.2-16.2-28.3-19.7-27.5z M-16.8-15c-3.4,0.8-6.9-1.3-7.7-4.8c-0.8-3.4,1.3-6.9,4.8-7.7c3.4-0.8,6.9,1.3,7.7,4.8
				C-11.2-19.2-13.4-15.8-16.8-15z"/>
			<g>
				
					<linearGradient id="SVGID_24_" gradientUnits="userSpaceOnUse" x1="-47.0657" y1="9.7818" x2="-54.5538" y2="17.4119" gradientTransform="matrix(0.9739 -0.2269 0.2269 0.9739 28.1795 -46.6647)">
					<stop  offset="0" style="stop-color:#FFDB56"/>
					<stop  offset="9.118795e-03" style="stop-color:#FFDA55"/>
					<stop  offset="0.6822" style="stop-color:#F39A2F"/>
					<stop  offset="1" style="stop-color:#EE8120"/>
				</linearGradient>
				<path class="st24" d="M-16.2-21.7L-16.2-21.7c0.5-0.3,0.9-0.8,0.6-1.7c-0.2-0.9-1.1-1.4-2-1.1l0,0l-0.2-0.8l-1.4,0.3l0.2,0.8
					l-0.6,0.1l-0.2-0.8l-1.4,0.3l0.2,0.8l-0.3,0.1l-0.2,0.1l-0.6,0.1l0.3,1.4l0.6-0.1l0.8,3.4l-0.6,0.1l0.3,1.4l0.6-0.1l0.2-0.1
					l0.3-0.1l0.2,0.8l1.4-0.3l-0.2-0.8l0.6-0.1l0.2,0.8l1.4-0.3l-0.2-0.8l0,0c1-0.2,1.6-1.1,1.3-2.1C-15-21.5-15.6-21.7-16.2-21.7z
					 M-18-23c0.2-0.1,0.4,0.1,0.5,0.3l0,0.1c0.1,0.2-0.1,0.5-0.3,0.5l-1.2,0.3l-0.2-1L-18-23z M-18.4-19.4l-0.2-1l1.3-0.3
					c0.2-0.1,0.4,0.1,0.5,0.3l0,0.1c0.1,0.3-0.1,0.5-0.3,0.5L-18.4-19.4z"/>
				
					<linearGradient id="SVGID_25_" gradientUnits="userSpaceOnUse" x1="-49.1648" y1="11.1484" x2="-53.7546" y2="17.6073" gradientTransform="matrix(0.9739 -0.2269 0.2269 0.9739 28.1795 -46.6647)">
					<stop  offset="0" style="stop-color:#FFF84A"/>
					<stop  offset="1" style="stop-color:#FFEC38"/>
				</linearGradient>
				<path class="st25" d="M-16.3-21.7L-16.3-21.7c0.5-0.3,0.8-0.8,0.6-1.7c-0.2-0.9-1.1-1.3-1.9-1.1l0,0l-0.2-0.8l-1.4,0.3l0.2,0.8
					l-0.6,0.1l-0.2-0.8l-1.4,0.3l0.2,0.8l-0.3,0.1l-0.2,0l-0.6,0.1l0.3,1.4l0.6-0.1l0.8,3.3l-0.6,0.1l0.3,1.4l0.6-0.1l0.2,0l0.3-0.1
					l0.2,0.8l1.4-0.3l-0.2-0.8l0.6-0.1l0.2,0.8l1.4-0.3l-0.2-0.8l0,0c0.9-0.2,1.5-1,1.3-2C-15.1-21.4-15.7-21.7-16.3-21.7z M-18-23
					c0.2-0.1,0.5,0.1,0.5,0.4l0,0.1c0.1,0.3-0.1,0.5-0.3,0.6l-1.3,0.3l-0.2-1L-18-23z M-18.5-19.4l-0.2-1l1.4-0.3
					c0.2-0.1,0.5,0.1,0.5,0.4l0,0.1c0.1,0.3-0.1,0.5-0.3,0.6L-18.5-19.4z"/>
			</g>
		</g>
		<g>
			
				<linearGradient id="SVGID_26_" gradientUnits="userSpaceOnUse" x1="-216.0432" y1="131.8035" x2="-170.3624" y2="131.8035" gradientTransform="matrix(0.4078 -0.2893 0.2893 0.4078 8.9049 -90.9498)">
				<stop  offset="0" style="stop-color:#FFF84A"/>
				<stop  offset="1" style="stop-color:#FFEC38"/>
			</linearGradient>
			<circle class="st26" cx="-31.8" cy="18.7" r="11.4"/>
			
				<linearGradient id="SVGID_27_" gradientUnits="userSpaceOnUse" x1="-133.9163" y1="67.0531" x2="-147.8599" y2="78.3135" gradientTransform="matrix(0.8156 -0.5787 0.5787 0.8156 41.0903 -122.1059)">
				<stop  offset="0.4846" style="stop-color:#CC9434"/>
				<stop  offset="0.6795" style="stop-color:#FFEA72"/>
				<stop  offset="0.7638" style="stop-color:#FFE76C"/>
				<stop  offset="0.8718" style="stop-color:#FFDE5C"/>
				<stop  offset="0.9603" style="stop-color:#FFD44A"/>
			</linearGradient>
			<path class="st27" d="M-24.4,13.5c2.9,4.1,1.9,9.7-2.1,12.6c-4.1,2.9-9.7,1.9-12.6-2.1C-42,19.9-41,14.2-37,11.3
				C-32.9,8.5-27.3,9.4-24.4,13.5z"/>
			
				<linearGradient id="SVGID_28_" gradientUnits="userSpaceOnUse" x1="-144.9977" y1="64.4" x2="-136.778" y2="80.9068" gradientTransform="matrix(0.8156 -0.5787 0.5787 0.8156 41.0903 -122.1059)">
				<stop  offset="0.4846" style="stop-color:#CC9434"/>
				<stop  offset="0.6795" style="stop-color:#FFEA72"/>
				<stop  offset="0.7638" style="stop-color:#FFE76C"/>
				<stop  offset="0.8718" style="stop-color:#FFDE5C"/>
				<stop  offset="0.9603" style="stop-color:#FFD44A"/>
			</linearGradient>
			<path class="st28" d="M-24.4,13.5c2.9,4.1,1.9,9.7-2.1,12.6c-4.1,2.9-9.7,1.9-12.6-2.1C-42,19.9-41,14.2-37,11.3
				C-32.9,8.5-27.3,9.4-24.4,13.5z"/>
			
				<linearGradient id="SVGID_29_" gradientUnits="userSpaceOnUse" x1="-135.3572" y1="66.598" x2="-147.1404" y2="79.5691" gradientTransform="matrix(0.8156 -0.5787 0.5787 0.8156 41.0903 -122.1059)">
				<stop  offset="0" style="stop-color:#FFE94A"/>
				<stop  offset="0.3381" style="stop-color:#FCDA34"/>
				<stop  offset="1" style="stop-color:#F5B400"/>
			</linearGradient>
			<path class="st29" d="M-24.6,13.6c2.8,3.9,1.9,9.4-2.1,12.2c-3.9,2.8-9.4,1.9-12.2-2.1c-2.8-3.9-1.9-9.4,2.1-12.2
				C-32.9,8.8-27.4,9.7-24.6,13.6z"/>
			<path class="st11" d="M-36.8,11.6c-3.9,2.8-4.9,8.2-2.1,12.2c2.8,3.9,8.2,4.9,12.2,2.1c3.9-2.8,4.9-8.2,2.1-12.2
				C-27.4,9.7-32.9,8.8-36.8,11.6z M-26.8,25.7c-3.9,2.7-9.2,1.8-11.9-2c-2.7-3.9-1.8-9.2,2-11.9c3.8-2.7,9.2-1.8,11.9,2
				C-22,17.6-23,22.9-26.8,25.7z"/>
			<g>
				
					<linearGradient id="SVGID_30_" gradientUnits="userSpaceOnUse" x1="-135.6007" y1="66.6403" x2="-145.6259" y2="76.8556" gradientTransform="matrix(0.8156 -0.5787 0.5787 0.8156 41.0903 -122.1059)">
					<stop  offset="0" style="stop-color:#FFDB56"/>
					<stop  offset="9.118795e-03" style="stop-color:#FFDA55"/>
					<stop  offset="0.6822" style="stop-color:#F39A2F"/>
					<stop  offset="1" style="stop-color:#EE8120"/>
				</linearGradient>
				<path class="st30" d="M-29.5,17L-29.5,17c0.4-0.6,0.6-1.4-0.1-2.5c-0.7-1-2-1.1-3-0.4l0,0l-0.7-0.9l-1.6,1.1l0.7,0.9l-0.7,0.5
					l-0.7-0.9l-1.6,1.1l0.7,0.9l-0.3,0.2l-0.2,0.2l-0.7,0.5l1.1,1.6l0.7-0.5l2.7,3.8l-0.7,0.5l1.1,1.6l0.7-0.5l0.2-0.2l0.3-0.2
					l0.7,0.9l1.6-1.1l-0.7-0.9l0.7-0.5l0.7,0.9L-27,22l-0.7-0.9l0,0c1.1-0.8,1.4-2.1,0.6-3.2C-27.8,16.7-28.7,16.6-29.5,17z
					 M-32.4,16.3c0.2-0.2,0.6-0.1,0.8,0.2l0.1,0.1c0.2,0.3,0.2,0.6-0.1,0.8l-1.3,0.9l-0.8-1.1L-32.4,16.3z M-31.1,20.9l-0.8-1.1
					l1.5-1c0.3-0.2,0.6-0.1,0.8,0.2l0.1,0.1c0.2,0.3,0.2,0.6-0.1,0.8L-31.1,20.9z"/>
				
					<linearGradient id="SVGID_31_" gradientUnits="userSpaceOnUse" x1="-138.4109" y1="68.4696" x2="-144.5559" y2="77.117" gradientTransform="matrix(0.8156 -0.5787 0.5787 0.8156 41.0903 -122.1059)">
					<stop  offset="0" style="stop-color:#FFF84A"/>
					<stop  offset="1" style="stop-color:#FFEC38"/>
				</linearGradient>
				<path class="st31" d="M-29.6,17L-29.6,17c0.4-0.6,0.6-1.4-0.1-2.4c-0.7-1-2-1.1-2.9-0.4l0,0l-0.6-0.9l-1.5,1.1l0.6,0.9l-0.6,0.5
					l-0.6-0.9L-37,16l0.6,0.9l-0.3,0.2l-0.2,0.2l-0.7,0.5l1.1,1.5l0.7-0.5l2.6,3.6l-0.7,0.5l1.1,1.5l0.7-0.5l0.2-0.2l0.3-0.2
					l0.6,0.9l1.5-1.1l-0.6-0.9l0.6-0.5l0.6,0.9l1.5-1.1l-0.6-0.9l0,0c1-0.7,1.4-2,0.6-3.1C-28,16.8-28.9,16.7-29.6,17z M-32.4,16.3
					c0.3-0.2,0.6-0.1,0.8,0.2l0.1,0.1c0.2,0.3,0.2,0.7-0.1,0.9l-1.4,1l-0.8-1.1L-32.4,16.3z M-31.2,21l-0.8-1.2l1.6-1.1
					c0.3-0.2,0.6-0.1,0.9,0.2l0.1,0.1c0.2,0.3,0.2,0.7-0.1,0.9L-31.2,21z"/>
			</g>
		</g>
	</g>
</g>
</svg>
