<svg width="11" height="9" viewBox="0 0 11 9" fill="none" xmlns="http://www.w3.org/2000/svg">
<path d="M9.96875 0.71875H1.03125C0.841113 0.71875 0.6875 0.872363 0.6875 1.0625V7.9375C0.6875 8.12764 0.841113 8.28125 1.03125 8.28125H9.96875C10.1589 8.28125 10.3125 8.12764 10.3125 7.9375V1.0625C10.3125 0.872363 10.1589 0.71875 9.96875 0.71875ZM9.10078 1.88857L5.71162 4.52578C5.62783 4.59131 5.51074 4.59131 5.42695 4.52578L2.03672 1.88857C2.02394 1.87871 2.01456 1.8651 2.00991 1.84964C2.00526 1.83418 2.00556 1.81765 2.01077 1.80238C2.01598 1.7871 2.02584 1.77383 2.03897 1.76444C2.0521 1.75505 2.06784 1.75 2.08398 1.75H9.05352C9.06966 1.75 9.0854 1.75505 9.09853 1.76444C9.11166 1.77383 9.12152 1.7871 9.12673 1.80238C9.13194 1.81765 9.13224 1.83418 9.12759 1.84964C9.12294 1.8651 9.11356 1.87871 9.10078 1.88857Z" fill="#584A45"/>
</svg>
