<svg width="80" height="80" viewBox="0 0 80 80" fill="none" xmlns="http://www.w3.org/2000/svg">
<path d="M16.0494 60.8359C15.5362 60.8359 14.7045 60.2873 14.1383 59.5618C13.7667 59.1017 13.2181 58.1993 13.6605 57.3499C13.7844 57.1553 13.8905 56.9606 14.0144 56.766L14.0852 56.6421L17.1288 59.7034L17.0757 59.7741C16.9518 59.9688 16.8456 60.1634 16.7218 60.3581C16.6333 60.4996 16.474 60.7297 16.1732 60.8182C16.1378 60.8359 16.1024 60.8359 16.0494 60.8359ZM14.1206 57.0137C14.0321 57.1729 13.9436 57.3145 13.8552 57.4561C13.4836 58.1816 13.979 58.9956 14.3152 59.4025C14.9346 60.1811 15.7839 60.6589 16.1378 60.5704C16.3502 60.5173 16.4564 60.3404 16.5448 60.2165C16.6333 60.0573 16.7395 59.898 16.8456 59.7211L14.1206 57.0137Z" fill="white"/>
<path d="M68.9939 7.92714C68.87 7.92714 68.7461 7.90945 68.5692 7.82097C68.5515 7.82097 67.5959 7.21933 67.6313 6.74156C67.6313 6.63539 67.7021 6.49383 67.9321 6.40535C68.056 6.36996 68.1445 6.35227 68.233 6.31687C68.286 6.29918 68.3391 6.28148 68.4099 6.26379L68.4807 6.24609L69.914 7.67941L69.7194 7.73249C69.5778 7.76788 69.4362 7.82097 69.2947 7.85636C69.2239 7.90945 69.1177 7.92714 68.9939 7.92714ZM68.4099 6.52922C68.3568 6.54691 68.3214 6.54691 68.286 6.56461C68.1976 6.5823 68.1268 6.6 68.0029 6.63539C67.8614 6.68847 67.8614 6.74156 67.8614 6.75926C67.8437 7.02468 68.5338 7.53785 68.6753 7.60863C68.9231 7.73249 69.1 7.67941 69.2062 7.64402C69.2947 7.60863 69.3655 7.59093 69.4539 7.57324L68.4099 6.52922Z" fill="white"/>
<path d="M63.7388 11.7315L63.6857 11.643C63.2787 10.9883 62.8718 10.3335 62.4648 9.67882L62.1816 9.21875L62.624 9.51957C63.3495 9.99734 64.0573 10.4751 64.7828 10.9529L64.9421 11.059L64.7651 11.1475C64.4643 11.3245 64.1458 11.5014 63.8273 11.6784L63.7388 11.7315ZM62.9425 9.99734C63.2434 10.4751 63.5265 10.9352 63.8096 11.413C64.0396 11.2891 64.2697 11.1475 64.482 11.0237C63.9689 10.6874 63.4557 10.3335 62.9425 9.99734Z" fill="white"/>
<path d="M47.7059 24.6844C46.5203 24.6844 45.6355 23.3927 45.5293 23.145C45.1401 22.331 45.2816 21.7293 46.0248 21.0392C46.2725 20.8269 46.538 20.5968 46.7857 20.3845L46.8742 20.3137L49.9178 23.375L49.8293 23.4635C49.5815 23.6758 49.3338 23.8882 49.0684 24.1182C48.8207 24.3128 48.3783 24.6668 47.7412 24.6844C47.7235 24.6844 47.7059 24.6844 47.7059 24.6844ZM45.7417 23.0565C45.8302 23.2334 46.6618 24.4544 47.7059 24.4544H47.7236C48.2721 24.4544 48.6791 24.1182 48.8914 23.9412C49.1038 23.7466 49.3338 23.5696 49.5462 23.375L46.8388 20.6499C46.6088 20.8446 46.3964 21.0392 46.1664 21.2339C45.5117 21.8355 45.3878 22.331 45.7417 23.0565Z" fill="white"/>
<path d="M12.5649 66.8523L12.4056 66.6577C11.7155 65.7906 11.4501 65.4721 10.7954 64.6581L10.176 63.8972L10.9546 64.4989C11.7509 65.1182 11.8394 65.189 12.7241 65.8614L12.7949 65.9145L12.7772 65.9852C12.7241 66.1976 12.671 66.4099 12.618 66.6223L12.5649 66.8523ZM11.5916 65.2774C11.8571 65.5959 12.0871 65.8968 12.441 66.3214C12.4587 66.2153 12.4941 66.1091 12.5295 65.9852C12.0871 65.649 11.8394 65.4721 11.5916 65.2774Z" fill="white"/>
<path d="M16.7043 80L0 63.2957L23.57 39.7257L0.548551 16.7043L17.2528 0L40.2743 23.0215L62.7472 0.548551L67.8611 5.66246L67.6664 5.71555C67.4718 5.76864 67.2595 5.83942 67.0471 5.9102C66.994 5.92789 66.9409 5.96328 66.9056 5.98098C66.7817 6.06945 66.7463 6.19332 66.7817 6.37027C66.9232 7.07808 68.0911 8.1044 68.9405 8.26366L69.1175 8.29905L69.0113 8.44061C68.8697 8.65295 69.3475 9.2015 69.8253 9.71467C70.2499 10.1747 70.4623 10.4225 70.5508 10.5817C70.6923 10.5286 70.8162 10.4756 70.9578 10.4225C70.7985 10.2278 70.6392 10.0332 70.4446 9.85623C70.1969 9.5908 69.9314 9.32537 69.7368 9.00686C69.6483 8.8476 69.6129 8.72373 69.666 8.61756C69.7191 8.476 69.8606 8.42292 69.9491 8.38753L70.0907 8.35213C70.1792 8.31674 70.2499 8.29905 70.3738 8.26366L70.4446 8.24596L72.2672 10.0686L79.4514 17.2528L56.9785 39.7257L80 62.7472L63.2957 79.4514L40.2743 56.43L16.7043 80ZM0.336209 63.2957L16.7043 79.6638L40.2743 56.0938L63.2957 79.1152L79.6638 62.7472L56.6423 39.7257L79.1329 17.2528L70.3738 8.4937C70.303 8.51139 70.2323 8.52909 70.1615 8.56448L70.0376 8.59987C69.9845 8.61756 69.9137 8.65295 69.896 8.68834C69.896 8.70604 69.8783 8.75912 69.9491 8.88299C70.1261 9.18381 70.3561 9.43154 70.6215 9.69697C70.8339 9.92701 71.0639 10.157 71.2409 10.4225L71.3294 10.5463L71.1878 10.5994C70.9754 10.6702 70.7631 10.7587 70.5508 10.8472L70.4446 10.9002L70.4092 10.7941C70.3561 10.6525 70.1792 10.4225 69.6837 9.89162C69.0644 9.2192 68.7282 8.79451 68.7812 8.476C67.8788 8.22827 66.7463 7.18425 66.587 6.42336C66.5163 6.06945 66.6578 5.8925 66.7994 5.78633C66.8702 5.73324 66.9586 5.69785 66.994 5.69785C67.1533 5.64477 67.2948 5.60938 67.4364 5.55629L62.7472 0.867065L40.2743 23.3577L17.2528 0.336209L0.867065 16.7043L23.8885 39.7257L0.336209 63.2957ZM14.4747 71.7717L13.6253 70.9224C13.466 70.71 13.3422 70.4623 13.2714 70.1792L12.599 69.4891C12.6167 69.5244 12.6344 69.5598 12.6698 69.5952L12.4928 69.7368L11.7142 68.9582C11.5727 68.7459 11.4665 68.5158 11.3957 68.2681L10.8472 67.7195C10.8825 67.7726 10.9179 67.8257 10.9533 67.8611L10.7764 68.0203L9.9624 67.2064C9.73236 66.8879 9.5908 66.5163 9.52002 66.0739L9.48463 65.8438C9.41385 65.3838 9.43154 64.8352 9.53771 64.2159L9.5731 63.9858L10.6171 65.0476L10.5994 65.1006C10.564 65.2953 10.5463 65.4899 10.5286 65.6669L13.9084 69.0644C12.7582 67.6664 11.4311 66.0562 9.64388 63.8089L9.60849 63.7735L9.62619 63.7204C9.66158 63.5435 9.71467 63.3665 9.76775 63.1719L9.82084 63.0126L9.9624 63.1188C10.8472 63.7735 11.8027 64.5167 13.0237 65.4015C12.9706 65.3484 12.9175 65.2953 12.8644 65.2599L12.8113 65.2068L12.829 65.136C12.8998 64.9414 12.9706 64.7467 13.0414 64.5344L13.0944 64.3751L13.2183 64.4813C13.9084 65.0829 14.1562 65.0653 14.2269 65.0122C14.3331 64.9591 14.3508 64.7821 14.3508 64.6406C14.2977 63.7204 12.7405 62.0394 11.8735 61.7916C11.6788 61.7386 11.555 61.7562 11.4842 61.8447C11.3957 61.9686 11.2541 62.3402 11.962 63.2073L11.9973 63.2603L11.9797 63.3311C11.9089 63.5258 11.8381 63.7204 11.7673 63.9151L11.6965 64.1097L11.5727 63.9682C10.0332 62.2517 10.2809 61.2785 10.3871 61.0131V60.9954C10.5994 60.6061 10.9356 60.4291 11.378 60.4822C12.8113 60.6414 14.8994 62.9772 15.3417 64.5521C15.5364 65.2599 15.4479 65.8969 15.1117 66.18C14.9347 66.3393 14.5808 66.4455 13.9969 66.1447C14.2446 66.3216 14.4924 66.5163 14.7755 66.7109L14.8463 66.764L14.8109 66.8525C14.7401 67.0471 14.6693 67.2418 14.6162 67.4364L14.5632 67.5957L14.4393 67.4895C14.1208 67.2595 13.82 67.0117 13.5014 66.7817C13.4307 67.0117 13.3776 67.2418 13.3422 67.4541C13.6607 67.8434 13.9615 68.215 14.28 68.6043L14.3154 68.6397L14.2977 68.6928C14.2623 68.8697 14.2446 69.029 14.2269 69.1882L14.2092 69.4006V69.4537C14.1916 69.5952 14.1916 69.7368 14.1916 69.8783V70.1615L10.5286 66.4632C10.5286 66.534 10.5463 66.6047 10.5463 66.6755L10.5817 66.8702L14.2623 70.5685V70.6039C14.3154 71.0108 14.457 71.3647 14.6516 71.6302L14.4747 71.7717ZM13.8023 70.7808L14.1208 71.0993C14.0854 70.9577 14.05 70.8162 14.0323 70.6746L13.5014 70.1438C13.5545 70.3738 13.6607 70.6039 13.8023 70.7808ZM10.2632 65.8615L13.9615 69.5775C13.9615 69.5421 13.9615 69.5068 13.9615 69.4714L10.2809 65.7731V65.72C10.2986 65.543 10.3163 65.3307 10.3517 65.136L9.71467 64.499C9.64388 64.9768 9.64388 65.4192 9.69697 65.7908L10.2809 66.3747C10.2809 66.3039 10.2809 66.2331 10.2809 66.1624L10.2632 65.8615ZM11.6081 68.2327C11.6788 68.4627 11.7673 68.6574 11.8735 68.8343L12.1743 69.1351C12.1743 69.1175 12.1566 69.0821 12.1566 69.0644L12.0681 68.7105L11.6081 68.2327ZM9.83853 63.7027C11.5904 65.8969 12.8821 67.4895 14.0146 68.852C14.0323 68.7989 14.0323 68.7282 14.05 68.6574C13.7315 68.2681 13.413 67.8965 13.1121 67.5072L13.0768 67.4718L13.0944 67.4187C13.1475 67.1356 13.236 66.8348 13.3245 66.5163L13.3776 66.357L13.5191 66.4632C13.8376 66.6932 14.1385 66.9409 14.457 67.171C14.4924 67.0471 14.5278 66.9409 14.5808 66.8171C12.5636 65.3661 11.148 64.3221 9.90931 63.3842C9.89162 63.4904 9.85623 63.5965 9.83853 63.7027ZM9.80314 66.4101C9.87392 66.6578 9.98009 66.8702 10.104 67.0471L10.4048 67.3479C10.3871 67.3125 10.3871 67.2772 10.3694 67.2418L10.2809 66.8879L9.80314 66.4101ZM13.0237 65.1183C13.2891 65.3661 13.6784 65.7023 14.0854 65.9146C14.3508 66.0562 14.7047 66.1624 14.9347 65.9854C15.2002 65.7731 15.2533 65.2068 15.094 64.6052C14.6339 62.9949 12.5636 60.8361 11.3249 60.6945C10.971 60.6591 10.7233 60.783 10.564 61.0838C10.4756 61.3139 10.2809 62.1278 11.5727 63.6319C11.6081 63.5258 11.6611 63.4019 11.6965 63.2957C10.9887 62.411 11.0595 61.9332 11.2541 61.6855C11.3426 61.5616 11.5196 61.4377 11.8912 61.5439C12.8467 61.827 14.457 63.5612 14.5278 64.6052C14.5278 64.7467 14.5278 65.0829 14.28 65.2068C14.0323 65.3307 13.6607 65.1714 13.1475 64.7467C13.1121 64.8883 13.0768 64.9945 13.0237 65.1183ZM15.9611 64.1274L11.2541 59.4028L11.2895 59.332C11.4134 59.102 11.5373 58.8542 11.6611 58.6242L11.7319 58.4826L16.4388 63.2073L16.4035 63.278C16.2796 63.5258 16.1557 63.7558 16.0319 63.9858L15.9611 64.1274ZM11.5373 59.3497L15.8903 63.7381C15.9788 63.5789 16.0495 63.4019 16.138 63.2426L11.785 58.8542C11.7142 59.0135 11.6257 59.1727 11.5373 59.3497ZM16.2973 62.004C16.1911 62.004 16.0672 61.9863 15.9611 61.9686C14.4039 61.6147 12.6698 59.0843 12.5105 58.0403C12.4043 57.2971 12.6521 56.837 12.7759 56.6246C13.0591 56.1469 13.3599 55.6514 13.6784 55.1559L13.7492 55.0321L18.4384 59.7567L18.3853 59.8275C18.0668 60.3229 17.766 60.8184 17.4829 61.2962C17.182 61.7562 16.775 62.004 16.2973 62.004ZM12.9706 56.7308C12.8644 56.9255 12.6344 57.3324 12.7405 58.0049C12.8821 58.9781 14.5632 61.42 15.9965 61.7386C16.5273 61.8624 16.9697 61.6678 17.3059 61.1723C17.5713 60.7299 17.8545 60.2522 18.1553 59.7744L13.7846 55.386C13.5014 55.8461 13.2183 56.3061 12.9706 56.7308ZM18.6507 59.4205L13.9615 54.6959L14.0146 54.6251C14.1916 54.3597 14.3508 54.0942 14.5455 53.8111L14.6162 53.6872L17.3236 56.4123C16.9343 55.4921 16.3327 54.0765 15.6249 52.2893L15.6072 52.2362L15.6426 52.1831C15.8549 51.8823 16.0672 51.5815 16.2796 51.2807L16.3681 51.1568C16.5981 50.8206 16.8458 50.4844 17.0936 50.1482L17.1467 50.0774L17.2705 50.1128C17.9252 50.3252 18.5446 50.5375 19.5355 50.856C19.217 50.0066 18.9869 49.4227 18.5623 48.2548L18.5446 48.2017L18.58 48.1486C18.8631 47.7947 19.1285 47.4231 19.4293 47.0515L19.5709 46.8746L19.6417 47.0869C20.0664 48.3433 20.4733 49.5466 21.1458 51.4576L22.9684 53.2803L22.9153 53.3687C22.6852 53.6695 22.4552 53.9881 22.2252 54.2889L22.1367 54.395L20.3141 52.5724C19.1816 52.2185 18.173 51.9 16.5804 51.3692L21.0573 55.8814L21.0042 55.9699C20.7919 56.253 20.5972 56.5362 20.4026 56.8193L20.3141 56.9255L17.589 54.1827C17.9783 55.1559 18.5446 56.5539 19.3055 58.3411L19.3232 58.3942L19.2878 58.4472C19.1108 58.7304 18.9162 59.0135 18.7392 59.2789L18.6507 59.4205ZM14.2446 54.6782L18.5977 59.0666C18.7392 58.8542 18.8808 58.6242 19.0223 58.3942C18.1199 56.2884 17.5006 54.7136 17.1113 53.7757L16.8989 53.2449L17.3059 53.6342L20.2433 56.5892C20.4026 56.3769 20.5441 56.1469 20.7034 55.9168L16.3504 51.5284C16.1734 51.7762 15.9965 52.0239 15.8372 52.2716C16.7043 54.4304 17.3944 56.023 17.7483 56.8901L17.9783 57.4563L14.6162 54.0765C14.5101 54.2712 14.3685 54.4658 14.2446 54.6782ZM16.6158 51.1745C18.2261 51.7054 19.2347 52.0239 20.3672 52.3778H20.4026L22.0659 54.0588C22.2429 53.8111 22.4198 53.5811 22.6145 53.3333L20.898 51.5815C20.2433 49.7412 19.854 48.5733 19.447 47.3877C19.217 47.6709 19.0046 47.9717 18.7746 48.2548C19.217 49.4581 19.447 50.042 19.7832 50.9622L19.8894 51.2276L19.6594 51.1568C18.5623 50.8029 17.8898 50.5729 17.1997 50.3605C17.0051 50.6437 16.8104 50.9091 16.6158 51.1745ZM23.6585 51.3869C23.6408 51.3869 23.6054 51.3869 23.5877 51.3869C22.6322 51.3338 22.0305 50.3959 21.9597 50.2898C21.4112 49.405 21.8359 48.3964 22.2429 47.4408C22.4552 46.9454 22.6852 46.4322 22.526 46.1491C22.4729 46.0429 22.349 45.9721 22.1721 45.9367C21.9951 45.9014 21.7828 46.0075 21.5881 46.2022C21.3227 46.4853 21.1812 46.8746 21.2519 47.1577C21.305 47.3701 21.3758 47.4762 21.5174 47.6709L21.5704 47.7416L21.5174 47.8124C21.2696 48.1133 21.0396 48.4318 20.7919 48.7326L20.7034 48.8388L20.6149 48.7326C19.4116 47.3877 19.9071 46.1845 20.5087 45.4236C21.3758 44.415 22.1721 44.3796 22.6676 44.5388C23.4108 44.7689 23.9593 45.5474 24.0301 46.1491C24.1009 46.7153 23.8885 47.2639 23.6054 47.9363C23.2869 48.7149 23.0922 49.1927 23.1276 49.4227C23.163 49.5996 23.34 49.8474 23.57 49.9182C23.8177 49.9889 24.1009 49.8474 24.3663 49.5289C25.0741 48.6441 24.5609 48.0602 24.3486 47.7947L24.2778 47.724L24.3486 47.6532C24.614 47.317 24.8971 46.9985 25.1626 46.6622L25.2511 46.5561L25.3395 46.6622C26.4543 47.9186 26.1358 49.1219 25.8527 49.7235C25.428 50.6614 24.4548 51.3869 23.6585 51.3869ZM22.119 45.7067C22.1544 45.7067 22.2075 45.7067 22.2429 45.7244C22.4906 45.7775 22.6676 45.8837 22.756 46.0606C22.9507 46.4322 22.7029 46.9985 22.4729 47.547C22.0836 48.4495 21.6766 49.3873 22.1721 50.1836C22.2252 50.2721 22.7737 51.1214 23.6054 51.1568C24.3309 51.1922 25.2511 50.5021 25.6757 49.6173C25.9412 49.0865 26.2243 48.0248 25.3041 46.91C25.0741 47.1754 24.8618 47.4585 24.6317 47.724C24.8795 48.0248 25.3572 48.7326 24.5963 49.6704C24.1893 50.1836 23.8 50.219 23.57 50.1482C23.2161 50.0597 22.9861 49.7235 22.9507 49.4758C22.8976 49.175 23.0745 48.7326 23.4284 47.8655C23.6939 47.2108 23.9062 46.6976 23.8354 46.1845C23.7647 45.6536 23.2869 44.9812 22.6322 44.7689C22.0128 44.5742 21.3404 44.8573 20.7211 45.5828C20.1725 46.2553 19.7478 47.2993 20.7211 48.4848C20.9157 48.2371 21.1104 47.9894 21.2873 47.7593C21.1635 47.6001 21.0927 47.4585 21.0396 47.2285C20.9334 46.8215 21.1635 46.3437 21.4289 46.0606C21.6412 45.8129 21.889 45.7067 22.119 45.7067ZM28.4185 46.503L23.7293 41.7784L23.8 41.6899C24.0832 41.3537 24.3663 41.0352 24.6494 40.699L24.7379 40.6105L27.5514 43.4417C27.286 42.4331 26.879 40.8936 26.3482 38.8587L26.3305 38.8056L26.3658 38.7525C26.6844 38.3986 27.0029 38.0447 27.3391 37.6908L27.4276 37.6023L32.1168 42.3269L32.046 42.4154C31.7452 42.7516 31.4267 43.0878 31.1259 43.424L31.0374 43.5125L28.2061 40.6636C28.4539 41.6722 28.8609 43.2648 29.4094 45.2643L29.4271 45.3174L29.3917 45.3705C29.0909 45.7067 28.7901 46.0606 28.507 46.3968L28.4185 46.503ZM24.0478 41.7784L28.4185 46.1668C28.6662 45.866 28.9317 45.5828 29.1794 45.282C28.5601 42.9993 28.1177 41.2652 27.8876 40.3274L27.7815 39.9204L31.0374 43.194C31.2851 42.9109 31.5505 42.6277 31.7983 42.3446L27.4276 37.9385C27.1444 38.257 26.8613 38.5578 26.5959 38.8764C27.1798 41.1944 27.6222 42.8224 27.8876 43.8133L27.9938 44.238L24.7379 40.9644C24.5079 41.2298 24.2778 41.5129 24.0478 41.7784ZM32.4884 41.9199L29.8695 39.2833L29.9403 39.1949C30.5596 38.5224 31.1966 37.8323 31.8337 37.1599L31.9221 37.0714L32.8246 37.9739L32.7538 38.0624C32.4353 38.3986 32.1345 38.7171 31.8337 39.0533C32.4176 39.4957 32.9131 39.3895 33.2493 39.2126C33.8332 38.9117 34.2402 38.1685 34.1871 37.5492C34.1163 36.806 33.3024 35.7089 32.3645 35.4081C31.7452 35.2135 31.1612 35.4081 30.7012 35.9743C30.2765 36.4875 30.2411 37.0007 30.5596 37.5492L30.6127 37.62L30.5596 37.6908C30.2411 38.027 29.9226 38.3809 29.6041 38.7171L29.4979 38.8233L29.4094 38.6994C28.1177 36.8591 29.3563 35.3196 29.7633 34.8949C30.8604 33.8332 32.1345 33.5324 33.3731 34.0279C34.6826 34.5587 35.6912 35.9743 35.7266 37.3015C35.7443 37.9916 35.4258 39.071 34.6826 39.8142C34.1871 40.292 33.5855 40.5574 32.9131 40.5751L33.267 41.0883L33.1962 41.159C32.9839 41.3891 32.7892 41.6014 32.5769 41.8315L32.4884 41.9199ZM30.188 39.2833L32.4707 41.5837C32.63 41.4068 32.7892 41.2475 32.9485 41.0706L32.453 40.3274L32.683 40.3451C33.3908 40.3804 33.9925 40.1504 34.5056 39.6549C35.1958 38.9648 35.4966 37.9562 35.4789 37.3192C35.4435 36.0628 34.4879 34.7534 33.267 34.2579C32.1345 33.7978 30.9312 34.081 29.9049 35.0719C29.5333 35.4612 28.4539 36.8237 29.4979 38.4694C29.7633 38.1862 30.0288 37.9031 30.2942 37.62C29.958 37.0184 30.0288 36.4167 30.4888 35.8505C31.1612 35.0542 31.8868 35.0542 32.3999 35.2134C33.4439 35.532 34.311 36.7175 34.3995 37.5492C34.4702 38.2747 33.9925 39.1064 33.3378 39.4426C32.7538 39.7434 32.1345 39.6549 31.5682 39.1772L31.4798 39.1064L31.5682 39.0179C31.8691 38.6817 32.1876 38.3455 32.5061 38.0093L31.9398 37.4254C31.3382 38.027 30.7543 38.664 30.188 39.2833ZM37.1953 36.9299L32.5061 32.2053L32.5946 32.1168C32.9485 31.7629 33.3024 31.3913 33.674 31.0374L33.7624 30.9489L38.4517 35.6735L38.3632 35.762C38.0093 36.1159 37.6377 36.4875 37.2838 36.8414L37.1953 36.9299ZM32.8423 32.2053L37.213 36.5937C37.5138 36.2929 37.8146 35.9743 38.1155 35.6735L33.7447 31.2851C33.4439 31.6036 33.1431 31.9044 32.8423 32.2053ZM38.5932 34.4526C38.5401 34.4526 38.4694 34.4526 38.4163 34.4349C37.6377 34.3464 37.0891 33.7447 36.9299 33.3731C36.5052 32.4884 36.9653 31.639 37.7793 30.365C38.0801 29.9049 38.434 29.3209 38.3101 29.0378C38.257 28.9317 38.1509 28.8609 37.9562 28.8432C37.7262 28.8078 37.4077 28.9493 37.1245 29.2325C36.806 29.5333 36.6114 29.9049 36.6468 30.1703C36.6645 30.4004 36.7529 30.5242 36.8768 30.6835L36.9299 30.772L36.8591 30.8427C36.5229 31.1789 36.1867 31.5152 35.8505 31.8514L35.762 31.9398L35.6735 31.8514C34.5056 30.4888 35.2665 29.2148 36.1159 28.3831C37.443 27.1621 38.4517 27.3391 38.9294 27.5337C39.6372 27.8346 40.0265 28.5424 40.0265 29.0555C40.0265 29.6395 39.6903 30.2234 39.2833 30.8958C38.7525 31.7983 38.4871 32.2407 38.4871 32.4707C38.4871 32.6476 38.6286 32.8246 38.8056 32.8954C39.1241 33.0192 39.5488 32.86 39.9558 32.4707C40.9113 31.5328 40.4335 30.9666 40.2035 30.7012L40.1327 30.6127L40.2035 30.5419C40.5574 30.2057 40.9113 29.8695 41.2652 29.5333L41.3537 29.4448L41.4422 29.5333C42.1677 30.365 42.2915 31.3559 41.7961 32.3291C41.1059 33.5678 39.5842 34.4526 38.5932 34.4526ZM37.8677 28.5954C37.9031 28.5954 37.9385 28.5954 37.9739 28.6131C38.2393 28.6662 38.434 28.7724 38.5048 28.9493C38.6817 29.3386 38.3101 29.9403 37.9562 30.5065C37.1953 31.7275 36.7529 32.5061 37.1245 33.2847C37.2661 33.6032 37.7616 34.134 38.434 34.2048C39.301 34.311 40.8936 33.4439 41.5483 32.1876C41.8668 31.5859 42.0792 30.6835 41.3183 29.7456C41.0175 30.0288 40.7167 30.3119 40.4335 30.595C40.699 30.9135 41.1236 31.6036 40.0973 32.5946C39.4249 33.2493 38.8941 33.1431 38.6994 33.0723C38.4163 32.9662 38.2393 32.7184 38.2216 32.4353C38.2039 32.1522 38.4517 31.7275 39.0533 30.7366C39.4426 30.0995 39.7611 29.5333 39.7611 29.0201C39.7611 28.5777 39.4249 27.9761 38.8056 27.7107C38.0624 27.3922 37.1599 27.6753 36.2398 28.507C35.4789 29.2502 34.7888 30.365 35.7266 31.5505C36.0097 31.2674 36.2929 30.9843 36.576 30.7012C36.4698 30.5596 36.399 30.4004 36.3636 30.1526C36.3106 29.7456 36.6114 29.3033 36.9122 29.0201C37.2484 28.7547 37.5846 28.5954 37.8677 28.5954ZM43.2471 31.1966L42.2561 30.188L42.3446 30.0995C42.6631 29.7987 42.9639 29.5156 43.2648 29.2148C43.7779 28.7193 44.3265 28.2062 44.8573 27.7107L43.9372 26.7728C43.1763 27.463 42.4154 28.1708 41.6545 28.8963L41.566 28.967L40.6282 28.0115L40.7167 27.923C41.4776 27.2152 42.2384 26.4897 42.9993 25.7996L42.1854 24.9679C41.3537 25.7288 40.522 26.5074 39.6903 27.286L39.6019 27.3568L38.6286 26.3658L38.7171 26.2774C39.9381 25.1272 41.336 23.8354 42.557 22.7383L42.6454 22.6676L47.2639 27.2683L47.1754 27.3568C46.4676 27.9938 45.7244 28.737 44.9812 29.4802C44.4503 30.0111 43.9018 30.5596 43.3709 31.0551L43.2471 31.1966ZM42.5923 30.2057L43.2648 30.8781C43.7602 30.4004 44.2734 29.8872 44.7866 29.3917C45.4944 28.6839 46.2199 27.9584 46.8923 27.3568L42.61 23.0745C41.4422 24.1186 40.115 25.3395 38.9471 26.4543L39.6019 27.109C40.4335 26.3305 41.2652 25.5519 42.0969 24.791L42.1854 24.7202L43.3355 25.8704L43.2471 25.9589C42.4862 26.649 41.7253 27.3568 40.9644 28.0823L41.5837 28.7016C42.3446 27.9761 43.1055 27.2683 43.8664 26.5782L43.9549 26.5074L45.2112 27.7638L45.1228 27.8522C44.5565 28.3654 43.9903 28.914 43.4594 29.4271C43.1409 29.6749 42.8755 29.9403 42.5923 30.2057ZM47.4585 25.9589C46.9454 25.9589 46.4322 25.8173 45.9544 25.5519C44.5919 24.7733 43.7956 23.1807 43.9372 22.2075C44.0611 21.2873 44.4503 20.9511 44.6981 20.7211L44.9104 20.5264C45.1935 20.2964 45.4944 20.0133 45.7952 19.7478C46.1845 19.3939 46.6092 19.0223 46.9631 18.7215L47.0515 18.6507L51.7408 23.3754L51.6523 23.4638C51.033 23.9947 50.3959 24.5255 49.7589 25.0741C49.0157 25.658 48.2371 25.9589 47.4585 25.9589ZM44.8927 20.8626L44.8573 20.898C44.6096 21.1104 44.2911 21.4112 44.1672 22.2429C44.0434 23.1276 44.8396 24.6494 46.0783 25.3395C46.8746 25.7819 48.1309 26.065 49.5996 24.8795C50.2013 24.3663 50.8029 23.8531 51.4046 23.34L47.0338 18.9516C46.6976 19.2347 46.326 19.5709 45.9544 19.9071C45.6536 20.1902 45.3528 20.4557 45.0697 20.6857L44.8927 20.8626ZM53.2449 22.2075L52.2539 21.1989L52.3601 21.1104C53.1387 20.4733 53.935 19.854 54.6959 19.2524L53.7403 18.2968C53.0502 18.8454 52.3424 19.3939 51.6346 19.9779L51.5461 20.0487L50.5906 19.0931L50.6968 19.0046C51.4046 18.4384 52.1124 17.8722 52.7848 17.3413L51.9708 16.5096C51.2099 17.0936 50.4313 17.7129 49.6527 18.3499L49.5643 18.4207L48.591 17.4298L48.6972 17.3413C49.8297 16.4211 50.9622 15.5364 52.0416 14.7047L52.1831 14.5985C52.5194 14.3508 52.8379 14.1031 53.1741 13.8553L53.2449 13.8023L53.3156 13.8376C54.3773 14.457 55.5452 15.1648 57.0847 16.0849C56.6777 15.3594 55.9345 14.0854 55.0675 12.599L55.0144 12.5105L55.1029 12.4574C55.4214 12.2274 55.7399 12.015 56.0407 11.785L56.1469 11.7142L56.1646 11.6965C56.4654 11.4842 56.7662 11.2895 57.0493 11.0772L57.2263 10.9533C58.3234 10.2101 59.3851 9.53771 60.376 8.93608L60.4468 8.88299L61.4554 9.90931L61.3316 9.98009C61.0131 10.1747 60.6768 10.3871 60.3406 10.5994L64.0212 14.3331L63.8974 14.4039C63.6142 14.5808 63.3311 14.7578 63.048 14.9524L62.9772 15.0055L59.2966 11.3072C58.9427 11.5373 58.5711 11.785 58.1995 12.0327L58.1287 12.0681L61.8093 15.7664L61.6855 15.8372C61.3847 16.0319 61.1015 16.2442 60.8007 16.4565L60.7122 16.5096L56.3415 12.1035C57.2617 13.6961 58.1464 15.2179 59.3497 17.3413L59.4028 17.4298L59.3143 17.4829C58.9604 17.7306 58.6242 17.996 58.2703 18.2438L58.2172 18.2968L58.1464 18.2614C56.2884 17.1643 54.7313 16.2619 52.3778 14.8994L56.8016 19.3585L56.6954 19.447C55.5806 20.2964 54.4481 21.1989 53.2979 22.119L53.2449 22.2075ZM52.5901 21.2165L53.2626 21.889C54.342 21.0042 55.4214 20.1548 56.4654 19.3585L52.0947 14.9701C51.0683 15.7664 49.9889 16.5981 48.9272 17.4652L49.582 18.1199C50.3605 17.4829 51.1391 16.8635 51.9 16.2796L51.9885 16.2088L53.1387 17.359L53.0325 17.4475C52.3424 17.9783 51.6523 18.5446 50.9445 19.1108L51.5638 19.7301C52.2716 19.1639 52.9794 18.5977 53.6872 18.0491L53.7757 17.9783L55.0498 19.2701L54.9436 19.3585C54.165 19.9602 53.3687 20.5795 52.5901 21.2165ZM52.4663 14.7047C54.802 16.0495 56.3592 16.9697 58.2172 18.0491C58.518 17.8191 58.8188 17.6067 59.1197 17.3944C57.8987 15.2533 57.0139 13.7138 56.0584 12.0858C55.8107 12.2628 55.5629 12.4397 55.2975 12.6167C56.3061 14.3508 57.1201 15.7841 57.4563 16.3681L57.704 16.8104L57.3148 16.5804C55.6337 15.5718 54.3597 14.8109 53.2272 14.1385C52.9794 14.2977 52.714 14.4924 52.4663 14.7047ZM56.3946 11.8381L60.7476 16.2265C60.9777 16.0672 61.2077 15.908 61.4377 15.7487L57.0847 11.3603C56.8547 11.5019 56.6246 11.6611 56.3946 11.8381ZM59.332 11.0064L63.0126 14.7047C63.225 14.5631 63.4373 14.4216 63.6496 14.2977L59.969 10.5994L60.0929 10.5286C60.4291 10.3163 60.7653 10.104 61.0838 9.90931L60.4114 9.23689C59.4736 9.80314 58.4826 10.4402 57.4563 11.1303L58.1287 11.8204C58.5003 11.5727 58.8719 11.3249 59.2258 11.0949L59.332 11.0064ZM64.1451 14.28L64.092 14.1739C63.1188 12.4928 62.2163 10.9179 60.9423 8.77682L60.8892 8.67065L60.9954 8.61756C61.2608 8.45831 61.5262 8.29905 61.7916 8.15749L61.8447 8.1221L61.8978 8.15749C63.7558 9.37846 65.3838 10.4402 67.7195 12.0327L67.7903 12.0858L66.8171 11.1126L66.9586 11.0418C67.5072 10.7587 68.0203 10.5109 68.5335 10.2809L67.5957 9.34307C67.1356 9.55541 66.6401 9.78545 66.127 10.0509L66.0562 10.0863L65.1006 9.13072L65.2422 9.05994C65.72 8.81221 66.1801 8.58217 66.6401 8.38753L65.8261 7.57355C65.313 7.80358 64.7821 8.06901 64.2159 8.35213L64.1451 8.38753L63.1542 7.39659L63.2957 7.32581C64.1274 6.90113 64.906 6.52953 65.6315 6.22871L65.7023 6.19332L70.4092 10.9356L70.2499 11.0064C69.5244 11.3072 68.7282 11.6788 67.8965 12.1035L67.8257 12.1389L67.8611 12.1566L67.6841 12.2451C67.4364 12.3689 67.1887 12.5105 66.9232 12.6521L66.8702 12.6875L66.8171 12.6521C66.4101 12.3689 66.0031 12.1035 65.5784 11.8204C65.2068 12.0327 64.8175 12.2451 64.4282 12.4751C64.6583 12.829 64.8706 13.2006 65.0829 13.5545L65.136 13.6607L65.0299 13.7138C64.7467 13.873 64.4636 14.05 64.1805 14.2269L64.1451 14.28ZM61.2077 8.75912C62.4287 10.8118 63.2957 12.3336 64.2336 13.9615C64.4459 13.82 64.676 13.6961 64.8883 13.5722C64.676 13.2183 64.4459 12.8467 64.2159 12.4928L64.1628 12.3866L64.269 12.3336C64.7113 12.0681 65.1537 11.8204 65.5784 11.5904L65.6492 11.555L65.7023 11.5904C66.1093 11.8735 66.5163 12.1389 66.9409 12.422C67.1179 12.3336 67.2949 12.2274 67.4541 12.1389C65.2245 10.6348 63.6496 9.5908 61.8447 8.42292C61.6324 8.51139 61.42 8.63526 61.2077 8.75912ZM67.2241 11.1834L67.8788 11.8558C68.622 11.4665 69.3475 11.1303 70.0199 10.8472L65.6669 6.47644C65.0122 6.75957 64.3044 7.07808 63.5612 7.46737L64.1982 8.1221C64.7644 7.83897 65.2953 7.57355 65.8084 7.34351L65.8792 7.30812L67.0471 8.476L66.8879 8.54678C66.4455 8.74143 65.9677 8.97147 65.4899 9.2015L66.0916 9.82084C66.6047 9.55541 67.1002 9.32537 67.5603 9.11303L67.6311 9.07764L68.9228 10.3694L68.7635 10.4402C68.3035 10.6525 67.7726 10.9002 67.2241 11.1834Z" fill="white"/>
<path d="M24.6307 16.9342L21.6756 32.8422L15.7654 26.932L17.995 17.1642L15.1638 17.235L10.5984 21.765L5.94458 17.1111L21.3748 1.68091L26.0463 6.37014L22.8966 9.4668C21.4279 10.9355 21.8526 10.4577 20.4723 11.7672L30.364 10.6878L36.2211 16.5449L24.6307 16.9342Z" fill="white"/>
<path d="M34.4707 45.6358L22.8804 34.0454L38.3106 18.6152L43.0529 23.3575L31.6572 34.7533L38.5052 41.6013L34.4707 45.6358Z" fill="white"/>
<path d="M75.0796 55.3857C79.8042 60.1104 79.9988 66.0206 75.1857 70.8336C70.0541 75.9653 64.604 75.7706 59.5609 70.7275L52.7483 63.9148L68.1785 48.4846L75.0796 55.3857ZM61.295 64.658L63.153 66.516C65.4711 68.8341 68.0723 68.5333 70.3904 66.2152C73.0092 63.5963 72.7792 60.8359 70.355 58.4116L68.9394 56.996L61.295 64.658Z" fill="white"/>
<path d="M13.2698 69.8076C13.0752 69.8076 12.5974 69.8076 15.3756 72.5327C18.1714 75.2577 18.2068 74.5676 18.1891 74.4083C18.1537 74.1075 17.7467 73.559 16.9858 72.7273C16.8443 72.745 16.685 72.745 16.5612 72.745C17.269 73.5059 17.269 73.6475 17.2159 73.7359C17.1097 73.7536 16.8974 73.7713 15.6764 72.6211C15.6587 72.6034 13.8538 70.887 13.9953 70.6747C13.9953 70.6747 14.19 70.48 15.2694 71.471C15.411 71.471 15.5525 71.471 15.6941 71.4533C14.3493 70.1615 13.4822 69.8253 13.2698 69.8076Z" fill="white"/>
<path d="M16.8976 71.8955L15.6413 70.6391C15.8005 70.6037 15.9775 70.586 16.1367 70.533C16.4198 70.4799 16.6676 70.5683 17.0038 70.8692C17.0038 70.8692 17.7293 71.4885 17.5346 71.7185C17.4816 71.7716 17.4108 71.7893 17.3577 71.807C17.2161 71.8424 17.0569 71.8601 16.8976 71.8955ZM15.5174 69.719C15.1104 69.8075 14.7388 69.8782 14.4026 69.9136L18.9326 74.4613C19.0918 74.4436 19.2511 74.4259 19.4103 74.3905L17.6408 72.6033C17.7824 72.5856 17.9416 72.5502 18.0832 72.5148C18.2071 72.4971 18.4194 72.4617 18.791 72.7272C19.3926 73.1518 19.835 73.7358 20.419 74.1605C20.6136 74.1074 20.8082 74.0543 21.0029 73.9835C20.8082 73.8773 20.5605 73.665 20.012 73.1341C19.2865 72.444 18.8087 72.0547 18.384 72.0017C18.5079 71.3823 16.5968 69.4889 15.5174 69.719Z" fill="white"/>
<path d="M18.8263 68.5166C18.0654 68.8705 17.3399 69.1536 16.6675 69.3837L21.1975 73.9313C21.8699 73.7013 22.5954 73.4182 23.374 73.0643L22.5423 72.2326C21.9937 72.4803 21.4629 72.7103 20.9497 72.905L19.8349 71.7902C20.295 71.6133 20.7728 71.4186 21.2682 71.2063L20.4896 70.4277C19.9942 70.6577 19.5164 70.8524 19.0563 71.0116L18.0654 70.0207C18.5609 69.8437 19.074 69.6137 19.6226 69.366L18.8263 68.5166Z" fill="white"/>
<path d="M22.9486 70.6752C22.3646 69.7905 22.2938 69.6666 21.7099 68.7465C22.4177 69.2419 23.1255 69.7197 23.8333 70.2152C23.5325 70.3744 23.2494 70.5337 22.9486 70.6752ZM20.9844 67.437C20.7367 67.5786 20.4712 67.7024 20.2412 67.8263C21.2675 69.4366 22.2231 70.923 23.5679 72.9756C23.7979 72.8694 24.028 72.7633 24.2757 72.6394C24.028 72.2501 23.7802 71.8785 23.5325 71.4892C23.9395 71.2946 24.3465 71.0822 24.7712 70.8522C25.1959 71.1353 25.6205 71.4361 26.0452 71.7193C26.3107 71.5777 26.5761 71.4184 26.8415 71.2592C25.2489 70.2506 23.444 69.0827 20.9844 67.437Z" fill="white"/>
<path d="M24.5776 65.313C23.5336 65.9854 22.525 66.587 21.5872 67.1002L22.4365 67.9496C22.7904 67.7549 23.1443 67.5603 23.4982 67.3479L27.1788 71.0462C27.4443 70.887 27.7097 70.7277 27.9751 70.5685L24.2945 66.8702C24.6661 66.6401 25.0377 66.4101 25.427 66.1624L24.5776 65.313Z" fill="white"/>
<path d="M25.6035 64.6401C25.3204 64.8348 25.0373 65.0117 24.7542 65.1887L29.2841 69.7363C29.5672 69.5594 29.8504 69.3647 30.1335 69.1878L25.6035 64.6401Z" fill="white"/>
<path d="M29.4422 61.9863C29.1237 62.2164 28.8052 62.4464 28.4867 62.6764C29.1237 63.7912 29.743 64.8529 30.7339 66.534C29.973 66.0562 28.5751 65.1892 26.6464 63.9682C26.3455 64.1805 26.0447 64.3752 25.7439 64.5698C27.6727 65.7908 29.1768 66.7463 31.5833 68.2504C31.9195 68.0204 32.2557 67.7903 32.5919 67.5426C31.5479 65.7554 30.7162 64.269 29.4422 61.9863Z" fill="white"/>
<path d="M32.8223 59.4031C31.7075 60.2701 30.6281 61.1018 29.5664 61.8804L34.0964 66.4281C35.1758 65.6495 36.2729 64.8001 37.4054 63.9154L36.5737 63.0837C35.7774 63.7207 34.9811 64.3223 34.2026 64.9063L33.0878 63.7915C33.7956 63.2606 34.5034 62.7298 35.2289 62.1635L34.4503 61.3849C33.7248 61.9512 33.017 62.4997 32.3092 63.0129L31.3182 62.022C32.0791 61.4557 32.8577 60.8541 33.654 60.2347L32.8223 59.4031Z" fill="white"/>
<path d="M39.5298 60.7124L36.6632 57.828C36.9109 57.6334 37.1587 57.4211 37.4064 57.2087C39.3706 55.7046 40.9985 58.1819 40.9277 59.0136C40.8923 59.5445 40.4854 59.8984 40.273 60.093C40.0253 60.3054 39.7775 60.5177 39.5298 60.7124ZM36.6986 56.2709C36.0792 56.8017 35.4599 57.2972 34.8406 57.8104L39.3706 62.358C39.9899 61.8625 40.6092 61.3494 41.2286 60.8185C43.989 58.3058 40.6623 55.5454 38.9636 55.4215C37.8311 55.3684 36.9994 56.0231 36.6986 56.2709Z" fill="white"/>
<path d="M42.9805 50.75C41.7773 51.8648 40.574 52.9265 39.3884 53.9705L43.9184 58.5182C45.1217 57.4742 46.3249 56.3771 47.5636 55.2623L46.7319 54.4306C45.8649 55.2269 44.9978 56.0232 44.1307 56.7841L43.0159 55.6693C43.7945 54.9792 44.5731 54.2713 45.3694 53.5635L44.5908 52.7849C43.8122 53.5105 43.0159 54.2006 42.2373 54.8907L41.2464 53.8997C42.0958 53.1566 42.9452 52.378 43.7945 51.5994L42.9805 50.75Z" fill="white"/>
<path d="M61.1529 31.6039C59.4364 33.8158 61.1529 35.3376 62.1615 35.2491C62.6216 35.2137 63.0285 34.9483 63.7717 34.4705C64.3557 34.0989 64.745 33.8512 64.9573 33.8689C65.3997 33.9043 65.9306 34.6121 65.2051 35.4792C64.3911 36.4701 63.7364 35.8862 63.4709 35.6561C63.1878 35.9923 62.9047 36.3285 62.6039 36.6648C64.7273 38.5758 66.6738 35.78 66.6561 34.4352C66.6384 33.3204 65.7182 32.701 65.7005 32.6833C64.8512 32.1348 64.1964 32.5418 63.0993 33.285C62.5154 33.692 61.7722 34.1874 61.5598 33.3204C61.436 32.7895 62.1084 31.834 62.8162 31.9755C62.9932 32.0109 63.1878 32.1702 63.2586 32.2233C63.524 31.9047 63.7717 31.5862 64.0195 31.2854C63.0285 30.4183 62.0553 30.5068 61.1529 31.6039Z" fill="white"/>
<path d="M65.7189 25.9944C65.4712 26.3306 65.2058 26.6845 64.9403 27.0384C65.2765 27.9586 65.542 28.7017 65.9666 29.8873C64.9226 29.5688 64.5333 29.4449 63.3478 29.091C63.0469 29.4626 62.7461 29.8342 62.4453 30.2058C63.5955 30.5067 64.7811 30.8252 66.5506 31.3206L68.3201 33.0902C68.5678 32.7716 68.8156 32.4531 69.0633 32.1346L67.3292 30.3828C66.8514 29.1264 66.4267 27.9232 65.7189 25.9944Z" fill="white"/>
<path d="M68.3902 22.2964C68.1955 22.5795 68.0009 22.8626 67.8062 23.1458L70.8321 26.1893C70.0535 25.9239 68.6025 25.4461 66.603 24.8268C66.3729 25.1453 66.1429 25.4461 65.9128 25.7646L70.4428 30.3123C70.6729 30.0115 70.8852 29.7107 71.0975 29.4276L68.0717 26.3663C68.9387 26.6317 70.3897 27.0918 72.3185 27.7288C72.5309 27.428 72.7255 27.1449 72.9202 26.8618L68.3902 22.2964Z" fill="white"/>
<path d="M73.0075 24.6494L70.1408 21.7651C70.2647 21.5527 70.4063 21.3581 70.5301 21.1634C71.5565 19.7301 73.5029 22.2605 73.6091 23.163C73.6622 23.5877 73.5206 23.8531 73.3967 24.0477C73.2729 24.2424 73.1313 24.437 73.0075 24.6494ZM69.7515 20.2256C69.433 20.7387 69.0968 21.2519 68.7429 21.7651L73.2729 26.3127C73.6268 25.7819 73.963 25.2687 74.2815 24.7732C75.6617 22.2959 71.8573 19.1108 70.5655 19.5355C70.1231 19.6593 69.84 20.084 69.7515 20.2256Z" fill="white"/>
<path d="M71.4513 17.3589C71.3097 17.6066 71.1682 17.8544 71.0266 18.1198L75.5566 22.6675C75.6981 22.402 75.8397 22.1543 75.9813 21.9066L71.4513 17.3589Z" fill="white"/>
<path d="M72.3368 15.3598C71.4521 17.607 75.2389 21.1284 76.5837 20.6152C76.6014 20.6152 78.3886 19.8366 75.8228 16.9346C75.7343 17.147 75.6458 17.3593 75.5397 17.5717C76.8845 19.1465 76.0705 19.5712 75.752 19.5535C74.6018 19.4473 72.4253 16.74 73.2924 16.0499C73.6109 15.8021 74.1064 16.1914 74.2833 16.333C74.3895 16.1206 74.478 15.9083 74.5664 15.696C73.0093 14.3157 72.4607 15.0766 72.3368 15.3598Z" fill="white"/>
<path d="M76.1759 16.0679C75.6627 15.3778 75.1318 14.7053 74.6187 14.0152C75.2203 14.4753 75.5742 14.7407 76.4236 15.3601C76.3528 15.5901 76.2643 15.8378 76.1759 16.0679ZM73.61 12.5996C73.5393 12.7943 73.4862 12.9889 73.3977 13.2012C74.4948 14.6876 75.7512 16.4041 77.503 18.846C77.5915 18.6337 77.6799 18.4036 77.7684 18.209C77.4676 17.802 77.1491 17.3773 76.8483 16.9703C76.9721 16.6341 77.096 16.2979 77.1845 15.9794C77.5384 16.2448 77.8923 16.5279 78.2462 16.7934C78.2993 16.5987 78.3524 16.4041 78.3877 16.2271C76.9544 15.0946 75.5742 14.0506 73.61 12.5996Z" fill="white"/>
<path d="M74.088 10.2808C74.0704 10.8293 73.9465 11.431 73.7695 12.1034L74.6189 12.9527C74.6897 12.705 74.7428 12.475 74.7959 12.2449L78.4765 15.9432C78.5118 15.7663 78.5472 15.607 78.5649 15.4478L74.8843 11.7495C74.9197 11.5371 74.9374 11.3248 74.9374 11.1301L74.088 10.2808Z" fill="white"/>
<path d="M73.946 8.86548C74.0699 9.23708 74.123 9.66176 74.1053 10.1395L78.6353 14.6872C78.653 14.1917 78.5999 13.767 78.4583 13.3955L77.6266 12.5638C77.7151 12.8292 77.7682 13.1123 77.7859 13.4485L76.6711 12.3337C76.6534 12.0329 76.6003 11.7675 76.5295 11.5375L75.751 10.7589C75.8217 11.0066 75.8748 11.272 75.8925 11.5552L74.9016 10.5642C74.8839 10.2457 74.8308 9.96258 74.7423 9.69715L73.946 8.86548Z" fill="white"/>
<path d="M70.0549 6.86558C70.2142 6.83019 70.3911 6.7948 70.5327 6.77711C70.3911 6.60016 69.9488 6.08699 70.1434 5.94543C70.6035 5.60922 73.3639 8.38737 73.3993 8.90053C73.3993 8.90053 73.2931 9.44908 71.7891 8.05116C71.6298 8.06886 71.4705 8.10425 71.2936 8.13964C73.6117 10.2985 74.3018 9.82068 74.3018 9.80299C74.6911 9.46678 72.9392 7.73265 72.1783 6.98945C70.8689 5.75079 69.9311 5.09606 69.3648 5.07837C69.0286 5.13145 68.9224 5.62692 70.0549 6.86558Z" fill="white"/>
<path d="M68.4443 6.38827L69.0814 7.0253L69.683 7.62694C69.7184 7.60924 69.7538 7.60924 69.7715 7.59155L69.683 7.62694L70.3908 8.33475L71.2933 9.2372L72.178 10.122C72.355 10.0689 72.6204 9.9981 72.7974 9.96271L68.2674 5.41504C68.0551 5.46812 67.8427 5.52121 67.6304 5.5743L68.4443 6.38827Z" fill="white"/>
<path d="M59.8981 42.8399C59.5796 43.1761 59.2611 43.53 58.9426 43.8662L54.4126 39.3185C54.7488 38.9646 55.085 38.593 55.4213 38.2391C56.713 38.5222 57.7747 38.7523 58.6241 38.9469L56.5714 36.8943L35.4434 46.6266L40.2388 51.4221L42.6453 50.2542L43.1939 49.9887L45.3704 52.1652L46.5383 53.3331L47.4938 54.2887L47.7769 54.5718L48.1662 54.9611L47.9185 55.4566L46.7329 57.8985L51.5283 62.6939L61.2784 41.5835L60.7298 41.035L60.2167 40.5218C59.3319 40.3272 58.1994 40.0794 56.8723 39.7963L59.8981 42.8399ZM50.1658 52.8023C49.5287 53.4216 48.6794 53.8463 47.8123 53.7047C47.3876 53.634 46.9452 53.4393 46.5206 53.05C46.6267 52.9438 46.7506 52.8377 46.8568 52.7315C47.0868 52.5192 47.3345 52.2891 47.5823 52.0591C47.8477 52.2891 48.4493 52.8023 49.4049 51.9883C49.4226 51.9706 49.4403 51.9529 49.458 51.9352C50.5197 50.9974 49.8827 50.2896 49.5287 50.2542C49.2633 50.2188 48.9979 50.3426 48.3786 50.6789C48.2724 50.7319 48.1485 50.8027 48.0247 50.8735C47.1399 51.3513 46.5736 51.6521 45.972 51.6167C45.8835 51.6167 45.7774 51.599 45.6712 51.5636C45.2111 51.422 44.6626 50.9974 44.4856 50.378C44.3087 49.7764 44.4856 48.9624 45.4412 48.0069C45.5473 47.9007 45.6712 47.7945 45.8128 47.6884C46.3967 47.2283 47.1399 46.9098 47.9185 47.1575C48.2016 47.246 48.4847 47.4052 48.7679 47.653C48.7148 47.7061 48.644 47.7768 48.5909 47.8299C48.3078 48.0953 48.0423 48.3608 47.7592 48.6262C47.6 48.5023 47.4584 48.4139 47.193 48.3785C46.9983 48.3608 46.7683 48.4139 46.556 48.5377C46.0782 48.8032 45.6535 49.3517 45.7066 49.741C45.8481 50.6258 46.7329 50.1126 47.4407 49.7056C47.4761 49.6879 47.4938 49.6702 47.5292 49.6525C48.3078 49.2102 48.9802 48.8385 49.5995 48.8032C49.865 48.7855 50.1127 48.8209 50.3604 48.9447C50.5374 49.0332 50.8028 49.2455 50.9975 49.511C51.1567 49.741 51.2983 50.0241 51.3337 50.3426C51.4044 51.0681 50.9267 52.0591 50.1658 52.8023ZM52.7139 50.1126C52.6608 50.1657 52.59 50.2365 52.5192 50.2896L51.2452 49.0155L48.8386 46.5913L47.9893 45.7419C48.3432 45.388 48.7148 45.0341 49.0687 44.6802L50.2543 45.8658L51.9884 47.6176L53.174 48.8209L53.5809 49.2455C53.3155 49.5287 53.0147 49.8295 52.7139 50.1126ZM57.8809 44.8748C57.7039 44.751 57.4562 44.5917 57.2616 44.4678C57.3854 46.4497 55.5097 47.476 54.4834 47.5645C54.218 47.5822 53.9525 47.5645 53.6694 47.5114C53.2094 47.4229 52.7493 47.2283 52.3423 46.9452C51.7937 46.5736 51.3514 46.0604 51.0682 45.4411C50.8382 44.9279 50.732 44.344 50.8205 43.7246C50.909 43.0699 51.2275 42.3798 51.8291 41.7074C52.2361 41.2827 53.6871 40.0086 55.4213 41.2119C55.1027 41.5481 54.7665 41.902 54.4303 42.2559C53.8464 41.902 53.2801 41.9728 52.7493 42.4683C52.4662 42.7337 52.2892 43.0168 52.183 43.3C52.0238 43.7954 52.1299 44.3086 52.3777 44.7687C52.5546 45.0872 52.7847 45.3703 53.0678 45.618C53.404 45.9188 53.7933 46.1312 54.1472 46.2197C54.2357 46.2374 54.3065 46.255 54.3949 46.255C55.5451 46.3435 57.0492 44.8748 55.8813 43.4769C55.5274 43.8485 55.3151 44.0785 54.9435 44.4501L54.8373 44.344L54.218 43.7069C54.7311 43.1761 55.1735 42.716 55.6513 42.2028C55.7752 42.0613 55.9167 41.9197 56.0583 41.7782L58.5002 44.2378C58.3233 44.4324 58.1109 44.6448 57.8809 44.8748Z" fill="white"/>
<path d="M58.1102 35.2485C57.8094 35.5847 57.5086 35.921 57.2078 36.2572L60.2336 39.3007C59.9859 39.2476 59.6851 39.1769 59.3489 39.1061C59.1188 39.053 58.8711 38.9999 58.6234 38.9468L59.1365 39.46L60.1982 40.5217C60.4637 40.5748 60.6937 40.6279 60.9237 40.681C61.2423 40.7517 61.5077 40.8048 61.7023 40.8579C62.0208 40.504 62.3217 40.1678 62.6402 39.8139L58.1102 35.2485Z" fill="white"/>
</svg>
