<svg width="30" height="30" viewBox="0 0 30 30" fill="none" xmlns="http://www.w3.org/2000/svg">
<path d="M0 0V30H30V0H0ZM10.0716 23.8294H6.55169V11.542H10.0715V23.8294H10.0716ZM8.34638 10.1408C7.16575 10.1408 6.20529 9.25021 6.20529 8.15562C6.20529 7.06103 7.16587 6.17043 8.34638 6.17043C9.52688 6.17043 10.4875 7.06103 10.4875 8.15562C10.4875 9.25021 9.52688 10.1408 8.34638 10.1408ZM23.7947 23.8294H20.1883V16.5422C20.189 16.5273 20.2417 15.3704 19.5857 14.6794C19.2592 14.3353 18.8095 14.1609 18.2488 14.1609C16.8385 14.1609 16.1262 15.1764 15.8243 15.7914V23.8294H12.3044V11.542H15.8242V12.5801C16.9764 11.6453 18.2703 11.1522 19.5744 11.1522C22.9126 11.1522 23.7947 13.7598 23.7947 15.1386V23.8294Z" fill="white"/>
</svg>
