<svg width="663" height="663" viewBox="0 0 663 663" fill="none" xmlns="http://www.w3.org/2000/svg">
<path d="M198.534 444.488L91.5532 535.412C143.677 578.265 212.906 599.935 284.97 589.537C313.748 585.377 340.632 576.404 364.999 563.606C294.999 549.668 234.222 505.942 198.534 444.488Z" fill="white" fill-opacity="0.3"/>
<path d="M177.319 397.055L29.6865 459.818C41.4763 482.092 56.5196 502.169 74.0618 519.612L192.362 433.183C186.459 421.661 181.411 409.601 177.319 397.055Z" fill="white" fill-opacity="0.3"/>
<path d="M174.299 386.807C171.432 376.543 169.033 366.077 167.457 355.258C167.256 353.849 167.138 352.441 166.954 351.015L2.4165 370.521C2.65129 372.45 2.83577 374.379 3.1041 376.325C3.35566 378.203 3.64077 380.082 3.92587 381.96C4.51284 385.633 5.11659 389.307 5.78742 392.946C9.1751 409.668 14.2231 425.669 20.6798 440.865L174.299 386.807Z" fill="white" fill-opacity="0.3"/>
<path d="M165.831 340.532C165.093 331.777 164.824 323.105 164.992 314.484L1.6957 297.779C1.56153 299.104 1.47768 300.463 1.36028 301.788C1.0081 305.662 0.672684 309.536 0.471436 313.428C0.33727 315.994 0.286958 318.577 0.219875 321.16C0.136022 324.011 0.0186267 326.862 0.00185604 329.714C-0.0149147 332.8 0.0857096 335.92 0.152792 339.023C0.219875 341.555 0.236646 344.105 0.354041 346.637C0.404353 347.593 0.488206 348.566 0.555289 349.522L165.831 340.532Z" fill="white" fill-opacity="0.3"/>
<path d="M4.34521 277.719L165.378 304.203C165.847 296.538 166.686 288.94 167.843 281.443L14.4915 234.496C14.3238 235.033 14.1896 235.57 14.0219 236.123C12.2442 242.01 10.651 247.948 9.20872 253.936C8.90685 255.194 8.60497 256.452 8.3031 257.726C6.81051 264.351 5.45208 271.01 4.34521 277.719Z" fill="white" fill-opacity="0.3"/>
<path d="M169.738 270.926C171.147 263.915 172.874 256.988 174.853 250.178L37.3667 178.778C36.6624 180.12 35.9748 181.478 35.2872 182.837C33.6436 186.124 32.0504 189.428 30.5075 192.766C29.5348 194.88 28.5453 196.976 27.6229 199.106C25.6608 203.584 23.816 208.113 22.0718 212.675C21.7364 213.531 21.3842 214.369 21.0488 215.241L169.738 270.926Z" fill="white" fill-opacity="0.3"/>
<path d="M178.527 238.639C180.707 232.316 183.122 226.11 185.805 220.005L68.2929 130.071C67.7059 130.842 67.0854 131.58 66.4984 132.369C65.5928 133.593 64.7208 134.834 63.8151 136.075C58.2808 143.656 53.0148 151.439 48.1345 159.473L178.527 238.639Z" fill="white" fill-opacity="0.3"/>
<path d="M191.288 208.348C194.76 201.438 198.516 194.712 202.608 188.171L109.85 84.9863C109.648 85.154 109.447 85.3217 109.263 85.5062C105.003 89.3639 100.844 93.339 96.7851 97.4147C94.9571 99.2429 93.213 101.155 91.4353 103.033C89.188 105.398 86.9575 107.747 84.7773 110.179C84.0059 111.034 83.2847 111.923 82.53 112.778L191.288 208.348Z" fill="white" fill-opacity="0.3"/>
<path d="M210.005 177.034C214.6 170.476 219.497 164.152 224.713 158.064L157.68 49.1769C157.496 49.2943 157.311 49.4118 157.127 49.5292C152.347 52.4811 147.668 55.5673 143.056 58.754C141.932 59.5256 140.826 60.3307 139.719 61.119C136.046 63.7187 132.44 66.4023 128.885 69.153C128.113 69.74 127.359 70.3438 126.604 70.9476L210.005 177.034Z" fill="white" fill-opacity="0.3"/>
<path d="M237.274 144.361C241.114 140.503 245.105 136.78 249.198 133.174L204.437 25.2761C201.753 26.383 199.103 27.5907 196.437 28.7647C195.095 29.3686 193.737 29.9556 192.395 30.5594C189.594 31.8509 186.811 33.1927 184.043 34.568C183.507 34.8364 182.97 35.1215 182.433 35.3899L237.274 144.361Z" fill="white" fill-opacity="0.3"/>
<path d="M264.544 120.628C268.938 117.324 273.483 114.204 278.111 111.202L253.442 9.34222C252.955 9.45963 252.469 9.54349 251.983 9.6609C250.691 9.97958 249.417 10.3318 248.142 10.6673C244.738 11.5562 241.35 12.4955 237.979 13.4683C236.185 14.005 234.373 14.5249 232.579 15.0784C232.109 15.2294 231.657 15.3971 231.187 15.548L264.544 120.628Z" fill="white" fill-opacity="0.3"/>
<path d="M298.051 99.4945C302.663 97.0793 307.392 94.815 312.189 92.6681L304.793 1.10706C303.954 1.17415 303.099 1.20769 302.26 1.27478C301.355 1.35864 300.466 1.44251 299.56 1.52637C294.445 2.02954 289.33 2.61658 284.198 3.35457L298.051 99.4945Z" fill="white" fill-opacity="0.3"/>
<path d="M335.433 83.678C340.447 82.0343 345.512 80.508 350.677 79.1662L356.631 0.93926C356.295 0.922487 355.977 0.87217 355.641 0.855397C352.975 0.654127 350.308 0.503175 347.642 0.368995C344.036 0.20127 340.414 0.06709 336.774 0L335.433 83.678Z" fill="white" fill-opacity="0.3"/>
<path d="M394.818 6.07165C391.682 5.46784 388.546 4.89757 385.41 4.37762L373.889 74.3022C375.281 74.0841 376.639 73.799 378.048 73.5977C381.972 73.0275 385.88 72.5914 389.771 72.2056L404.193 8.03403C401.074 7.34636 397.955 6.69223 394.818 6.07165Z" fill="white" fill-opacity="0.3"/>
<path d="M442.984 19.2884C440.435 18.3827 437.869 17.4938 435.303 16.6552L417.358 71.0819C422.104 71.149 426.817 71.3838 431.496 71.7193L450.581 22.1398C450.48 22.1062 450.38 22.0559 450.279 22.0223C447.864 21.0663 445.432 20.1606 442.984 19.2884Z" fill="white" fill-opacity="0.3"/>
<path d="M489.472 40.0528L469.246 77.3716C473.774 78.4115 478.235 79.5856 482.679 80.8603L502.737 47.6172C502.486 47.4662 502.217 47.3153 501.966 47.1643C498.88 45.3026 495.744 43.5247 492.608 41.7636C491.551 41.2101 490.511 40.6063 489.472 40.0528Z" fill="white" fill-opacity="0.3"/>
<path d="M543.893 76.9691C543.758 76.8517 543.624 76.7343 543.49 76.6336C542.584 75.8789 541.679 75.1576 540.773 74.4029C540.035 73.7991 539.264 73.2288 538.509 72.625L520.464 95.2008C524.086 96.9283 527.658 98.7398 531.197 100.652L548.354 80.8267C546.844 79.5353 545.385 78.227 543.893 76.9691Z" fill="white" fill-opacity="0.3"/>
<path d="M464.466 218.512L571.447 127.588C519.323 84.7347 450.094 63.0646 378.03 73.4636C349.252 77.6231 322.368 86.5964 298 99.3938C368.001 113.332 428.778 157.058 464.466 218.512Z" fill="white" fill-opacity="0.3"/>
<path d="M485.682 265.945L633.314 203.182C621.524 180.908 606.481 160.832 588.939 143.388L470.638 229.817C476.542 241.34 481.59 253.399 485.682 265.945Z" fill="white" fill-opacity="0.3"/>
<path d="M488.7 276.193C491.568 286.457 493.966 296.923 495.543 307.742C495.744 309.151 495.861 310.56 496.046 311.985L660.6 292.479C660.365 290.55 660.181 288.604 659.912 286.675C659.661 284.797 659.376 282.918 659.091 281.057C658.504 277.384 657.9 273.71 657.229 270.071C653.841 253.349 648.793 237.331 642.337 222.152L488.7 276.193Z" fill="white" fill-opacity="0.3"/>
<path d="M662.847 323.927C662.797 321.411 662.763 318.896 662.646 316.38C662.596 315.424 662.495 314.451 662.445 313.478L497.169 322.468C497.907 331.223 498.176 339.895 498.008 348.516L661.304 365.221C661.438 363.879 661.522 362.538 661.64 361.179C661.992 357.305 662.327 353.447 662.529 349.572C662.663 346.973 662.713 344.356 662.78 341.756C662.864 338.939 662.981 336.121 662.998 333.303C663.015 330.183 662.914 327.047 662.847 323.927Z" fill="white" fill-opacity="0.3"/>
<path d="M497.622 358.797C497.152 366.462 496.314 374.06 495.157 381.558L648.508 428.487C648.676 427.934 648.827 427.38 648.978 426.843C650.739 420.973 652.332 415.035 653.774 409.081C654.076 407.807 654.378 406.532 654.68 405.257C656.189 398.649 657.547 392.007 658.654 385.315C658.654 385.298 658.654 385.298 658.671 385.281L497.622 358.797Z" fill="white" fill-opacity="0.3"/>
<path d="M493.263 392.074C491.854 399.085 490.126 406.012 488.147 412.822L625.634 484.222C626.338 482.88 627.026 481.522 627.713 480.163C629.357 476.876 630.95 473.572 632.493 470.234C633.466 468.121 634.455 466.024 635.378 463.894C637.34 459.416 639.184 454.887 640.945 450.308C641.281 449.453 641.633 448.614 641.968 447.759L493.263 392.074Z" fill="white" fill-opacity="0.3"/>
<path d="M484.474 424.361C482.294 430.684 479.879 436.89 477.195 442.995L594.691 532.929C595.278 532.158 595.915 531.403 596.502 530.632C597.408 529.424 598.263 528.183 599.152 526.975C604.703 519.377 609.986 511.595 614.866 503.544L484.474 424.361Z" fill="white" fill-opacity="0.3"/>
<path d="M471.712 454.652C468.24 461.562 464.484 468.288 460.392 474.829L553.15 578.014C553.352 577.846 553.553 577.678 553.737 577.494C558.014 573.636 562.156 569.661 566.232 565.585C568.06 563.757 569.804 561.845 571.581 559.967C573.812 557.618 576.042 555.254 578.223 552.838C578.994 551.983 579.732 551.094 580.487 550.222L471.712 454.652Z" fill="white" fill-opacity="0.3"/>
<path d="M452.995 485.966C448.4 492.524 443.503 498.848 438.287 504.936L505.303 613.823C505.504 613.706 505.688 613.572 505.89 613.454C510.652 610.519 515.315 607.433 519.927 604.246C521.067 603.458 522.191 602.653 523.314 601.848C526.97 599.248 530.576 596.581 534.115 593.847C534.886 593.26 535.641 592.656 536.395 592.052L452.995 485.966Z" fill="white" fill-opacity="0.3"/>
<path d="M425.727 518.639C421.886 522.497 417.895 526.22 413.803 529.826L458.564 637.724C461.23 636.617 463.863 635.426 466.513 634.252C467.888 633.648 469.263 633.044 470.622 632.424C473.423 631.132 476.19 629.79 478.94 628.432C479.494 628.164 480.03 627.878 480.567 627.61L425.727 518.639Z" fill="white" fill-opacity="0.3"/>
<path d="M398.457 542.372C394.063 545.676 389.518 548.796 384.89 551.798L409.559 653.658C410.046 653.54 410.549 653.457 411.035 653.322C412.327 653.004 413.601 652.652 414.876 652.316C418.28 651.444 421.651 650.488 425.005 649.515C426.816 648.978 428.628 648.458 430.422 647.905C430.892 647.754 431.344 647.586 431.814 647.452L398.457 542.372Z" fill="white" fill-opacity="0.3"/>
<path d="M364.949 563.506C360.338 565.921 355.608 568.185 350.812 570.332L358.208 661.893C359.046 661.826 359.901 661.793 360.74 661.725C361.646 661.642 362.534 661.558 363.44 661.474C368.555 660.971 373.67 660.384 378.802 659.646L364.949 563.506Z" fill="white" fill-opacity="0.3"/>
<path d="M327.566 579.322C322.552 580.966 317.487 582.492 312.322 583.834L306.368 662.061C306.704 662.078 307.022 662.128 307.358 662.145C310.024 662.346 312.691 662.497 315.357 662.631C318.963 662.799 322.585 662.933 326.225 663L327.566 579.322Z" fill="white" fill-opacity="0.3"/>
<path d="M277.591 658.623L289.129 588.698C287.737 588.916 286.379 589.201 284.97 589.402C281.046 589.973 277.138 590.409 273.248 590.795L258.825 654.966C261.927 655.671 265.063 656.325 268.183 656.929C271.319 657.532 274.455 658.103 277.591 658.623Z" fill="white" fill-opacity="0.3"/>
<path d="M220.018 643.712C222.567 644.617 225.133 645.506 227.699 646.345L245.643 591.918C240.897 591.851 236.185 591.616 231.505 591.281L212.42 640.86C212.521 640.894 212.622 640.944 212.722 640.978C215.137 641.934 217.569 642.84 220.018 643.712Z" fill="white" fill-opacity="0.3"/>
<path d="M173.529 622.947L193.771 585.629C189.243 584.589 184.765 583.415 180.338 582.14L160.28 615.383C160.531 615.534 160.783 615.668 161.034 615.819C164.137 617.681 167.256 619.475 170.426 621.22C171.449 621.79 172.489 622.394 173.529 622.947Z" fill="white" fill-opacity="0.3"/>
<path d="M142.553 567.799C138.93 566.072 135.358 564.26 131.82 562.348L114.663 582.173C116.156 583.465 117.632 584.79 119.158 586.065C119.275 586.165 119.392 586.266 119.51 586.366C120.399 587.104 121.304 587.826 122.21 588.564C122.965 589.184 123.753 589.754 124.507 590.375L142.553 567.799Z" fill="white" fill-opacity="0.3"/>
</svg>
