<svg width="10" height="13" viewBox="0 0 10 13" fill="none" xmlns="http://www.w3.org/2000/svg">
<path fill-rule="evenodd" clip-rule="evenodd" d="M1.53521 1.83515C2.45418 0.916177 3.70058 0.399902 5.00021 0.399902C6.29984 0.399902 7.54623 0.916177 8.46521 1.83515C9.38418 2.75413 9.90046 4.00052 9.90046 5.30015C9.90046 6.59978 9.38418 7.84618 8.46521 8.76515L5.00021 12.2302L1.53521 8.76515C1.08015 8.31014 0.719171 7.76994 0.472892 7.17542C0.226612 6.58089 0.0998535 5.94367 0.0998535 5.30015C0.0998535 4.65663 0.226612 4.01942 0.472892 3.42489C0.719171 2.83036 1.08015 2.29017 1.53521 1.83515ZM5.00021 6.70015C5.37151 6.70015 5.72761 6.55265 5.99016 6.2901C6.25271 6.02755 6.40021 5.67145 6.40021 5.30015C6.40021 4.92885 6.25271 4.57275 5.99016 4.3102C5.72761 4.04765 5.37151 3.90015 5.00021 3.90015C4.6289 3.90015 4.27281 4.04765 4.01026 4.3102C3.74771 4.57275 3.60021 4.92885 3.60021 5.30015C3.60021 5.67145 3.74771 6.02755 4.01026 6.2901C4.27281 6.55265 4.6289 6.70015 5.00021 6.70015Z" fill="#584A45"/>
</svg>
