<svg width="14" height="17" viewBox="0 0 14 17" fill="none" xmlns="http://www.w3.org/2000/svg">
<path fill-rule="evenodd" clip-rule="evenodd" d="M2.05002 2.05017C3.36284 0.737353 5.14341 -0.000183105 7.00002 -0.000183105C8.85663 -0.000183105 10.6372 0.737353 11.95 2.05017C13.2628 3.363 14.0004 5.14356 14.0004 7.00017C14.0004 8.85678 13.2628 10.6374 11.95 11.9502L7.00002 16.9002L2.05002 11.9502C1.39993 11.3002 0.884251 10.5284 0.532423 9.67912C0.180596 8.8298 -0.000488281 7.91949 -0.000488281 7.00017C-0.000488281 6.08086 0.180596 5.17055 0.532423 4.32122C0.884251 3.4719 1.39993 2.70019 2.05002 2.05017ZM7.00002 9.00017C7.53045 9.00017 8.03916 8.78946 8.41423 8.41439C8.7893 8.03931 9.00002 7.53061 9.00002 7.00017C9.00002 6.46974 8.7893 5.96103 8.41423 5.58596C8.03916 5.21089 7.53045 5.00017 7.00002 5.00017C6.46958 5.00017 5.96088 5.21089 5.5858 5.58596C5.21073 5.96103 5.00002 6.46974 5.00002 7.00017C5.00002 7.53061 5.21073 8.03931 5.5858 8.41439C5.96088 8.78946 6.46958 9.00017 7.00002 9.00017Z" fill="#988781"/>
</svg>
