<svg width="11" height="11" viewBox="0 0 11 11" fill="none" xmlns="http://www.w3.org/2000/svg">
<path d="M9.47088 7.62645C8.81596 7.0663 8.15131 6.72699 7.50442 7.2863L7.11815 7.62433C6.83554 7.86972 6.31008 9.01626 4.27846 6.67918C2.24727 4.34506 3.456 3.98164 3.73904 3.73837L4.12742 3.39991C4.77092 2.83933 4.52808 2.13364 4.06396 1.40722L3.78388 0.967218C3.31765 0.242487 2.80996 -0.233474 2.16477 0.326257L1.81615 0.630872C1.531 0.838603 0.733921 1.51383 0.540575 2.7966C0.307883 4.33576 1.04192 6.0983 2.72365 8.03218C4.40327 9.96691 6.04777 10.9387 7.60554 10.9218C8.90015 10.9078 9.682 10.2131 9.92654 9.96056L10.2764 9.65553C10.9199 9.09622 10.5201 8.52676 9.86477 7.96533L9.47088 7.62645Z" fill="#584A45"/>
</svg>
